<svg width="440" height="437" viewBox="0 0 440 437" fill="none" xmlns="http://www.w3.org/2000/svg">
<g opacity="0.04">
<path d="M112.868 27.6687C108.072 30.213 103.276 33.0755 98.7992 36.256C94.0031 39.4365 89.207 42.617 84.7307 46.4336C83.132 47.7058 81.2136 48.978 79.6149 50.5682C76.4175 53.1126 73.5398 55.657 70.6622 58.5195C68.424 60.4278 66.5056 62.6541 64.2674 64.5624C61.7095 67.1068 59.1516 69.9692 56.5937 72.8317C54.6753 74.74 53.0766 76.6483 51.4779 78.8746C48.2805 82.6912 45.4029 86.1898 42.5252 90.3244C41.8857 91.2786 41.2463 92.2327 40.6068 92.8688C37.4094 97.3215 34.212 102.092 31.3344 106.863C30.0554 108.135 29.0962 109.725 28.137 111.316C26.5383 114.178 24.9396 117.359 23.3409 120.221C21.1027 124.674 18.8646 129.444 16.9461 134.215C15.9869 136.76 15.0277 138.986 14.0685 141.53C13.1093 143.757 12.4698 146.301 11.5106 148.527C9.91189 152.98 8.63294 157.751 7.35398 162.522C6.07503 167.292 5.11581 171.745 4.1566 176.516C3.19738 181.287 2.55791 185.739 1.91843 190.51C1.27895 195.281 0.959215 199.733 0.639477 204.504C0 209.275 0 214.046 0 218.498C0 223.269 0 228.04 0.319738 232.493C0.639477 237.263 0.959215 242.034 1.59869 246.487C2.55791 251.257 3.19738 256.028 4.1566 260.799C5.11581 265.57 6.07503 270.34 7.35398 274.793C8.63294 279.564 9.91189 284.335 11.5106 288.787C12.4698 291.014 13.1093 293.558 14.0685 295.784C15.0277 298.011 15.9869 300.555 16.9461 302.781C18.8646 307.552 21.1027 312.323 23.3409 316.776C24.9396 319.956 26.5383 322.819 28.137 325.681C29.0962 327.271 30.0554 329.18 31.0146 330.77C33.8923 335.541 37.0897 340.311 40.287 344.764C40.9265 345.718 41.566 346.672 42.2055 347.308C45.0831 351.125 47.9608 354.942 51.1581 358.758C52.7568 360.666 54.6753 362.893 56.274 364.801C58.8319 367.664 61.3898 370.208 63.9477 373.07C66.1859 375.297 68.1043 377.205 70.3425 379.113V334.586C69.3832 333.314 68.424 332.042 67.4648 330.77C63.9477 326.317 60.7503 321.546 57.8727 316.776C57.2332 315.821 56.5937 314.867 56.274 313.913C54.0358 310.415 52.1174 306.598 50.1989 302.781C47.9608 298.329 45.7226 293.558 43.8042 288.787C43.1647 287.515 42.8449 285.925 42.2055 284.653C40.9265 281.472 39.9673 278.292 38.6883 274.793C37.0897 270.34 36.1304 265.57 34.8515 260.799C34.5317 259.527 34.212 258.255 33.8923 256.982L98.4794 220.089V401.377C102.956 404.239 107.752 407.102 112.548 409.964C116.065 411.872 119.582 413.781 123.099 415.371H126.616V20.3535C125.337 20.9896 124.059 21.6257 123.099 21.9438C119.902 23.8521 116.385 25.7604 112.868 27.6687ZM30.6949 226.45C30.6949 223.905 30.3751 221.043 30.3751 218.498C30.3751 213.728 30.6949 208.957 31.0146 204.504C31.3344 199.733 31.9738 194.963 32.6133 190.51C33.2528 185.739 34.212 180.969 35.1712 176.516C36.1304 171.745 37.4094 166.974 39.0081 162.522C39.9673 159.341 41.2463 155.843 42.5252 152.662C43.1647 151.39 43.4844 149.8 44.1239 148.527C46.0423 143.757 48.2805 138.986 50.5187 134.533C52.4371 130.717 54.3555 126.9 56.5937 123.402C57.2332 122.447 57.8727 121.493 58.1924 120.539C61.07 115.768 64.2674 110.998 67.7845 106.545C68.7438 105.273 69.703 104.001 70.6622 102.728C73.5398 99.2298 76.4175 95.7313 79.2951 92.5508C80.8938 90.6425 82.8122 88.7342 84.7307 86.8259C87.6083 83.9634 90.486 81.101 93.6834 78.5566C95.282 76.9663 97.2005 75.3761 99.1189 74.1039V187.648L30.6949 226.45Z" fill="url(#paint0_linear_131_9060)"/>
<path d="M267.941 5.40684C263.145 4.45269 258.668 3.49854 253.872 2.86245C249.396 1.9083 244.6 1.2722 239.804 0.954149C235.008 0.636099 230.531 0.31805 225.735 0C223.817 0 221.898 0 219.66 0C216.783 0 214.225 0 211.667 0C206.871 0.31805 202.075 0.636099 197.598 0.954149C192.802 1.2722 188.006 1.9083 183.53 2.86245C178.734 3.49854 173.938 4.45269 169.461 5.72489C166.264 6.36099 163.386 7.31514 160.189 7.95124C158.59 8.26929 156.672 8.90539 155.073 9.54149V427.459C156.672 428.095 158.59 428.413 160.189 429.049C163.066 430.003 166.264 430.639 169.141 431.275C173.938 432.229 178.414 433.183 183.21 434.138C188.006 434.774 192.482 435.41 197.278 436.046C202.075 436.364 206.551 436.682 211.347 437C213.905 437 216.783 437 219.34 437C221.259 437 223.177 437 225.415 437C230.212 437 235.008 436.682 239.484 436.046C244.28 435.728 249.076 435.092 253.552 434.456C258.349 433.82 263.145 432.865 267.621 431.911C271.458 430.957 274.975 430.003 278.812 429.049C279.771 428.731 280.73 428.413 281.689 428.095V284.654V252.213L253.552 235.993L211.347 211.503V243.944L253.552 268.434V403.923C248.756 404.877 244.28 405.513 239.484 405.831C234.688 406.467 230.212 406.785 225.415 406.785C223.497 406.785 221.579 406.785 219.34 406.785C216.463 406.785 213.905 406.785 211.347 406.467C206.551 406.149 201.755 405.831 197.278 405.195C192.482 404.559 187.686 403.923 183.21 402.969V33.7132C188.006 32.7591 192.482 32.123 197.278 31.4869C202.075 30.8508 206.551 30.5328 211.347 30.2147C213.905 30.2147 216.783 29.8967 219.34 29.8967C221.259 29.8967 223.177 29.8967 225.415 29.8967C230.212 29.8967 235.008 30.2147 239.484 30.8508C244.28 31.4869 249.076 32.123 253.552 32.7591V203.234L281.689 219.454V8.90539C280.73 8.58734 279.771 8.26929 278.812 7.95124C275.614 6.99709 271.778 6.04294 267.941 5.40684Z" fill="url(#paint1_linear_131_9060)"/>
<path d="M439.001 204.507C438.682 199.736 438.362 194.966 437.722 190.513H437.403V187.65C436.763 183.834 436.124 180.017 435.484 176.519C434.525 171.748 433.566 166.977 432.287 162.525C431.008 157.754 429.729 152.983 428.13 148.53C426.531 144.396 425.252 139.943 423.334 135.808C423.014 135.172 423.014 134.854 422.695 134.218C420.776 129.447 418.538 124.677 416.3 120.224C414.062 115.771 411.823 111.637 409.266 107.502C408.946 107.184 408.626 106.548 408.626 106.23C405.748 101.459 402.551 96.6883 399.354 92.2356C398.075 90.3273 396.476 88.419 395.197 86.5107C392.959 83.6483 390.721 80.7858 388.483 77.9234C386.244 75.0609 383.686 72.1985 381.129 69.6541C379.21 67.7458 377.611 65.8375 375.693 63.9292C372.815 61.0668 369.938 58.5224 367.06 55.978C364.822 54.0697 362.584 51.8433 360.026 49.935C357.788 48.0267 355.23 46.1184 352.992 44.2101C349.155 41.3477 345.318 38.4852 341.161 35.9409C340.522 35.3048 339.563 34.9867 338.923 34.3506C334.447 31.4882 329.651 28.6257 324.855 26.0813C321.977 24.4911 319.419 23.2189 316.541 21.9467C314.623 20.9925 312.705 20.0384 310.786 19.0842V235.676L338.923 251.896L397.115 285.292C396.796 286.246 396.476 287.2 395.837 288.154C395.517 288.472 395.517 289.108 395.197 289.426C393.279 293.879 391.36 298.014 389.442 302.148C388.163 305.011 386.564 307.873 384.965 310.418C384.006 312.326 382.727 314.234 381.768 316.142C381.768 316.461 381.448 316.779 381.448 316.779C378.571 321.231 375.693 325.684 372.496 330.137C370.897 332.363 369.298 334.589 367.38 336.498C365.142 339.042 363.223 341.586 360.665 344.131C358.107 346.675 355.55 349.538 352.992 352.082C350.753 354.308 348.515 356.217 346.277 358.125C343.719 360.351 341.481 362.26 338.923 364.486V284.656L310.786 268.435V417.6C312.705 416.646 314.623 415.692 316.541 414.738C319.419 413.466 321.977 411.875 324.855 410.603C329.651 408.059 334.447 405.196 338.923 402.334C339.563 401.698 340.522 401.38 341.161 400.744C345.318 398.199 349.155 395.337 352.992 392.474C355.55 390.566 357.788 388.658 360.026 386.749C362.264 384.841 364.822 382.933 367.06 380.707C369.938 378.162 372.815 375.3 375.693 372.755C377.611 370.847 379.53 368.939 381.129 367.03C383.686 364.486 386.244 361.624 388.483 358.761C390.721 355.899 392.959 353.354 395.197 350.174C396.476 348.265 398.075 346.357 399.354 344.449C402.551 339.996 405.748 335.225 408.626 330.455C408.946 330.137 409.266 329.501 409.266 329.182C409.905 328.228 410.545 326.956 411.184 326.002C413.102 322.822 414.701 319.641 416.3 316.461C418.538 312.008 420.776 307.237 422.695 302.466C423.014 301.83 423.014 301.512 423.334 300.876V300.558C424.933 296.423 426.531 292.289 427.81 288.154C429.409 283.701 430.688 278.931 431.967 274.16C431.967 273.842 431.967 273.524 432.287 273.206L428.45 270.979L400.313 254.759L338.603 219.137V71.8804C341.161 73.7887 343.719 76.0151 345.957 78.2414C348.196 80.1497 350.434 82.3761 352.672 84.2844C355.23 86.8288 357.788 89.3732 360.346 92.2356C362.584 94.78 364.822 97.3244 367.06 99.8688C368.659 102.095 370.577 104.003 372.176 106.23C375.373 110.682 378.571 114.817 381.129 119.588C381.129 119.906 381.448 120.224 381.448 120.224C384.326 124.677 386.884 129.447 389.442 134.218C391.68 138.353 393.598 142.487 395.197 146.94C395.517 147.258 395.517 147.894 395.837 148.212C397.755 152.665 399.354 157.436 400.952 162.207C402.551 166.659 403.51 171.43 404.789 176.201C405.748 180.971 406.708 185.424 407.347 190.195C407.987 194.966 408.626 199.418 408.946 204.189C409.266 208.96 409.585 213.412 409.585 218.183C409.585 221.364 409.585 224.544 409.266 227.725L438.362 244.263C438.682 240.129 439.321 236.312 439.321 232.177C439.641 227.407 439.641 222.954 439.641 218.183C439.641 214.049 439.321 209.278 439.001 204.507Z" fill="url(#paint2_linear_131_9060)"/>
</g>
<defs>
<linearGradient id="paint0_linear_131_9060" x1="10.898" y1="376.141" x2="254.685" y2="-41.1183" gradientUnits="userSpaceOnUse">
<stop/>
<stop offset="0.9971" stop-color="#424447"/>
</linearGradient>
<linearGradient id="paint1_linear_131_9060" x1="96.3623" y1="426.076" x2="340.149" y2="8.81675" gradientUnits="userSpaceOnUse">
<stop/>
<stop offset="0.9971" stop-color="#424447"/>
</linearGradient>
<linearGradient id="paint2_linear_131_9060" x1="181.746" y1="475.963" x2="425.533" y2="58.7041" gradientUnits="userSpaceOnUse">
<stop/>
<stop offset="0.9971" stop-color="#424447"/>
</linearGradient>
</defs>
</svg>
