<svg width="23" height="23" viewBox="0 0 23 23" fill="none" xmlns="http://www.w3.org/2000/svg">
<path d="M14.6139 15.4388L16.2239 13.8288C16.4408 13.6146 16.7151 13.468 17.0137 13.4068C17.3123 13.3455 17.6222 13.3723 17.9058 13.4838L19.868 14.2672C20.1546 14.3836 20.4004 14.5822 20.5744 14.838C20.7483 15.0938 20.8427 15.3954 20.8455 15.7047V19.2985C20.8438 19.5089 20.7996 19.7168 20.7155 19.9097C20.6313 20.1026 20.509 20.2765 20.3559 20.4208C20.2028 20.5652 20.0221 20.6771 19.8246 20.7498C19.6271 20.8225 19.4169 20.8545 19.2068 20.8438C5.45707 19.9885 2.6827 8.34472 2.15801 3.88847C2.13365 3.66963 2.15591 3.44812 2.22331 3.23851C2.29071 3.02889 2.40172 2.83592 2.54906 2.6723C2.69639 2.50867 2.8767 2.37809 3.07812 2.28915C3.27955 2.20021 3.49752 2.15493 3.7177 2.15628H7.18926C7.49905 2.1572 7.80148 2.25077 8.05765 2.42497C8.31382 2.59917 8.51202 2.84602 8.62676 3.13378L9.4102 5.09597C9.52538 5.37848 9.55477 5.68868 9.49469 5.9878C9.43461 6.28692 9.28772 6.56171 9.07238 6.77784L7.46238 8.38784C7.46238 8.38784 8.38957 14.6625 14.6139 15.4388Z" fill="white"/>
</svg>
