<svg width="135" height="31" viewBox="0 0 135 31" fill="none" xmlns="http://www.w3.org/2000/svg">
<path d="M4.73947 25.2247C4.73582 25.5098 4.68048 25.792 4.57603 26.058C4.47341 26.2943 4.32961 26.5112 4.15109 26.6991C3.90907 26.9284 3.61907 27.1034 3.30121 27.2119C2.91423 27.3509 2.50372 27.4162 2.09177 27.4042H1.2092V29.8721H0.293945V23.2375H2.12445C2.47568 23.2315 2.8265 23.2637 3.17046 23.3337C3.44129 23.3874 3.69749 23.4966 3.92227 23.6542C4.17325 23.7985 4.37729 24.0097 4.51065 24.2632C4.6771 24.5564 4.75637 24.8895 4.73947 25.2247V25.2247ZM3.79152 25.2568C3.7983 25.0464 3.75346 24.8376 3.66077 24.6478C3.58016 24.4804 3.45618 24.3368 3.30121 24.2311C3.1437 24.1533 2.97966 24.089 2.81089 24.0388L2.09177 23.9747H1.2092V26.635H1.96102C2.25828 26.642 2.55515 26.6097 2.84358 26.5388C3.05047 26.4897 3.24151 26.3905 3.39927 26.2504C3.53482 26.1279 3.63611 25.9734 3.69346 25.8016C3.76018 25.6275 3.79343 25.4428 3.79152 25.2568V25.2568Z" fill="#65656B"/>
<path d="M11.8982 29.8714H10.9176L10.2638 28.0125H7.35462L6.66818 29.8714H5.75293L8.23719 23.2368H9.41395L11.8982 29.8714ZM10.0023 27.2432L8.79288 24.006L7.61612 27.2432H10.0023Z" fill="#65656B"/>
<path d="M17.3899 26.6667C17.5543 26.7899 17.6791 26.9568 17.7495 27.1475C17.8607 27.3778 17.9166 27.63 17.9129 27.8847C17.9172 28.1842 17.85 28.4805 17.7168 28.7501C17.5594 28.9855 17.3727 29.2008 17.1611 29.3911C16.9046 29.6032 16.6031 29.7565 16.2785 29.8398C15.9177 29.9448 15.5435 29.9988 15.1672 30.0001C14.7501 29.9924 14.3345 29.9495 13.925 29.8719L13.0098 29.6155V28.6219H13.0751C13.3952 28.7991 13.7353 28.9389 14.0885 29.0385C14.4352 29.1589 14.7994 29.2238 15.1672 29.2308L15.8863 29.1347C16.1125 29.0847 16.3246 28.9862 16.5073 28.8462C16.6636 28.7285 16.7873 28.5743 16.8669 28.3975C16.9336 28.2234 16.9669 28.0386 16.965 27.8526C16.9842 27.6516 16.9385 27.4498 16.8342 27.2757C16.7502 27.1193 16.6263 26.9868 16.4747 26.8911L15.919 26.6988L15.1672 26.6347H14.2519V25.8975H15.0691C15.5128 25.9164 15.9535 25.8167 16.3439 25.6091C16.4892 25.5311 16.6091 25.4145 16.6901 25.2729C16.771 25.1312 16.8096 24.97 16.8015 24.8078C16.8038 24.6529 16.7703 24.4995 16.7035 24.3591C16.62 24.2383 16.5078 24.1393 16.3766 24.0706L15.919 23.9103H15.2979L14.6441 23.9744L14.0885 24.1347L13.6308 24.327L13.304 24.4873H13.2386V23.5257C13.5334 23.4084 13.8403 23.3224 14.1538 23.2693C14.5281 23.1792 14.9125 23.1361 15.2979 23.1411C15.6167 23.1362 15.9349 23.1685 16.2458 23.2373C16.5111 23.274 16.7664 23.3611 16.9977 23.4937C17.2216 23.6329 17.4114 23.819 17.5534 24.0385C17.6642 24.2575 17.7202 24.4992 17.7168 24.7437C17.7273 25.0976 17.5986 25.4419 17.3572 25.7052C17.0977 25.9614 16.7687 26.1393 16.4093 26.218V26.2821C16.5894 26.2978 16.7658 26.3411 16.9323 26.4103C17.1003 26.466 17.2557 26.5531 17.3899 26.6667V26.6667Z" fill="#65656B"/>
<path d="M24.3523 25.2243C24.3486 25.5094 24.2933 25.7916 24.1888 26.0576C24.0987 26.3002 23.9534 26.5194 23.7639 26.6987C23.534 26.9274 23.2548 27.1026 22.9467 27.2115C22.5591 27.3483 22.1491 27.4135 21.7373 27.4038H20.822V29.8717H19.9395V23.2371H21.77C22.1104 23.2307 22.4504 23.263 22.7833 23.3333C23.0561 23.3808 23.3136 23.4906 23.5351 23.6538C23.7879 23.8063 24.0006 24.0149 24.1562 24.2628C24.2963 24.5642 24.3634 24.8932 24.3523 25.2243ZM23.4043 25.2564C23.4064 25.0494 23.3733 24.8436 23.3063 24.6474C23.2024 24.4863 23.0695 24.3451 22.914 24.2307C22.7618 24.142 22.5964 24.0771 22.4237 24.0384L21.7046 23.9743H20.822V26.6346H21.5738C21.8712 26.6437 22.1683 26.6113 22.4564 26.5384C22.6633 26.4893 22.8543 26.3901 23.0121 26.2499C23.1452 26.1188 23.2557 25.9673 23.339 25.8012C23.3946 25.6251 23.4167 25.4404 23.4043 25.2564V25.2564Z" fill="#65656B"/>
<path d="M31.511 29.8714H30.5631L29.8767 28.0125H26.9674L26.3137 29.8714H25.3984L27.85 23.2368H29.0595L31.511 29.8714ZM29.6151 27.2432L28.4384 24.006L27.2289 27.2432H29.6151Z" fill="#65656B"/>
<path d="M38.277 27.8202C38.2813 28.1197 38.2141 28.416 38.0809 28.6855C37.9754 28.9365 37.8067 29.157 37.5906 29.3266C37.3437 29.5091 37.0675 29.6499 36.7734 29.7432C36.4009 29.8428 36.0151 29.8861 35.6293 29.8714H33.1777V23.2368H37.7213V24.006H34.093V25.833H35.662L36.7734 25.8971C37.0813 25.9647 37.371 26.0958 37.6233 26.2817C37.8478 26.443 38.0185 26.6661 38.1136 26.9227C38.236 27.2061 38.2919 27.5128 38.277 27.8202ZM37.3618 27.8202C37.3566 27.6214 37.3122 27.4254 37.231 27.2432C37.1582 27.0711 37.0325 26.9255 36.8714 26.8266C36.6999 26.7293 36.5115 26.6641 36.3158 26.6343H34.093V29.1343H36.2831C36.4882 29.0846 36.686 29.0092 36.8714 28.9099C37.0264 28.8042 37.1504 28.6606 37.231 28.4932C37.3246 28.281 37.3692 28.0512 37.3618 27.8202Z" fill="#65656B"/>
<path d="M45.24 23.9746C45.5333 24.3012 45.7557 24.6828 45.8937 25.0964C46.0319 25.5649 46.098 26.0511 46.0899 26.5387C46.1039 27.0396 46.0264 27.5389 45.861 28.0131C45.7417 28.4181 45.5293 28.7909 45.24 29.1028C44.9698 29.3976 44.6343 29.6279 44.2593 29.7759C43.8432 29.9359 43.3986 30.0122 42.9518 30.0003C42.5053 30.0096 42.0611 29.9334 41.6443 29.7759C41.2693 29.6279 40.9339 29.3976 40.6637 29.1028C40.3813 28.7861 40.1698 28.4149 40.0426 28.0131C39.8744 27.5396 39.7968 27.0398 39.8138 26.5387C39.7994 26.0483 39.8769 25.5594 40.0426 25.0964C40.1769 24.688 40.3875 24.3076 40.6637 23.9746C40.9269 23.6795 41.2653 23.4583 41.6443 23.3336C42.06 23.1689 42.5035 23.082 42.9518 23.0772C43.4008 23.0754 43.8456 23.1627 44.2593 23.3336C44.6322 23.4703 44.9679 23.6897 45.24 23.9746V23.9746ZM45.1746 26.5387C45.2211 25.8293 45.0129 25.1263 44.5862 24.5515C44.3884 24.3175 44.1377 24.132 43.854 24.0096C43.5703 23.8872 43.2614 23.8313 42.9518 23.8464C42.647 23.8313 42.3429 23.8873 42.0644 24.0099C41.786 24.1325 41.5412 24.3181 41.3501 24.5515C40.9234 25.1263 40.7153 25.8293 40.7618 26.5387C40.7131 27.2583 40.9211 27.9722 41.3501 28.5579C41.5493 28.7799 41.7964 28.9555 42.0734 29.0719C42.3505 29.1883 42.6506 29.2427 42.9518 29.231C43.2534 29.245 43.5542 29.1917 43.8316 29.0751C44.1091 28.9585 44.3559 28.7817 44.5535 28.5579C44.9785 28.0772 45.1746 27.4362 45.1746 26.5387V26.5387Z" fill="#65656B"/>
<path d="M52.9869 24.006H50.5681V29.8714H49.6855V24.006H47.2666V23.2368H52.9869V24.006Z" fill="#65656B"/>
<path d="M59.9818 29.8718H58.8377L56.0593 26.8269H55.4709V29.8718H54.5557V23.2372H55.4709V26.218L55.8959 26.1539L56.2881 26.0257L56.6477 25.7051C56.7821 25.5818 56.8832 25.4276 56.9419 25.2564C57.0028 25.1529 57.0574 25.0459 57.1053 24.9359L57.2687 24.5513C57.4125 24.1534 57.6605 23.7997 57.9879 23.5257C58.3635 23.3107 58.7959 23.2103 59.23 23.2372H59.5896V24.0064H59.23L58.707 24.0705L58.4128 24.2628C58.3043 24.3437 58.2243 24.4557 58.184 24.5833C58.1068 24.7277 58.0413 24.8777 57.9879 25.0321C57.8676 25.3421 57.7024 25.6335 57.4976 25.8974C57.3152 26.0996 57.0927 26.2632 56.8438 26.3782L59.9818 29.8718Z" fill="#65656B"/>
<path d="M66.9773 29.8714H65.9967L65.3429 28.0125H62.401L61.7473 29.8714H60.832L63.3163 23.2368H64.493L66.9773 29.8714ZM65.0814 27.2432L63.872 24.006L62.6952 27.2432H65.0814Z" fill="#65656B"/>
<path d="M80.411 23.2368L78.6459 29.8714H77.6326L76.227 24.3586L74.8214 29.8714H73.8408L72.043 23.2368H72.9582L74.3965 28.7496L75.802 23.2368H76.7173L78.1229 28.8137L79.5284 23.2368H80.411Z" fill="#65656B"/>
<path d="M86.8512 29.8714H82.373V23.2368H86.8512V24.006H83.2883V25.833H86.8512V26.6022H83.2883V29.0702H86.8512V29.8714Z" fill="#65656B"/>
<path d="M94.0094 27.8202C94.0175 28.12 93.9501 28.4172 93.8133 28.6855C93.6959 28.9296 93.5291 29.1478 93.323 29.3266C93.0643 29.5092 92.7773 29.6499 92.4731 29.7432C92.0898 29.8446 91.693 29.8878 91.2963 29.8714H88.9102V23.2368H92.0155C92.2649 23.2776 92.5071 23.3531 92.7346 23.4612C92.962 23.5706 93.146 23.751 93.2576 23.974C93.3836 24.1874 93.4406 24.4333 93.421 24.6791C93.4353 24.9635 93.355 25.2447 93.1922 25.4804C93.0224 25.7111 92.7981 25.8981 92.5385 26.0253C92.9526 26.0971 93.3314 26.2997 93.6172 26.6022C93.8958 26.9473 94.0354 27.3807 94.0094 27.8202ZM92.5058 24.8394C92.5078 24.6948 92.4742 24.5518 92.4077 24.4227C92.358 24.3071 92.2642 24.215 92.1462 24.1663C91.9883 24.0709 91.8085 24.0158 91.6232 24.006H89.7927V25.9291H91.6559C91.8191 25.8929 91.9742 25.8277 92.1135 25.7368C92.2457 25.6511 92.3482 25.5282 92.4077 25.3843C92.4891 25.2144 92.523 25.0263 92.5058 24.8394ZM93.0615 27.8522C93.0687 27.6345 93.0355 27.4172 92.9634 27.2112C92.8595 27.036 92.6982 26.9004 92.5058 26.8266L91.9828 26.6663H89.7927V29.1343H91.0022C91.3305 29.1496 91.6595 29.1281 91.9828 29.0702C92.1913 29.0509 92.3926 28.9851 92.5712 28.8778C92.7344 28.7721 92.869 28.6291 92.9634 28.4612C93.0437 28.2684 93.0773 28.0599 93.0615 27.8522V27.8522Z" fill="#65656B"/>
<path d="M98.586 27.3716H95.7422V26.5703H98.586V27.3716Z" fill="#65656B"/>
<path d="M106.071 29.3912L105.614 29.5835L105.091 29.7758L104.47 29.9361L103.75 30.0002C103.293 30.0096 102.838 29.9335 102.41 29.7758C102.016 29.6437 101.658 29.4244 101.364 29.1348C101.066 28.8305 100.833 28.4709 100.678 28.0771C100.513 27.5808 100.435 27.0605 100.449 26.5386C100.435 26.0482 100.512 25.5593 100.678 25.0963C100.819 24.6867 101.054 24.3141 101.364 24.0066C101.665 23.7176 102.02 23.489 102.41 23.3335C102.849 23.1733 103.315 23.0972 103.783 23.1091C104.147 23.1042 104.51 23.1473 104.862 23.2373C105.279 23.3461 105.685 23.4965 106.071 23.6861V24.7437H106.006C105.678 24.458 105.302 24.2303 104.894 24.0707C104.519 23.9288 104.12 23.8528 103.718 23.8463C103.391 23.8414 103.068 23.907 102.77 24.0386C102.497 24.1459 102.252 24.31 102.051 24.5194C101.836 24.7769 101.67 25.0699 101.56 25.3848C101.435 25.7565 101.38 26.1475 101.397 26.5386C101.384 26.953 101.451 27.3661 101.593 27.7566C101.702 28.0619 101.868 28.3445 102.083 28.5899C102.284 28.8145 102.544 28.9808 102.835 29.0707C103.117 29.1762 103.416 29.2305 103.718 29.2309C104.132 29.2406 104.545 29.1641 104.927 29.0066C105.322 28.8557 105.687 28.6388 106.006 28.3655H106.071V29.3912Z" fill="#65656B"/>
<path d="M113.328 29.8714H112.347L111.694 28.0125H108.752L108.098 29.8714H107.183L109.634 23.2368H110.844L113.328 29.8714ZM111.399 27.2432L110.223 24.006L109.046 27.2432H111.399Z" fill="#65656B"/>
<path d="M120.159 29.8718H119.244V24.5513L115.877 29.8718H114.962V23.2372H115.877V28.4615L119.211 23.2372H120.159V29.8718ZM119.309 21.25C119.322 21.4538 119.288 21.6578 119.209 21.8466C119.129 22.0354 119.007 22.204 118.852 22.3397C118.497 22.6078 118.057 22.744 117.61 22.7244C117.172 22.7449 116.742 22.6081 116.4 22.3397C116.244 22.2028 116.119 22.0348 116.035 21.8468C115.95 21.6589 115.908 21.4554 115.91 21.25H116.76C116.747 21.3766 116.76 21.5046 116.799 21.6259C116.839 21.7471 116.903 21.8592 116.989 21.9551C117.069 22.0346 117.166 22.0959 117.274 22.1347C117.381 22.1734 117.496 22.1887 117.61 22.1795C117.729 22.1936 117.85 22.1808 117.963 22.1419C118.076 22.103 118.179 22.0391 118.263 21.9551C118.35 21.8603 118.416 21.7484 118.455 21.6268C118.495 21.5052 118.507 21.3767 118.492 21.25H119.309Z" fill="#65656B"/>
<path d="M127.417 24.006H124.998V29.8714H124.115V24.006H121.696V23.2368H127.417V24.006Z" fill="#65656B"/>
<path d="M134.313 29.8714H133.365L132.679 28.0125H129.77L129.083 29.8714H128.168L130.652 23.2368H131.862L134.313 29.8714ZM132.417 27.2432L131.241 24.006L130.031 27.2432H132.417Z" fill="#65656B"/>
<path d="M8.62954 9.51899H3.36683V13.878H9.61017V16.6344H0V0.224121H9.57748V2.98053H3.36683V6.85874H8.62954V9.51899Z" fill="#65656B"/>
<path d="M23.2412 16.6344H19.8744L14.9386 5.86515V16.6344H11.5391V0.224121H14.9386L19.8744 10.9934V0.224121H23.2412V16.6344Z" fill="#65656B"/>
<path d="M31.4781 0.224121H34.845V11.5703C34.845 13.1728 34.3873 14.4549 33.4721 15.4164C33.0359 15.889 32.5 16.2628 31.9017 16.5119C31.3033 16.761 30.6569 16.8793 30.0072 16.8587C28.4709 16.8587 27.2614 16.41 26.4115 15.5126C25.5617 14.6152 25.1367 13.3651 25.1367 11.7946H28.5362C28.5362 13.3331 29.0266 14.1023 30.0072 14.1023C30.9878 14.1023 31.4781 13.2049 31.4781 11.41V0.224121Z" fill="#65656B"/>
<path d="M49.26 9.90385C49.26 12.1154 48.737 13.8141 47.691 15.0321C46.645 16.25 45.1413 16.859 43.2781 16.859C41.4149 16.859 39.9113 16.25 38.8326 15.0641C37.7539 13.8782 37.2309 12.1474 37.1982 9.96795V7.17949C37.1982 4.9359 37.7539 3.17308 38.7999 1.89103C39.8459 0.608974 41.3496 0 43.2455 0C45.1413 0 46.5796 0.608974 47.6583 1.85897C48.737 3.10897 49.26 4.83974 49.26 7.08333V9.90385ZM45.8932 7.14744C45.8932 5.67308 45.6643 4.58333 45.2394 3.84615C45.0304 3.51332 44.7387 3.23798 44.3915 3.04595C44.0443 2.85392 43.6531 2.75151 43.2545 2.7483C42.8559 2.7451 42.463 2.84121 42.1127 3.02763C41.7623 3.21405 41.466 3.48467 41.2515 3.8141C40.8266 4.51923 40.5978 5.57692 40.5978 6.98718V9.90385C40.5978 11.3462 40.7939 12.4038 41.2515 13.0769C41.4633 13.4114 41.7636 13.6834 42.1204 13.864C42.4773 14.0446 42.8774 14.1271 43.2781 14.1026C43.6655 14.1221 44.0512 14.0404 44.3958 13.8658C44.7404 13.6912 45.0315 13.43 45.2394 13.109C45.6643 12.4359 45.8932 11.4103 45.8932 10V7.14744Z" fill="#65656B"/>
<path d="M56.2556 7.59592L58.7725 0.224121H62.4336L57.9553 10.6728V16.6344H54.5558V10.6728L50.0449 0.224121H53.7386L56.2556 7.59592Z" fill="#65656B"/>
<path d="M80.5748 2.98053H76.4235V16.6344H73.024V2.98053H68.9707V0.224121H80.5748V2.98053Z" fill="#65656B"/>
<path d="M93.9772 9.90385C93.9772 12.1154 93.4215 13.8141 92.3755 15.0321C91.3295 16.25 89.8259 16.859 87.9627 16.859C86.0995 16.859 84.5959 16.25 83.5172 15.0641C82.4385 13.8782 81.9155 12.1474 81.8828 9.96795V7.17949C81.8828 4.9359 82.4385 3.17308 83.4845 1.89103C84.5305 0.608974 86.0341 0 87.93 0C89.8259 0 91.2642 0.608974 92.3429 1.85897C93.4215 3.10897 93.9445 4.83974 93.9772 7.08333V9.90385ZM90.5777 7.14744C90.5777 5.67308 90.3489 4.58333 89.924 3.84615C89.715 3.51332 89.4233 3.23798 89.0761 3.04595C88.7289 2.85392 88.3377 2.75151 87.9391 2.7483C87.5405 2.7451 87.1476 2.84121 86.7972 3.02763C86.4469 3.21405 86.1506 3.48467 85.9361 3.8141C85.5111 4.51923 85.2823 5.57692 85.2823 6.98718V9.90385C85.2823 11.3462 85.4784 12.4038 85.9361 13.0769C86.1479 13.4114 86.4482 13.6834 86.805 13.864C87.1619 14.0446 87.5619 14.1271 87.9627 14.1026C88.3501 14.1221 88.7358 14.0404 89.0804 13.8658C89.4249 13.6912 89.7161 13.43 89.924 13.109C90.3489 12.4359 90.5777 11.4103 90.5777 10V7.14744Z" fill="#65656B"/>
<path d="M107.28 0.224121V11.5703C107.248 13.301 106.79 14.5831 105.842 15.5126C104.894 16.4421 103.554 16.8587 101.789 16.8587C100.024 16.8587 98.6182 16.41 97.6702 15.4805C96.7223 14.551 96.2646 13.2369 96.2646 11.5062V0.224121H99.6642V11.5062C99.6642 12.4357 99.7949 13.1087 100.122 13.5254C100.449 13.9421 100.972 14.1023 101.789 14.1023C102.606 14.1023 103.129 13.91 103.423 13.5254C103.717 13.1408 103.881 12.4677 103.881 11.5703V0.224121H107.28Z" fill="#65656B"/>
<path d="M121.173 11.1538C121.108 13.0449 120.552 14.4551 119.571 15.4167C118.591 16.3782 117.185 16.859 115.387 16.859C113.589 16.859 112.053 16.25 111.04 15.0321C110.026 13.8141 109.536 12.0513 109.536 9.80769V7.05128C109.536 4.77564 110.059 3.04487 111.072 1.82692C112.086 0.608974 113.589 0 115.42 0C117.25 0 118.623 0.51282 119.571 1.50641C120.519 2.5 121.075 3.94231 121.206 5.80128H117.806C117.773 4.64744 117.61 3.84615 117.25 3.39744C116.891 2.94872 116.302 2.75641 115.42 2.75641C114.537 2.75641 113.884 3.04487 113.524 3.6859C113.164 4.32692 112.936 5.32051 112.903 6.73077V9.83974C112.903 11.4744 113.099 12.5962 113.459 13.2051C113.818 13.8141 114.472 14.1026 115.387 14.1026C116.302 14.1026 116.891 13.9103 117.218 13.4615C117.545 13.0128 117.741 12.2756 117.806 11.1538H121.173Z" fill="#65656B"/>
<path d="M135 16.6344H131.633V9.61515H126.631V16.6344H123.265V0.224121H126.631V6.85874H131.633V0.224121H135V16.6344Z" fill="#65656B"/>
</svg>
