<svg width="194" height="45" viewBox="0 0 194 45" fill="none" xmlns="http://www.w3.org/2000/svg">
<path d="M11.4194 3.23278C10.9341 3.49021 10.4489 3.77982 9.996 4.10161C9.51075 4.42339 9.02551 4.74518 8.57262 5.13132C8.41087 5.26004 8.21677 5.38875 8.05503 5.54965C7.73153 5.80707 7.44039 6.0645 7.14924 6.35411C6.92279 6.54718 6.7287 6.77243 6.50225 6.96551C6.24345 7.22293 5.98466 7.51254 5.72586 7.80215C5.53177 7.99522 5.37002 8.18829 5.20827 8.41354C4.88478 8.79969 4.59363 9.15365 4.30248 9.57197C4.23778 9.66851 4.17309 9.76505 4.10839 9.8294C3.78489 10.2799 3.4614 10.7626 3.17025 11.2453C3.04085 11.374 2.9438 11.5349 2.84676 11.6958C2.68501 11.9854 2.52326 12.3072 2.36151 12.5968C2.13507 13.0473 1.90862 13.5299 1.71452 14.0126C1.61748 14.2701 1.52043 14.4953 1.42338 14.7527C1.32633 14.978 1.26163 15.2354 1.16458 15.4607C1.00283 15.9112 0.873437 16.3938 0.744039 16.8765C0.614641 17.3592 0.517592 17.8097 0.420544 18.2924C0.323495 18.7751 0.258796 19.2256 0.194097 19.7082C0.129398 20.1909 0.0970485 20.6414 0.064699 21.1241C0 21.6068 0 22.0895 0 22.54C0 23.0226 0 23.5053 0.0323495 23.9558C0.064699 24.4385 0.0970485 24.9212 0.161748 25.3717C0.258796 25.8544 0.323495 26.337 0.420544 26.8197C0.517592 27.3024 0.614641 27.7851 0.744039 28.2356C0.873437 28.7183 1.00283 29.2009 1.16458 29.6514C1.26163 29.8767 1.32633 30.1341 1.42338 30.3594C1.52043 30.5846 1.61748 30.842 1.71452 31.0673C1.90862 31.55 2.13507 32.0327 2.36151 32.4832C2.52326 32.8049 2.68501 33.0946 2.84676 33.3842C2.9438 33.5451 3.04085 33.7381 3.1379 33.899C3.42905 34.3817 3.75254 34.8644 4.07604 35.3149C4.14074 35.4114 4.20544 35.5079 4.27013 35.5723C4.56128 35.9585 4.85243 36.3446 5.17592 36.7307C5.33767 36.9238 5.53176 37.1491 5.69351 37.3421C5.95231 37.6317 6.2111 37.8892 6.4699 38.1788C6.69635 38.404 6.89044 38.5971 7.11689 38.7902V34.2852C7.01984 34.1564 6.92279 34.0277 6.82575 33.899C6.4699 33.4485 6.14641 32.9658 5.85526 32.4832C5.79056 32.3866 5.72586 32.2901 5.69351 32.1936C5.46707 31.8396 5.27297 31.4534 5.07887 31.0673C4.85243 30.6168 4.62598 30.1341 4.43188 29.6514C4.36718 29.5227 4.33483 29.3618 4.27013 29.2331C4.14074 28.9113 4.04369 28.5895 3.91429 28.2356C3.75254 27.7851 3.65549 27.3024 3.5261 26.8197C3.49375 26.691 3.4614 26.5623 3.42905 26.4336L9.96365 22.7009V41.0427C10.4165 41.3323 10.9018 41.6219 11.387 41.9115C11.7429 42.1046 12.0987 42.2976 12.4546 42.4585H12.8104V2.49268C12.681 2.55703 12.5516 2.62139 12.4546 2.65357C12.1311 2.84664 11.7752 3.03971 11.4194 3.23278ZM3.10555 23.3444C3.10555 23.087 3.0732 22.7974 3.0732 22.54C3.0732 22.0573 3.10555 21.5746 3.1379 21.1241C3.17025 20.6414 3.23495 20.1587 3.29965 19.7082C3.36435 19.2256 3.4614 18.7429 3.55845 18.2924C3.65549 17.8097 3.78489 17.327 3.94664 16.8765C4.04369 16.5547 4.17309 16.2008 4.30248 15.879C4.36718 15.7503 4.39953 15.5894 4.46423 15.4607C4.65833 14.978 4.88478 14.4953 5.11122 14.0448C5.30532 13.6587 5.49942 13.2725 5.72586 12.9186C5.79056 12.822 5.85526 12.7255 5.88761 12.6289C6.17876 12.1463 6.50225 11.6636 6.85809 11.2131C6.95514 11.0844 7.05219 10.9557 7.14924 10.8269C7.44039 10.473 7.73153 10.119 8.02268 9.79723C8.18442 9.60415 8.37852 9.41108 8.57262 9.21801C8.86376 8.9284 9.15491 8.63879 9.4784 8.38137C9.64015 8.22047 9.83425 8.05958 10.0283 7.93086V19.4186L3.10555 23.3444Z" fill="white"/>
<path d="M27.1093 0.980386C26.6241 0.88385 26.1712 0.787315 25.6859 0.722957C25.233 0.626421 24.7478 0.562064 24.2626 0.529886C23.7773 0.497707 23.3244 0.465528 22.8392 0.43335C22.6451 0.43335 22.451 0.43335 22.2245 0.43335C21.9334 0.43335 21.6746 0.43335 21.4158 0.43335C20.9306 0.465528 20.4453 0.497707 19.9924 0.529886C19.5072 0.562064 19.0219 0.626421 18.569 0.722957C18.0838 0.787315 17.5986 0.88385 17.1457 1.01256C16.8222 1.07692 16.531 1.17346 16.2075 1.23782C16.0458 1.26999 15.8517 1.33435 15.6899 1.39871V43.6814C15.8517 43.7458 16.0458 43.778 16.2075 43.8423C16.4987 43.9389 16.8222 44.0032 17.1133 44.0676C17.5986 44.1641 18.0515 44.2606 18.5367 44.3572C19.0219 44.4215 19.4748 44.4859 19.9601 44.5503C20.4453 44.5824 20.8982 44.6146 21.3835 44.6468C21.6422 44.6468 21.9334 44.6468 22.1922 44.6468C22.3863 44.6468 22.5804 44.6468 22.8068 44.6468C23.2921 44.6468 23.7773 44.6146 24.2302 44.5503C24.7155 44.5181 25.2007 44.4537 25.6536 44.3894C26.1388 44.325 26.6241 44.2285 27.077 44.1319C27.4652 44.0354 27.821 43.9389 28.2092 43.8423C28.3062 43.8101 28.4033 43.778 28.5003 43.7458V29.2332V25.951L25.6536 24.3099L21.3835 21.8321V25.1144L25.6536 27.5921V41.3002C25.1683 41.3967 24.7155 41.4611 24.2302 41.4933C23.745 41.5576 23.2921 41.5898 22.8068 41.5898C22.6127 41.5898 22.4186 41.5898 22.1922 41.5898C21.901 41.5898 21.6422 41.5898 21.3835 41.5576C20.8982 41.5255 20.413 41.4933 19.9601 41.4289C19.4748 41.3646 18.9896 41.3002 18.5367 41.2037V3.84428C19.0219 3.74775 19.4748 3.68339 19.9601 3.61903C20.4453 3.55468 20.8982 3.5225 21.3835 3.49032C21.6422 3.49032 21.9334 3.45814 22.1922 3.45814C22.3863 3.45814 22.5804 3.45814 22.8068 3.45814C23.2921 3.45814 23.7773 3.49032 24.2302 3.55468C24.7155 3.61903 25.2007 3.68339 25.6536 3.74775V20.9955L28.5003 22.6366V1.33435C28.4033 1.30217 28.3062 1.26999 28.2092 1.23782C27.8857 1.14128 27.4975 1.04474 27.1093 0.980386Z" fill="white"/>
<path d="M44.416 21.1244C44.3837 20.6417 44.3513 20.159 44.2866 19.7085H44.2543V19.4189C44.1896 19.0328 44.1249 18.6466 44.0602 18.2927C43.9631 17.81 43.8661 17.3273 43.7367 16.8768C43.6073 16.3941 43.4779 15.9115 43.3161 15.461C43.1544 15.0426 43.025 14.5921 42.8309 14.1738C42.7985 14.1095 42.7985 14.0773 42.7662 14.0129C42.5721 13.5302 42.3456 13.0476 42.1192 12.5971C41.8927 12.1466 41.6663 11.7282 41.4075 11.3099C41.3751 11.2777 41.3428 11.2134 41.3428 11.1812C41.0517 10.6985 40.7282 10.2158 40.4047 9.76534C40.2753 9.57227 40.1135 9.3792 39.9841 9.18613C39.7577 8.89652 39.5312 8.60691 39.3048 8.3173C39.0783 8.0277 38.8195 7.73809 38.5607 7.48066C38.3666 7.28759 38.2049 7.09452 38.0108 6.90144C37.7197 6.61184 37.4285 6.35441 37.1374 6.09698C36.9109 5.90391 36.6845 5.67866 36.4257 5.48558C36.1992 5.29251 35.9404 5.09944 35.714 4.90637C35.3258 4.61676 34.9376 4.32715 34.5171 4.06973C34.4524 4.00537 34.3553 3.97319 34.2906 3.90883C33.8377 3.61922 33.3525 3.32962 32.8672 3.07219C32.5761 2.91129 32.3173 2.78258 32.0261 2.65387C31.832 2.55733 31.6379 2.46079 31.4438 2.36426V24.2779L34.2906 25.919L40.1782 29.2978C40.1459 29.3943 40.1135 29.4908 40.0488 29.5874C40.0165 29.6196 40.0165 29.6839 39.9841 29.7161C39.79 30.1666 39.5959 30.5849 39.4018 31.0032C39.2724 31.2928 39.1107 31.5825 38.9489 31.8399C38.8519 32.033 38.7225 32.226 38.6254 32.4191C38.6254 32.4513 38.5931 32.4835 38.5931 32.4835C38.3019 32.934 38.0108 33.3845 37.6873 33.835C37.5256 34.0602 37.3638 34.2855 37.1697 34.4785C36.9433 34.736 36.7492 34.9934 36.4904 35.2508C36.2316 35.5082 35.9728 35.7979 35.714 36.0553C35.4875 36.2805 35.2611 36.4736 35.0346 36.6667C34.7758 36.8919 34.5494 37.085 34.2906 37.3102V29.2334L31.4438 27.5923V42.6841C31.6379 42.5875 31.832 42.491 32.0261 42.3945C32.3173 42.2658 32.5761 42.1049 32.8672 41.9762C33.3525 41.7187 33.8377 41.4291 34.2906 41.1395C34.3553 41.0751 34.4524 41.043 34.5171 40.9786C34.9376 40.7212 35.3258 40.4316 35.714 40.142C35.9728 39.9489 36.1992 39.7558 36.4257 39.5628C36.6521 39.3697 36.9109 39.1766 37.1374 38.9514C37.4285 38.6939 37.7197 38.4043 38.0108 38.1469C38.2049 37.9538 38.399 37.7607 38.5607 37.5677C38.8195 37.3102 39.0783 37.0206 39.3048 36.731C39.5312 36.4414 39.7577 36.184 39.9841 35.8622C40.1135 35.6691 40.2753 35.4761 40.4047 35.283C40.7282 34.8325 41.0517 34.3498 41.3428 33.8671C41.3751 33.835 41.4075 33.7706 41.4075 33.7384C41.4722 33.6419 41.5369 33.5132 41.6016 33.4166C41.7957 33.0948 41.9574 32.7731 42.1192 32.4513C42.3456 32.0008 42.5721 31.5181 42.7662 31.0354C42.7985 30.9711 42.7985 30.9389 42.8309 30.8745V30.8423C42.9926 30.424 43.1544 30.0057 43.2838 29.5874C43.4455 29.1369 43.5749 28.6542 43.7043 28.1715C43.7043 28.1393 43.7043 28.1072 43.7367 28.075L43.3485 27.8497L40.5017 26.2086L34.2583 22.6046V7.70591C34.5171 7.89898 34.7758 8.12423 35.0023 8.34948C35.2287 8.54255 35.4552 8.76781 35.6816 8.96088C35.9404 9.21831 36.1992 9.47573 36.458 9.76534C36.6845 10.0228 36.9109 10.2802 37.1374 10.5376C37.2991 10.7629 37.4932 10.956 37.655 11.1812C37.9784 11.6317 38.3019 12.05 38.5607 12.5327C38.5607 12.5649 38.5931 12.5971 38.5931 12.5971C38.8842 13.0476 39.143 13.5302 39.4018 14.0129C39.6283 14.4312 39.8224 14.8496 39.9841 15.3001C40.0165 15.3322 40.0165 15.3966 40.0488 15.4288C40.2429 15.8793 40.4047 16.362 40.5664 16.8446C40.7282 17.2951 40.8252 17.7778 40.9546 18.2605C41.0517 18.7432 41.1487 19.1937 41.2134 19.6764C41.2781 20.159 41.3428 20.6095 41.3751 21.0922C41.4075 21.5749 41.4398 22.0254 41.4398 22.5081C41.4398 22.8299 41.4398 23.1517 41.4075 23.4734L44.3513 25.1467C44.3837 24.7284 44.4483 24.3423 44.4483 23.9239C44.4807 23.4413 44.4807 22.9908 44.4807 22.5081C44.4807 22.0898 44.4483 21.6071 44.416 21.1244Z" fill="white"/>
<path d="M63.2756 11.7922L69.325 29.2331H67.2546L65.5401 24.2454H58.779L58.7143 24.4384L57.0645 29.2331H54.9941L61.0435 11.7922H63.2756ZM59.426 22.3146H64.8607L62.1434 14.4631L59.426 22.3146Z" fill="white"/>
<path d="M77.9301 29.1366C77.5419 29.2009 77.1537 29.2331 76.7332 29.2331C76.3126 29.2331 75.9244 29.2009 75.5686 29.1366L75.4392 29.1044C74.5011 28.9113 73.757 28.4608 73.2071 27.7851V34.9609H71.2661V17.5522H73.2071V18.9681C73.757 18.3245 74.5011 17.874 75.4069 17.681L75.5362 17.6488C75.9244 17.5844 76.3126 17.5522 76.7332 17.5522C77.1537 17.5522 77.5419 17.5844 77.9301 17.6488C77.9948 17.6488 78.0272 17.6488 78.0595 17.681C79.3535 17.9384 80.3887 18.582 81.1004 19.6117C81.8444 20.6092 82.2002 21.8964 82.2002 23.4088C82.2002 24.9533 81.8444 26.2083 81.1004 27.2058C80.3563 28.2034 79.3211 28.8469 78.0272 29.1366H77.9301ZM76.7655 27.3024C77.8978 27.3024 78.7712 26.9806 79.3858 26.3048C80.0005 25.6291 80.2916 24.6637 80.2916 23.4088C80.2916 22.1538 80.0005 21.1884 79.3858 20.5127C78.7712 19.8369 77.8978 19.5151 76.7655 19.5151C75.6333 19.5151 74.7599 19.8369 74.1452 20.5127C73.5306 21.1884 73.2394 22.1538 73.2394 23.4088C73.2394 24.6637 73.5306 25.6291 74.1452 26.3048C74.7275 26.9484 75.6009 27.3024 76.7655 27.3024Z" fill="white"/>
<path d="M90.8373 29.1366C90.4491 29.2009 90.0609 29.2331 89.6404 29.2331C89.2199 29.2331 88.8317 29.2009 88.4758 29.1366L88.3464 29.1044C87.4083 28.9113 86.6643 28.4608 86.1143 27.7851V34.9609H84.1733V17.5522H86.1143V18.9681C86.6643 18.3245 87.4083 17.874 88.3141 17.681L88.4435 17.6488C88.8317 17.5844 89.2199 17.5522 89.6404 17.5522C90.0609 17.5522 90.4491 17.5844 90.8373 17.6488C90.902 17.6488 90.9344 17.6488 90.9667 17.681C92.2607 17.9384 93.2959 18.582 94.0076 19.6117C94.7516 20.6092 95.1075 21.8964 95.1075 23.4088C95.1075 24.9533 94.7516 26.2083 94.0076 27.2058C93.2636 28.2034 92.2284 28.8469 90.9344 29.1366H90.8373ZM89.6728 27.3024C90.805 27.3024 91.6784 26.9806 92.2931 26.3048C92.9077 25.6291 93.1989 24.6637 93.1989 23.4088C93.1989 22.1538 92.9077 21.1884 92.2931 20.5127C91.6784 19.8369 90.805 19.5151 89.6728 19.5151C88.5405 19.5151 87.6671 19.8369 87.0524 20.5127C86.4378 21.1884 86.1467 22.1538 86.1467 23.4088C86.1467 24.6637 86.4378 25.6291 87.0524 26.3048C87.6671 26.9484 88.5082 27.3024 89.6728 27.3024Z" fill="white"/>
<path d="M111.347 29.2332H109.406V26.9164C108.144 28.461 106.398 29.2332 104.23 29.2332C102.063 29.2332 100.348 28.4931 99.0866 26.9807C97.825 25.4683 97.1456 23.4089 97.1133 20.8024V20.1911C97.178 17.5846 97.825 15.5573 99.1513 14.0449C100.478 12.5325 102.224 11.7603 104.457 11.7603C105.912 11.7603 107.174 12.082 108.274 12.7578C109.374 13.4335 110.215 14.3989 110.829 15.686L109.05 16.4583C108.144 14.6242 106.624 13.7231 104.457 13.7231C102.774 13.7231 101.48 14.3024 100.542 15.4286C99.6042 16.5549 99.119 18.1316 99.0543 20.2232V20.8346C99.0866 22.8941 99.5718 24.503 100.478 25.6292C101.383 26.7555 102.613 27.3025 104.23 27.3025C105.686 27.3025 106.85 26.8198 107.756 25.8545C108.63 24.8891 109.18 23.5376 109.341 21.8C109.341 21.6713 109.374 21.5426 109.374 21.4782H105.621V19.5475H111.347V29.2332Z" fill="white"/>
<path d="M115.261 29.2331H113.32V17.5522H115.261V18.9681C115.811 18.3245 116.555 17.874 117.461 17.681L117.59 17.6488C117.882 17.5844 118.173 17.5522 118.496 17.5522V19.483C117.493 19.5473 116.717 19.8691 116.167 20.4805C115.617 21.0919 115.326 21.9607 115.261 23.0548V29.2331Z" fill="white"/>
<path d="M131.371 24.1812H122.41C122.443 24.3421 122.443 24.4708 122.475 24.5352C122.637 25.3075 122.928 25.9189 123.413 26.3694C124.028 26.9808 124.901 27.2704 126.034 27.2704C126.778 27.2704 127.425 27.1417 128.007 26.8842C128.589 26.6268 129.01 26.2729 129.301 25.7902L131.048 26.6268C130.595 27.4313 129.916 28.0749 129.01 28.5254C128.136 28.9759 127.133 29.2011 126.001 29.2011C124.319 29.2011 122.96 28.6862 121.958 27.6244C120.955 26.5946 120.437 25.1788 120.405 23.4411V23.3446C120.405 21.5748 120.89 20.1589 121.893 19.097C122.896 18.0351 124.222 17.5203 125.872 17.5203C127.328 17.5203 128.525 17.9386 129.495 18.7431C130.433 19.5475 131.048 20.6738 131.274 22.1218C131.339 22.508 131.371 22.8941 131.371 23.2802V24.1812ZM129.333 22.3792C129.333 22.2827 129.333 22.1862 129.301 22.0896L129.269 21.9931C128.848 20.2876 127.748 19.451 125.904 19.451C124.869 19.451 124.06 19.7406 123.446 20.2876C122.993 20.7059 122.702 21.2852 122.508 21.9931C122.475 22.0896 122.475 22.2183 122.443 22.3471H129.333V22.3792Z" fill="white"/>
<path d="M137.615 29.1366L137.485 29.1044C136.191 28.8469 135.156 28.2034 134.445 27.1737C133.733 26.1439 133.345 24.889 133.345 23.3766C133.345 21.832 133.701 20.577 134.445 19.5795C135.189 18.582 136.224 17.9384 137.518 17.681L137.647 17.6488C138.035 17.5844 138.424 17.5522 138.812 17.5522C139.232 17.5522 139.621 17.5844 140.009 17.6488L140.106 17.681C141.012 17.874 141.756 18.2924 142.338 18.9681V17.5522H144.279V29.2331H142.338V27.785C141.788 28.4608 141.044 28.8791 140.138 29.0722L140.009 29.1044C139.621 29.1687 139.232 29.2009 138.812 29.2009C138.391 29.2331 138.003 29.2009 137.615 29.1366ZM135.286 23.3766C135.286 24.6315 135.577 25.5969 136.191 26.2727C136.806 26.9484 137.68 27.2702 138.812 27.2702C139.944 27.2702 140.817 26.9484 141.432 26.2727C142.047 25.5969 142.338 24.6315 142.338 23.3766V23.3444C142.338 22.0894 142.047 21.1241 141.432 20.4483C140.817 19.7726 139.944 19.4508 138.812 19.4508C137.68 19.4508 136.806 19.7726 136.191 20.4483C135.577 21.1563 135.286 22.1216 135.286 23.3766Z" fill="white"/>
<path d="M148.031 19.708L146.252 19.5149V17.5842L148.031 17.7773V13.6262H149.972V17.7773L151.751 17.5842V19.5149L149.972 19.708V24.4382V24.7278V25.661C149.972 26.7229 150.457 27.27 151.396 27.27H151.751V29.2007H151.396C150.393 29.2007 149.584 28.8789 148.969 28.2031C148.355 27.5596 148.031 26.6907 148.031 25.6288V24.9853V24.6957V19.708Z" fill="white"/>
<path d="M160.648 24.181C161.78 24.181 162.653 24.4384 163.236 24.9854C163.721 25.4359 163.98 26.0151 163.98 26.6909C163.98 27.3666 163.721 27.978 163.236 28.4285C162.653 28.9756 161.78 29.233 160.648 29.233C159.677 29.233 158.933 29.0399 158.351 28.6538C157.866 28.332 157.542 27.8815 157.38 27.3345L158.48 27.2379C158.61 27.4954 158.804 27.7206 159.095 27.8815C159.483 28.0746 160.001 28.2033 160.648 28.2033C161.553 28.2033 162.168 28.0102 162.556 27.6241C162.686 27.4954 162.815 27.3345 162.88 27.1414C162.912 27.0127 162.944 26.884 162.944 26.7231C162.944 26.5944 162.912 26.4335 162.88 26.3048C162.815 26.1117 162.718 25.9508 162.556 25.8221C162.168 25.4359 161.553 25.275 160.648 25.275C159.548 25.275 158.739 25.0176 158.157 24.5027C157.672 24.0522 157.445 23.5052 157.445 22.8616C157.445 22.1859 157.672 21.6389 158.157 21.2205C158.739 20.7057 159.548 20.4482 160.648 20.4482C161.651 20.4482 162.395 20.6413 162.944 21.0596C163.171 21.2205 163.333 21.4136 163.494 21.6389C163.591 21.8319 163.689 22.025 163.753 22.2181L162.653 22.3146C162.524 22.0894 162.33 21.8963 162.071 21.7676C161.715 21.6067 161.262 21.5101 160.68 21.5101C159.839 21.5101 159.257 21.671 158.901 22.025C158.771 22.1537 158.674 22.3146 158.61 22.4755C158.577 22.6042 158.545 22.7329 158.545 22.8616C158.545 22.9904 158.577 23.1191 158.61 23.2478C158.674 23.4087 158.771 23.5696 158.901 23.6983C159.224 24.0201 159.839 24.181 160.648 24.181Z" fill="white"/>
<path d="M167.991 20.6413L169.414 20.4804V21.5423L167.991 21.7032V25.4359V25.9186V26.6587C167.991 27.6562 168.444 28.1711 169.35 28.1711H169.414V29.233H169.35C168.606 29.233 168.023 29.0077 167.57 28.5251C167.117 28.0424 166.923 27.431 166.923 26.6265V26.3691V25.8864V21.7032L165.5 21.5423V20.4804L166.923 20.6413V17.3269H167.991V20.6413Z" fill="white"/>
<path d="M175.043 20.416C176.305 20.416 177.308 20.8022 178.052 21.6066C178.796 22.4111 179.152 23.473 179.152 24.8245C179.152 26.176 178.796 27.2701 178.052 28.0424C177.308 28.8468 176.305 29.233 175.043 29.233C173.782 29.233 172.779 28.8468 172.035 28.0424C171.291 27.2379 170.935 26.176 170.935 24.8245C170.935 23.473 171.291 22.3789 172.035 21.6066C172.747 20.8022 173.782 20.416 175.043 20.416ZM175.043 28.1711C176.014 28.1711 176.758 27.8815 177.308 27.3022C177.825 26.723 178.117 25.8864 178.117 24.8245C178.117 23.7626 177.858 22.9259 177.308 22.3467C176.79 21.7675 176.014 21.4779 175.043 21.4779C174.073 21.4779 173.329 21.7675 172.779 22.3467C172.261 22.9259 171.97 23.7626 171.97 24.8245C171.97 25.8864 172.229 26.723 172.779 27.3022C173.329 27.8815 174.073 28.1711 175.043 28.1711Z" fill="white"/>
<path d="M183.778 20.5126L183.875 20.4804C184.004 20.4482 184.166 20.4482 184.295 20.416V21.4779C183.551 21.5744 182.969 21.8641 182.516 22.3467C182.063 22.8294 181.837 23.473 181.74 24.3096H181.707V29.2008H180.64V20.4482H181.707V22.1537C182.16 21.2848 182.839 20.7378 183.778 20.5126Z" fill="white"/>
<path d="M194 25.2429H186.851C186.883 25.4681 186.883 25.6612 186.916 25.8221C187.077 26.5944 187.401 27.1736 187.919 27.5919C188.436 28.0102 189.115 28.2033 189.957 28.2033C191.153 28.2033 192.059 27.8171 192.642 27.077L193.612 27.5597C193.256 28.1068 192.739 28.5251 192.124 28.8147C191.477 29.1043 190.765 29.2652 189.957 29.2652C188.663 29.2652 187.66 28.879 186.883 28.1068C186.139 27.3345 185.751 26.2726 185.719 24.9532V24.8567C185.719 23.5052 186.075 22.4111 186.819 21.6389C187.563 20.8344 188.566 20.4482 189.827 20.4482C190.927 20.4482 191.833 20.7378 192.545 21.3492C193.256 21.9606 193.709 22.7973 193.871 23.8914C193.903 24.181 193.936 24.4706 193.936 24.7602V25.2429H194ZM186.98 23.6661C186.948 23.827 186.916 24.0201 186.883 24.2453H192.933C192.933 24.1488 192.9 24.0522 192.9 23.9557L192.868 23.827C192.868 23.7948 192.868 23.7626 192.836 23.7305V23.6661C192.674 22.9582 192.318 22.4111 191.833 22.025C191.348 21.6389 190.701 21.4458 189.924 21.4458C189.148 21.4458 188.501 21.6389 188.016 22.025C187.466 22.4433 187.142 22.9582 186.98 23.6661Z" fill="white"/>
</svg>
