<svg width="20" height="20" viewBox="0 0 20 20" fill="none" xmlns="http://www.w3.org/2000/svg">
<g clip-path="url(#clip0_131_8786)">
<path d="M18.3049 2.09533C16.1128 -0.0494385 12.6086 -0.048972 10.4171 2.09639L1.22597 11.2876C-0.43597 12.9887 -0.404209 15.715 1.29692 17.3769C2.97005 19.0115 5.64217 19.0115 7.31531 17.3769L15.638 9.05418C16.72 7.97221 16.72 6.21796 15.638 5.13599C14.5561 4.05402 12.8018 4.05402 11.7198 5.13599L3.75896 13.0968C3.48129 13.3843 3.48926 13.8425 3.77677 14.1202C4.05724 14.391 4.50185 14.391 4.78232 14.1202L12.7432 6.15931C13.2711 5.65358 14.109 5.67161 14.6147 6.19951C15.1051 6.71147 15.1051 7.5189 14.6147 8.03086L6.29199 16.3535C5.16766 17.4619 3.35768 17.4489 2.24934 16.3246C1.15219 15.2116 1.15219 13.4239 2.24934 12.3109L11.4405 3.11971C13.0777 1.48194 15.7325 1.48147 17.3702 3.11861C19.008 4.75574 19.0085 7.4106 17.3713 9.04837L8.18016 18.2396C7.87658 18.4995 7.84122 18.9564 8.1012 19.26C8.36119 19.5636 8.81806 19.5989 9.12164 19.339C9.14996 19.3147 9.17634 19.2883 9.2006 19.26L18.3918 10.0688C20.5696 7.843 20.5307 4.27313 18.3049 2.09533Z" fill="#CECECE"/>
</g>
<defs>
<clipPath id="clip0_131_8786">
<rect width="20" height="20" fill="white"/>
</clipPath>
</defs>
</svg>
