<svg width="30" height="29" viewBox="0 0 30 29" fill="none" xmlns="http://www.w3.org/2000/svg">
<path fill-rule="evenodd" clip-rule="evenodd" d="M20.5907 2.61834C16.9086 1.79389 13.0903 1.79389 9.40822 2.61834L9.01148 2.70627C7.97576 2.93822 7.02451 3.45324 6.2634 4.19412C5.50229 4.935 4.96112 5.87272 4.7 6.90313C3.76667 10.5871 3.76667 14.4463 4.7 18.1303C4.94902 19.113 5.453 20.0123 6.16084 20.737C6.86869 21.4617 7.75523 21.986 8.7306 22.2569L9.27481 25.5112C9.29218 25.6145 9.33689 25.7113 9.40428 25.7915C9.47168 25.8716 9.55929 25.9322 9.658 25.9669C9.75671 26.0016 9.8629 26.0092 9.96553 25.9888C10.0681 25.9685 10.1634 25.9209 10.2415 25.8511L13.4377 22.9872C15.8369 23.1339 18.2449 22.9417 20.5907 22.4163L20.9886 22.3284C22.0243 22.0964 22.9756 21.5814 23.7367 20.8405C24.4978 20.0996 25.039 19.1619 25.3001 18.1315C26.2333 14.4475 26.2333 10.5883 25.3001 6.9043C25.0389 5.87375 24.4975 4.93592 23.7362 4.19503C22.9749 3.45414 22.0234 2.9392 20.9874 2.70744L20.5907 2.61834ZM10.396 6.80817C10.1785 6.77646 9.95668 6.82032 9.76751 6.93244H9.75113C9.31226 7.19035 8.91669 7.51508 8.57963 7.89725C8.29875 8.22198 8.14661 8.55022 8.10682 8.86675C8.08341 9.05432 8.0998 9.24423 8.1548 9.42359L8.17587 9.43532C8.49186 10.365 8.90381 11.2594 9.40705 12.1011C10.0559 13.2834 10.8545 14.3768 11.7828 15.3543L11.8109 15.3942L11.8554 15.427L11.8823 15.4586L11.9151 15.4868C12.8943 16.4195 13.9884 17.2232 15.1709 17.8783C16.5226 18.6157 17.343 18.9638 17.8357 19.1092V19.1162C17.9797 19.1608 18.1108 19.1807 18.243 19.1807C18.6626 19.1497 19.0598 18.9788 19.3712 18.6954C19.7516 18.3578 20.0734 17.9603 20.3238 17.5184V17.5102C20.5591 17.0647 20.4795 16.645 20.1401 16.3601C19.4584 15.7635 18.7212 15.2335 17.9387 14.7775C17.4144 14.4927 16.8819 14.665 16.6666 14.9534L16.2066 15.5348C15.9702 15.8232 15.5419 15.7834 15.5419 15.7834L15.5302 15.7904C12.334 14.9733 11.4809 11.7319 11.4809 11.7319C11.4809 11.7319 11.4411 11.2911 11.7372 11.066L12.313 10.6018C12.5892 10.3767 12.7811 9.84445 12.485 9.31926C12.0328 8.53471 11.5048 7.79652 10.9086 7.11532C10.7785 6.955 10.5962 6.84581 10.3936 6.807L10.396 6.80817ZM15.7959 5.39906C15.6407 5.39906 15.4918 5.46082 15.3821 5.57074C15.2723 5.68067 15.2107 5.82976 15.2107 5.98521C15.2107 6.14067 15.2723 6.28976 15.3821 6.39969C15.4918 6.50961 15.6407 6.57137 15.7959 6.57137C17.2763 6.57137 18.5052 7.05553 19.4777 7.984C19.9774 8.49161 20.3671 9.093 20.6223 9.75184C20.8786 10.4118 20.9956 11.1164 20.9652 11.8221C20.962 11.8991 20.9739 11.976 21.0003 12.0483C21.0267 12.1207 21.0671 12.1871 21.1192 12.2438C21.2243 12.3584 21.3706 12.4264 21.5258 12.4329C21.681 12.4394 21.8324 12.3839 21.9467 12.2786C22.0611 12.1733 22.129 12.0268 22.1355 11.8714C22.1718 11.0033 22.028 10.137 21.713 9.32746C21.3967 8.51404 20.9171 7.7743 20.304 7.15401L20.2922 7.14228C19.0856 5.98756 17.5584 5.39906 15.7959 5.39906ZM15.7561 7.32633C15.6009 7.32633 15.452 7.38809 15.3423 7.49802C15.2326 7.60794 15.1709 7.75703 15.1709 7.91249C15.1709 8.06795 15.2326 8.21704 15.3423 8.32696C15.452 8.43689 15.6009 8.49864 15.7561 8.49864H15.776C16.8433 8.57484 17.6204 8.93122 18.1646 9.51621C18.7228 10.1188 19.0119 10.8679 18.9897 11.794C18.9861 11.9495 19.0443 12.1 19.1515 12.2124C19.2588 12.3249 19.4062 12.3901 19.5614 12.3936C19.7166 12.3972 19.8668 12.3389 19.9791 12.2315C20.0914 12.1241 20.1564 11.9764 20.16 11.821C20.1881 10.6053 19.7972 9.55606 19.0224 8.71904V8.71669C18.2301 7.8656 17.1429 7.41543 15.8345 7.32751L15.8146 7.32516L15.7561 7.32633ZM15.7338 9.28995C15.6555 9.28303 15.5766 9.29199 15.5018 9.31628C15.4271 9.34058 15.3579 9.37973 15.2986 9.43138C15.2393 9.48303 15.1909 9.54612 15.1564 9.6169C15.122 9.68769 15.1021 9.7647 15.098 9.84334C15.0939 9.92198 15.1057 10.0006 15.1326 10.0746C15.1596 10.1486 15.2011 10.2164 15.2548 10.2739C15.3084 10.3315 15.3731 10.3776 15.445 10.4096C15.5168 10.4415 15.5944 10.4586 15.673 10.4599C16.1622 10.4857 16.4746 10.6334 16.6713 10.8315C16.869 11.0308 17.0165 11.3509 17.0434 11.8514C17.0449 11.9301 17.0621 12.0077 17.0942 12.0795C17.1262 12.1513 17.1723 12.216 17.2298 12.2696C17.2873 12.3232 17.355 12.3647 17.4288 12.3915C17.5026 12.4184 17.5811 12.43 17.6595 12.4259C17.738 12.4217 17.8147 12.4018 17.8853 12.3672C17.9559 12.3327 18.0188 12.2843 18.0703 12.2249C18.1218 12.1655 18.1608 12.0963 18.1851 12.0215C18.2093 11.9466 18.2183 11.8677 18.2114 11.7893C18.174 11.0859 17.9539 10.4646 17.5034 10.0074C17.0504 9.5502 16.4337 9.32747 15.7338 9.28995Z" fill="#121212"/>
</svg>
