<svg width="18" height="18" viewBox="0 0 18 18" fill="none" xmlns="http://www.w3.org/2000/svg">
<path d="M6.10152 18C5.63388 18 5.23341 17.8236 4.90011 17.4708C4.56681 17.118 4.40045 16.6944 4.40101 16.2C4.40101 15.705 4.56766 15.2811 4.90096 14.9283C5.23426 14.5755 5.63445 14.3994 6.10152 14.4C6.56916 14.4 6.96963 14.5764 7.30293 14.9292C7.63623 15.282 7.80259 15.7056 7.80202 16.2C7.80202 16.695 7.63537 17.1189 7.30208 17.4717C6.96878 17.8245 6.56859 18.0006 6.10152 18ZM14.604 18C14.1364 18 13.7359 17.8236 13.4026 17.4708C13.0693 17.118 12.903 16.6944 12.9035 16.2C12.9035 15.705 13.0702 15.2811 13.4035 14.9283C13.7368 14.5755 14.137 14.3994 14.604 14.4C15.0717 14.4 15.4722 14.5764 15.8055 14.9292C16.1388 15.282 16.3051 15.7056 16.3046 16.2C16.3046 16.695 16.1379 17.1189 15.8046 17.4717C15.4713 17.8245 15.0711 18.0006 14.604 18ZM6.10152 13.5C5.46383 13.5 4.98202 13.2036 4.65609 12.6108C4.33016 12.018 4.31599 11.4294 4.61358 10.845L5.76142 8.64L2.70051 1.8H1.829C1.58809 1.8 1.3897 1.7136 1.23382 1.5408C1.07794 1.368 1 1.1544 1 0.900003C1 0.645003 1.08162 0.431103 1.24487 0.258303C1.40812 0.085503 1.60991 -0.000596886 1.85025 3.11419e-06H3.23191C3.38779 3.11419e-06 3.53659 0.0450032 3.6783 0.135003C3.82001 0.225003 3.92629 0.352503 3.99714 0.517503L4.57106 1.8H17.1123C17.4949 1.8 17.7571 1.95 17.8988 2.25C18.0405 2.55 18.0334 2.865 17.8775 3.195L14.8591 8.955C14.7032 9.255 14.4978 9.4875 14.2427 9.6525C13.9876 9.8175 13.6971 9.9 13.3712 9.9H7.0368L6.10152 11.7H15.4756C15.7165 11.7 15.9149 11.7864 16.0707 11.9592C16.2266 12.132 16.3046 12.3456 16.3046 12.6C16.3046 12.855 16.2229 13.0689 16.0597 13.2417C15.8964 13.4145 15.6946 13.5006 15.4543 13.5H6.10152Z" fill="#121212"/>
</svg>
