<svg width="28" height="24" viewBox="0 0 28 24" fill="none" xmlns="http://www.w3.org/2000/svg">
<g opacity="0.3" clip-path="url(#clip0_24_19217)">
<path d="M7.96552 0C10.3902 0 12.5421 0.951577 14 2.58713C15.4579 0.951577 17.6099 0 20.0345 0C22.1463 0.00254045 24.1708 0.837763 25.6641 2.32247C27.1575 3.80717 27.9975 5.82012 28 7.91981C28 16.6004 15.2299 23.5363 14.6867 23.8279C14.4757 23.9408 14.2397 24 14 24C13.7603 24 13.5243 23.9408 13.3133 23.8279C12.7702 23.5363 0 16.6004 0 7.91981C0.00255585 5.82012 0.842597 3.80717 2.33587 2.32247C3.82913 0.837763 5.85372 0.00254045 7.96552 0ZM8.62811 17.0828C10.309 18.5009 12.1058 19.7773 14 20.8987C15.8941 19.7773 17.6911 18.5009 19.3719 17.0828C21.9872 14.852 25.1035 11.4501 25.1035 7.91981C25.1035 6.58315 24.5693 5.30124 23.6188 4.35608C22.6681 3.41092 21.3788 2.87993 20.0345 2.87993C17.8863 2.87993 16.0879 4.00791 15.3408 5.82467C15.2321 6.08951 15.0465 6.31615 14.8077 6.47568C14.5689 6.63521 14.2877 6.72041 14 6.72041C13.7123 6.72041 13.4311 6.63521 13.1923 6.47568C12.9535 6.31615 12.7679 6.08951 12.6591 5.82467C11.9121 4.00791 10.1138 2.87993 7.96552 2.87993C6.62115 2.87993 5.33183 3.41092 4.38121 4.35608C3.4306 5.30124 2.89655 6.58315 2.89655 7.91981C2.89655 11.4501 6.01276 14.852 8.62811 17.0828Z" fill="#121212"/>
</g>
<defs>
<clipPath id="clip0_24_19217">
<rect width="28" height="24" fill="white"/>
</clipPath>
</defs>
</svg>
