<svg width="28" height="28" viewBox="0 0 28 28" fill="none" xmlns="http://www.w3.org/2000/svg">
<path d="M22.0999 0.0720215L27.6639 5.87202V27.928H6.87891V28H27.7349V5.94502L22.0999 0.0720215Z" fill="#909090"/>
<path d="M22.0316 0H6.80859V27.928H27.6646V5.873L22.0316 0Z" fill="#F4F4F4"/>
<path d="M6.65562 1.5H0.265625V8.327H20.3656V1.5H6.65562Z" fill="#7A7B7C"/>
<path d="M20.4715 8.21091H0.394531V1.37891H20.4715V8.21091Z" fill="#DD2025"/>
<path d="M7.05114 2.53394H5.74414V7.33394H6.77214V5.71494L6.99914 5.72794C7.21971 5.72415 7.43821 5.68463 7.64614 5.61094C7.82844 5.54824 7.99615 5.44925 8.13914 5.31994C8.28464 5.19676 8.39935 5.0413 8.47414 4.86594C8.57444 4.57444 8.61026 4.26464 8.57914 3.95794C8.5729 3.73885 8.53448 3.52186 8.46514 3.31394C8.40201 3.16385 8.30833 3.02854 8.19005 2.91663C8.07178 2.80473 7.9315 2.71867 7.77814 2.66394C7.64555 2.61594 7.50856 2.5811 7.36914 2.55994C7.26357 2.54365 7.15696 2.53496 7.05014 2.53394M6.86114 4.82794H6.77214V3.34794H6.96514C7.05032 3.3418 7.13579 3.35487 7.21524 3.3862C7.29469 3.41753 7.36608 3.46631 7.42414 3.52894C7.54446 3.68995 7.60873 3.88594 7.60714 4.08694C7.60714 4.33294 7.60714 4.55594 7.38514 4.71294C7.22521 4.8009 7.04316 4.84151 6.86114 4.82794ZM10.5321 2.52094C10.4211 2.52094 10.3131 2.52894 10.2371 2.53194L9.99914 2.53794H9.21914V7.33794H10.1371C10.488 7.34756 10.8373 7.2881 11.1651 7.16294C11.4291 7.05826 11.6627 6.88952 11.8451 6.67194C12.0225 6.4524 12.1498 6.19678 12.2181 5.92294C12.2967 5.61281 12.335 5.29385 12.3321 4.97394C12.3515 4.5961 12.3223 4.21733 12.2451 3.84694C12.1719 3.5743 12.0348 3.32303 11.8451 3.11394C11.6963 2.9451 11.5142 2.80891 11.3101 2.71394C11.1349 2.63286 10.9506 2.5731 10.7611 2.53594C10.6858 2.52349 10.6095 2.51781 10.5331 2.51894M10.3511 6.45594H10.2511V3.39194H10.2641C10.4703 3.36822 10.6789 3.40542 10.8641 3.49894C10.9998 3.60727 11.1103 3.74374 11.1881 3.89894C11.2721 4.06228 11.3205 4.24155 11.3301 4.42494C11.3391 4.64494 11.3301 4.82494 11.3301 4.97394C11.3342 5.14558 11.3232 5.31724 11.2971 5.48694C11.2663 5.66117 11.2093 5.82974 11.1281 5.98694C11.0362 6.1331 10.9121 6.25625 10.7651 6.34694C10.6418 6.42674 10.4957 6.46397 10.3491 6.45294M15.4291 2.53794H12.9991V7.33794H14.0271V5.43394H15.3271V4.54194H14.0271V3.42994H15.4271V2.53794" fill="#464648"/>
<path d="M19.7807 18.255C19.7807 18.255 22.9687 17.677 22.9687 18.766C22.9687 19.855 20.9937 19.412 19.7807 18.255ZM17.4237 18.338C16.9172 18.4499 16.4236 18.6138 15.9507 18.827L16.3507 17.927C16.7507 17.027 17.1657 15.8 17.1657 15.8C17.643 16.6033 18.1984 17.3577 18.8237 18.052C18.3521 18.1223 17.8847 18.2185 17.4237 18.34V18.338ZM16.1617 11.838C16.1617 10.889 16.4687 10.63 16.7077 10.63C16.9467 10.63 17.2157 10.745 17.2247 11.569C17.1468 12.3976 16.9733 13.2143 16.7077 14.003C16.3438 13.3408 16.1555 12.5966 16.1607 11.841L16.1617 11.838ZM11.5127 22.354C10.5347 21.769 13.5637 19.968 14.1127 19.91C14.1097 19.911 12.5367 22.966 11.5127 22.354ZM23.8997 18.895C23.8897 18.795 23.7997 17.688 21.8297 17.735C21.0086 17.7218 20.1878 17.7797 19.3767 17.908C18.591 17.1164 17.9143 16.2235 17.3647 15.253C17.711 14.2524 17.9205 13.2097 17.9877 12.153C17.9587 10.953 17.6717 10.265 16.7517 10.275C15.8317 10.285 15.6977 11.09 15.8187 12.288C15.9372 13.0931 16.1608 13.8791 16.4837 14.626C16.4837 14.626 16.0587 15.949 15.4967 17.265C14.9347 18.581 14.5507 19.271 14.5507 19.271C13.5734 19.5891 12.6534 20.0618 11.8257 20.671C11.0017 21.438 10.6667 22.027 11.1007 22.616C11.4747 23.124 12.7837 23.239 13.9537 21.706C14.5753 20.9142 15.1433 20.0817 15.6537 19.214C15.6537 19.214 17.4377 18.725 17.9927 18.591C18.5477 18.457 19.2187 18.351 19.2187 18.351C19.2187 18.351 20.8477 19.99 22.4187 19.932C23.9897 19.874 23.9137 18.993 23.9037 18.897" fill="#DD2025"/>
<path d="M21.9531 0.0769043V5.9499H27.5861L21.9531 0.0769043Z" fill="#909090"/>
<path d="M22.0312 0V5.873H27.6642L22.0312 0Z" fill="#F4F4F4"/>
<path d="M6.97497 2.45704H5.66797V7.25704H6.69997V5.63904L6.92797 5.65204C7.14854 5.64824 7.36704 5.60873 7.57497 5.53504C7.75726 5.47231 7.92496 5.37332 8.06797 5.24404C8.21238 5.12053 8.32604 4.96509 8.39997 4.79004C8.50026 4.49853 8.53609 4.18874 8.50497 3.88204C8.49872 3.66294 8.46031 3.44596 8.39097 3.23804C8.32784 3.08794 8.23416 2.95264 8.11588 2.84073C7.9976 2.72882 7.85732 2.64276 7.70397 2.58804C7.57077 2.53957 7.4331 2.5044 7.29297 2.48304C7.18739 2.46675 7.08079 2.45806 6.97397 2.45704M6.78497 4.75104H6.69597V3.27104H6.88997C6.97515 3.26489 7.06062 3.27797 7.14007 3.3093C7.21952 3.34063 7.29091 3.38941 7.34897 3.45204C7.46929 3.61305 7.53356 3.80904 7.53197 4.01004C7.53197 4.25604 7.53197 4.47904 7.30997 4.63604C7.15004 4.724 6.96799 4.76361 6.78597 4.75004M10.456 2.44404C10.345 2.44404 10.237 2.45204 10.161 2.45504L9.92597 2.46104H9.14597V7.26104H10.064C10.4148 7.27065 10.7641 7.21119 11.092 7.08604C11.3559 6.98136 11.5896 6.81262 11.772 6.59504C11.9493 6.37549 12.0766 6.11987 12.145 5.84604C12.2235 5.53591 12.2618 5.21695 12.259 4.89704C12.2784 4.51919 12.2491 4.14042 12.172 3.77004C12.0988 3.4974 11.9616 3.24613 11.772 3.03704C11.6232 2.8682 11.441 2.73201 11.237 2.63704C11.0617 2.55595 10.8774 2.49619 10.688 2.45904C10.6126 2.44659 10.5363 2.4409 10.46 2.44204M10.278 6.37904H10.178V3.31504H10.191C10.3971 3.29132 10.6057 3.32851 10.791 3.42204C10.9266 3.53036 11.0372 3.66684 11.115 3.82204C11.1989 3.98537 11.2473 4.16464 11.257 4.34804C11.266 4.56804 11.257 4.74804 11.257 4.89704C11.261 5.06867 11.25 5.24034 11.224 5.41004C11.1931 5.58427 11.1362 5.75284 11.055 5.91004C10.9631 6.05619 10.8389 6.17934 10.692 6.27004C10.5686 6.34983 10.4225 6.38706 10.276 6.37604M15.353 2.46104H12.923V7.26104H13.951V5.35704H15.251V4.46504H13.951V3.35304H15.351V2.46104" fill="white"/>
</svg>
