<svg width="45" height="45" viewBox="0 0 45 45" fill="none" xmlns="http://www.w3.org/2000/svg">
<path d="M20.291 33.5418H24.7077V20.2917H20.291V33.5418ZM22.4994 15.8751C23.125 15.8751 23.6499 15.6631 24.0739 15.2391C24.4979 14.8151 24.7092 14.291 24.7077 13.6667C24.7077 13.0411 24.4957 12.5162 24.0717 12.0922C23.6477 11.6682 23.1236 11.4569 22.4994 11.4584C21.8737 11.4584 21.3488 11.6704 20.9248 12.0944C20.5008 12.5184 20.2895 13.0425 20.291 13.6667C20.291 14.2924 20.503 14.8173 20.927 15.2413C21.351 15.6653 21.8751 15.8766 22.4994 15.8751ZM22.4994 44.5834C19.4445 44.5834 16.5737 44.0034 13.8869 42.8433C11.2 41.6831 8.86289 40.1101 6.87539 38.124C4.88789 36.1365 3.31482 33.7994 2.15618 31.1126C0.997544 28.4258 0.417488 25.5549 0.416016 22.5001C0.416016 19.4452 0.996071 16.5744 2.15618 13.8876C3.31629 11.2008 4.88936 8.86362 6.87539 6.87612C8.86289 4.88862 11.2 3.31555 13.8869 2.15692C16.5737 0.998276 19.4445 0.41822 22.4994 0.416748C25.5542 0.416748 28.425 0.996804 31.1119 2.15692C33.7987 3.31703 36.1358 4.8901 38.1233 6.87612C40.1108 8.86362 41.6846 11.2008 42.8447 13.8876C44.0048 16.5744 44.5842 19.4452 44.5827 22.5001C44.5827 25.5549 44.0026 28.4258 42.8425 31.1126C41.6824 33.7994 40.1093 36.1365 38.1233 38.124C36.1358 40.1115 33.7987 41.6853 31.1119 42.8455C28.425 44.0056 25.5542 44.5849 22.4994 44.5834ZM22.4994 40.1668C27.4313 40.1668 31.6087 38.4553 35.0316 35.0324C38.4546 31.6095 40.166 27.432 40.166 22.5001C40.166 17.5681 38.4546 13.3907 35.0316 9.96779C31.6087 6.54487 27.4313 4.83342 22.4994 4.83342C17.5674 4.83342 13.39 6.54487 9.96706 9.96779C6.54414 13.3907 4.83268 17.5681 4.83268 22.5001C4.83268 27.432 6.54414 31.6095 9.96706 35.0324C13.39 38.4553 17.5674 40.1668 22.4994 40.1668Z" fill="#D6B16A"/>
</svg>
