<svg width="37" height="37" viewBox="0 0 37 37" fill="none" xmlns="http://www.w3.org/2000/svg">
<g opacity="0.2">
<path d="M13.8748 30.8333C13.8748 32.5291 12.4873 33.9166 10.7915 33.9166C9.09567 33.9166 7.70817 32.5291 7.70817 30.8333C7.70817 29.1374 9.09567 27.7499 10.7915 27.7499C12.4873 27.7499 13.8748 29.1374 13.8748 30.8333ZM26.2082 27.7499C24.5123 27.7499 23.1248 29.1374 23.1248 30.8333C23.1248 32.5291 24.5123 33.9166 26.2082 33.9166C27.904 33.9166 29.2915 32.5291 29.2915 30.8333C29.2915 29.1374 27.904 27.7499 26.2082 27.7499ZM11.0998 22.8166V22.6624L12.4873 20.0416H23.8957C24.9748 20.0416 26.054 19.4249 26.5165 18.4999L32.529 7.70825L29.9082 6.16659L23.8957 16.9583H13.104L6.629 3.08325H1.5415V6.16659H4.62484L10.1748 17.8833L8.0165 21.5833C7.86234 22.0458 7.70817 22.5083 7.70817 23.1249C7.70817 24.8208 9.09567 26.2083 10.7915 26.2083H29.2915V23.1249H11.4082C11.254 23.1249 11.0998 22.9708 11.0998 22.8166Z" fill="black"/>
</g>
</svg>
