<svg width="21" height="18" viewBox="0 0 21 18" fill="none" xmlns="http://www.w3.org/2000/svg">
<path d="M5.97414 0C7.79263 0 9.40655 0.713683 10.5 1.94035C11.5934 0.713683 13.2074 0 15.0259 0C16.6097 0.00190534 18.1281 0.628322 19.2481 1.74185C20.3681 2.85538 20.9981 4.36509 21 5.93986C21 12.4503 11.4224 17.6522 11.015 17.8709C10.8568 17.9556 10.6798 18 10.5 18C10.3202 18 10.1432 17.9556 9.98496 17.8709C9.57763 17.6522 0 12.4503 0 5.93986C0.00191689 4.36509 0.631948 2.85538 1.7519 1.74185C2.87185 0.628322 4.39029 0.00190534 5.97414 0ZM6.47108 12.8121C7.73174 13.8757 9.07938 14.833 10.5 15.674C11.9206 14.833 13.2683 13.8757 14.5289 12.8121C16.4904 11.139 18.8276 8.58759 18.8276 5.93986C18.8276 4.93736 18.427 3.97593 17.7141 3.26706C17.0011 2.55819 16.0341 2.15995 15.0259 2.15995C13.4147 2.15995 12.0659 3.00593 11.5056 4.3685C11.4241 4.56713 11.2849 4.73711 11.1058 4.85676C10.9267 4.97641 10.7158 5.04031 10.5 5.04031C10.2842 5.04031 10.0733 4.97641 9.89422 4.85676C9.71511 4.73711 9.5759 4.56713 9.49435 4.3685C8.93405 3.00593 7.58535 2.15995 5.97414 2.15995C4.96586 2.15995 3.99887 2.55819 3.28591 3.26706C2.57295 3.97593 2.17241 4.93736 2.17241 5.93986C2.17241 8.58759 4.50957 11.139 6.47108 12.8121Z" fill="#121212"/>
<path d="M6.47108 12.8121C7.73174 13.8757 9.07938 14.833 10.5 15.674C11.9206 14.833 13.2683 13.8757 14.5289 12.8121C16.4904 11.139 18.8276 8.58759 18.8276 5.93986C18.8276 4.93736 18.427 3.97593 17.7141 3.26706C17.0011 2.55819 16.0341 2.15995 15.0259 2.15995C13.4147 2.15995 12.0659 3.00593 11.5056 4.3685C11.4241 4.56713 11.2849 4.73711 11.1058 4.85676C10.9267 4.97641 10.7158 5.04031 10.5 5.04031C10.2842 5.04031 10.0733 4.97641 9.89422 4.85676C9.71511 4.73711 9.5759 4.56713 9.49435 4.3685C8.93405 3.00593 7.58535 2.15995 5.97414 2.15995C4.96586 2.15995 3.99887 2.55819 3.28591 3.26706C2.57295 3.97593 2.17241 4.93736 2.17241 5.93986C2.17241 8.58759 4.50957 11.139 6.47108 12.8121Z" fill="#121212"/>
</svg>
