<svg width="24" height="24" viewBox="0 0 24 24" fill="none" xmlns="http://www.w3.org/2000/svg">
<g clip-path="url(#clip0_131_8990)">
<path d="M23.0229 6.15428C22.9898 5.97464 22.9193 5.80396 22.8159 5.65334C22.7125 5.50272 22.5786 5.37552 22.4229 5.28L18.9944 8.70857C18.8344 8.87448 18.6427 9.00645 18.4306 9.09659C18.2186 9.18673 17.9905 9.23319 17.7601 9.23319C17.5296 9.23319 17.3016 9.18673 17.0895 9.09659C16.8774 9.00645 16.6857 8.87448 16.5258 8.70857L15.2229 7.54286C14.9088 7.22241 14.7329 6.79158 14.7329 6.34286C14.7329 5.89414 14.9088 5.46331 15.2229 5.14286L18.6515 1.71429C18.5767 1.53863 18.4643 1.38156 18.3221 1.25418C18.1799 1.1268 18.0114 1.03222 17.8286 0.977142C16.6324 0.738581 15.3931 0.840698 14.2521 1.27187C13.111 1.70304 12.1139 2.44593 11.3743 3.41597C10.6347 4.38602 10.1823 5.54423 10.0687 6.75875C9.95505 7.97327 10.1847 9.1953 10.7315 10.2857L1.3715 19.56C1.20822 19.7197 1.07849 19.9103 0.989912 20.1208C0.901339 20.3313 0.855713 20.5574 0.855713 20.7857C0.855713 21.0141 0.901339 21.2401 0.989912 21.4506C1.07849 21.6611 1.20822 21.8518 1.3715 22.0114L1.98864 22.6286C2.1483 22.7919 2.33896 22.9216 2.54945 23.0102C2.75993 23.0987 2.98599 23.1444 3.21436 23.1444C3.44272 23.1444 3.66878 23.0987 3.87927 23.0102C4.08975 22.9216 4.28042 22.7919 4.44007 22.6286L13.8001 13.2857C14.8908 13.8054 16.1042 14.0123 17.3055 13.8835C18.5068 13.7547 19.6488 13.2953 20.6046 12.5563C21.5604 11.8172 22.2924 10.8276 22.7194 9.69736C23.1463 8.56714 23.2514 7.34066 23.0229 6.15428Z" stroke="white" stroke-width="2" stroke-linecap="round" stroke-linejoin="round"/>
</g>
<defs>
<clipPath id="clip0_131_8990">
<rect width="24" height="24" fill="white"/>
</clipPath>
</defs>
</svg>
