<svg width="24" height="24" viewBox="0 0 24 24" fill="none" xmlns="http://www.w3.org/2000/svg">
<path d="M18.008 6.84924C17.8834 6.7864 17.7621 6.71752 17.6445 6.64286C17.3029 6.42266 16.9897 6.16322 16.7117 5.87013C16.0151 5.0934 15.755 4.30548 15.6599 3.75433H15.6632C15.5836 3.29597 15.6164 3 15.6221 3H12.4511V14.9533C12.4511 15.1133 12.4511 15.2724 12.4446 15.4292C12.4446 15.4484 12.4421 15.466 12.4413 15.4876C12.4413 15.4956 12.4413 15.5052 12.4388 15.514V15.5212C12.4055 15.95 12.2647 16.3642 12.0286 16.7275C11.7925 17.0907 11.4685 17.3918 11.0851 17.6042C10.6851 17.8261 10.2326 17.9425 9.77241 17.9418C8.29562 17.9418 7.09778 16.7675 7.09778 15.3172C7.09778 13.8662 8.29562 12.6919 9.77241 12.6919C10.0522 12.6919 10.3303 12.7351 10.5961 12.8199L10.6002 9.67137C9.79293 9.56982 8.9728 9.63255 8.19162 9.85559C7.41043 10.0786 6.68516 10.4572 6.06157 10.9673C5.51503 11.43 5.05553 11.9823 4.70374 12.5991C4.57001 12.8239 4.06462 13.7286 4.0039 15.1957C3.96534 16.0276 4.22214 16.8915 4.34439 17.2475V17.2555C4.42069 17.465 4.71933 18.1818 5.20503 18.7857C5.5967 19.2705 6.05947 19.6963 6.57844 20.0496V20.0416L6.58583 20.0496C8.12005 21.0655 9.82246 20.9991 9.82246 20.9991C10.117 20.9871 11.104 20.9991 12.2247 20.4816C13.4677 19.9072 14.1749 19.0521 14.1749 19.0521C14.627 18.541 14.9866 17.9586 15.2382 17.3299C15.5253 16.5939 15.6205 15.7124 15.6205 15.3604V9.01784C15.6591 9.04023 16.1718 9.3706 16.1718 9.3706C16.1718 9.3706 16.9102 9.83216 18.0613 10.1321C18.8867 10.3457 20 10.3913 20 10.3913V7.32199C19.6103 7.36359 18.8186 7.2436 18.0072 6.85004L18.008 6.84924Z" fill="white"/>
<path d="M18.008 6.84924C17.8834 6.7864 17.7621 6.71752 17.6445 6.64286C17.3029 6.42266 16.9897 6.16322 16.7117 5.87013C16.0151 5.0934 15.755 4.30548 15.6599 3.75433H15.6632C15.5836 3.29597 15.6164 3 15.6221 3H12.4511V14.9533C12.4511 15.1133 12.4511 15.2724 12.4446 15.4292C12.4446 15.4484 12.4421 15.466 12.4413 15.4876C12.4413 15.4956 12.4413 15.5052 12.4388 15.514V15.5212C12.4055 15.95 12.2647 16.3642 12.0286 16.7275C11.7925 17.0907 11.4685 17.3918 11.0851 17.6042C10.6851 17.8261 10.2326 17.9425 9.77241 17.9418C8.29562 17.9418 7.09778 16.7675 7.09778 15.3172C7.09778 13.8662 8.29562 12.6919 9.77241 12.6919C10.0522 12.6919 10.3303 12.7351 10.5961 12.8199L10.6002 9.67137C9.79293 9.56982 8.9728 9.63255 8.19162 9.85559C7.41043 10.0786 6.68516 10.4572 6.06157 10.9673C5.51503 11.43 5.05553 11.9823 4.70374 12.5991C4.57001 12.8239 4.06462 13.7286 4.0039 15.1957C3.96534 16.0276 4.22214 16.8915 4.34439 17.2475V17.2555C4.42069 17.465 4.71933 18.1818 5.20503 18.7857C5.5967 19.2705 6.05947 19.6963 6.57844 20.0496V20.0416L6.58583 20.0496C8.12005 21.0655 9.82246 20.9991 9.82246 20.9991C10.117 20.9871 11.104 20.9991 12.2247 20.4816C13.4677 19.9072 14.1749 19.0521 14.1749 19.0521C14.627 18.541 14.9866 17.9586 15.2382 17.3299C15.5253 16.5939 15.6205 15.7124 15.6205 15.3604V9.01784C15.6591 9.04023 16.1718 9.3706 16.1718 9.3706C16.1718 9.3706 16.9102 9.83216 18.0613 10.1321C18.8867 10.3457 20 10.3913 20 10.3913V7.32199C19.6103 7.36359 18.8186 7.2436 18.0072 6.85004L18.008 6.84924Z" fill="#98989E"/>
</svg>
