<svg width="24" height="24" viewBox="0 0 24 24" fill="none" xmlns="http://www.w3.org/2000/svg">
<path d="M13.5609 5.715L14.4167 5.35183C15.1117 5.06699 16.01 4.77621 17.0703 4.96017C19.2425 5.33759 20.7404 6.54935 21.633 8.15633C21.9776 8.77586 21.6996 9.5924 21.0563 9.85232C20.5052 10.0751 20.0342 10.4682 19.7075 10.978C19.3808 11.4878 19.2144 12.0893 19.2312 12.7005C19.2479 13.3116 19.4468 13.9025 19.8009 14.3924C20.1549 14.8824 20.6467 15.2474 21.2091 15.4376C21.8041 15.6393 22.1396 16.3218 21.9443 16.9366C21.4366 18.5293 20.706 19.9998 19.841 21.1866C18.9863 22.3592 17.9433 23.3324 16.7819 23.8084C16.01 24.1241 15.1852 23.9983 14.3949 23.7929L13.9262 23.6624L13.2542 23.4689L12.8878 23.3752C12.708 23.3284 12.524 23.3018 12.3387 23.2956C12.1894 23.2956 12.0113 23.3241 11.7896 23.3752L11.422 23.4701L10.518 23.7288C9.65874 23.9698 8.74436 24.1561 7.89546 23.8084C6.43314 23.2102 5.14313 21.8145 4.16787 20.1683C3.11204 18.3556 2.41544 16.3441 2.11855 14.2507C1.85779 12.4064 1.99909 10.3354 2.82502 8.58359C3.67507 6.77841 5.23273 5.37319 7.60713 4.96017C8.57205 4.79283 9.40143 5.01714 10.0654 5.27469L10.4456 5.42897L11.1165 5.715C11.576 5.90134 11.9378 6.01053 12.3387 6.01053C12.7385 6.01053 13.1015 5.90134 13.5609 5.715ZM10.2595 7.91896L9.85977 7.74924C9.02005 7.38607 8.55253 7.2033 7.98736 7.30062C6.38834 7.57953 5.43605 8.46609 4.89041 9.62326C4.32065 10.8315 4.17821 12.391 4.39187 13.9078C4.65377 15.7568 5.29821 17.5276 6.12758 18.9305C6.97534 20.3606 7.93222 21.2709 8.74092 21.6008C9.01661 21.7136 9.41292 21.6246 9.78051 21.5083L10.2894 21.335L10.4295 21.2899L10.9269 21.1475C11.3703 21.0288 11.87 20.922 12.3387 20.922C12.8062 20.922 13.3071 21.0288 13.7505 21.1475L14.2479 21.2899L14.388 21.335L14.8969 21.5083C15.2645 21.6246 15.6608 21.7136 15.9365 21.6008C16.5637 21.3445 17.2954 20.7321 18.0042 19.7589C18.5326 19.0349 19.0151 18.1543 19.4091 17.1751C18.6526 16.6985 18.0276 16.0288 17.5941 15.2304C17.1605 14.4321 16.9331 13.5319 16.9336 12.6165C16.9336 10.8991 17.717 9.37403 18.9323 8.39726C18.389 7.86318 17.6607 7.47034 16.69 7.30062C16.1812 7.21279 15.7515 7.35165 15.0589 7.64599L14.8176 7.74924C14.1962 8.01866 13.3519 8.3842 12.3387 8.3842C11.5289 8.3842 10.8258 8.1504 10.2595 7.91896ZM12.0722 1.06615C13.1933 -0.0933874 14.9153 -0.193082 15.3208 0.227059C15.7274 0.646013 15.6309 2.42508 14.5086 3.58344C13.3875 4.74179 11.6656 4.84149 11.2601 4.42253C10.8534 4.00358 10.9499 2.22451 12.0722 1.06615Z" fill="white"/>
</svg>
