<svg width="28" height="24" viewBox="0 0 28 24" fill="none" xmlns="http://www.w3.org/2000/svg">
<g opacity="0.3" clip-path="url(#clip0_24_19217)">
<path d="M7.96552 0C10.3902 0 12.5421 0.951577 14 2.58713C15.4579 0.951577 17.6099 0 20.0345 0C22.1463 0.00254045 24.1708 0.837763 25.6641 2.32247C27.1575 3.80717 27.9975 5.82012 28 7.91981C28 16.6004 15.2299 23.5363 14.6867 23.8279C14.4757 23.9408 14.2397 24 14 24C13.7603 24 13.5243 23.9408 13.3133 23.8279C12.7702 23.5363 0 16.6004 0 7.91981C0.00255585 5.82012 0.842597 3.80717 2.33587 2.32247C3.82913 0.837763 5.85372 0.00254045 7.96552 0ZM8.62811 17.0828C10.309 18.5009 12.1058 19.7773 14 20.8987C15.8941 19.7773 17.6911 18.5009 19.3719 17.0828C21.9872 14.852 25.1035 11.4501 25.1035 7.91981C25.1035 6.58315 24.5693 5.30124 23.6188 4.35608C22.6681 3.41092 21.3788 2.87993 20.0345 2.87993C17.8863 2.87993 16.0879 4.00791 15.3408 5.82467C15.2321 6.08951 15.0465 6.31615 14.8077 6.47568C14.5689 6.63521 14.2877 6.72041 14 6.72041C13.7123 6.72041 13.4311 6.63521 13.1923 6.47568C12.9535 6.31615 12.7679 6.08951 12.6591 5.82467C11.9121 4.00791 10.1138 2.87993 7.96552 2.87993C6.62115 2.87993 5.33183 3.41092 4.38121 4.35608C3.4306 5.30124 2.89655 6.58315 2.89655 7.91981C2.89655 11.4501 6.01276 14.852 8.62811 17.0828Z" fill="#121212"/>
<path d="M8.62804 17.0827C10.3089 18.5009 12.1058 19.7773 13.9999 20.8986C15.8941 19.7773 17.691 18.5009 19.3718 17.0827C21.9871 14.8519 25.1034 11.4501 25.1034 7.91976C25.1034 6.5831 24.5693 5.30119 23.6187 4.35603C22.6681 3.41087 21.3787 2.87988 20.0345 2.87988C17.8862 2.87988 16.0878 4.00786 15.3407 5.82462C15.2321 6.08946 15.0465 6.3161 14.8077 6.47563C14.5689 6.63516 14.2877 6.72036 13.9999 6.72036C13.7122 6.72036 13.431 6.63516 13.1922 6.47563C12.9534 6.3161 12.7678 6.08946 12.6591 5.82462C11.912 4.00786 10.1137 2.87988 7.96546 2.87988C6.62108 2.87988 5.33176 3.41087 4.38115 4.35603C3.43054 5.30119 2.89648 6.5831 2.89648 7.91976C2.89648 11.4501 6.0127 14.8519 8.62804 17.0827Z" fill="#121212"/>
</g>
<defs>
<clipPath id="clip0_24_19217">
<rect width="28" height="24" fill="white"/>
</clipPath>
</defs>
</svg>
