<svg width="42" height="42" viewBox="0 0 42 42" fill="none" xmlns="http://www.w3.org/2000/svg">
<path d="M8.75 29.75C8.75 30.6783 9.11875 31.5685 9.77513 32.2249C10.4315 32.8813 11.3217 33.25 12.25 33.25C13.1783 33.25 14.0685 32.8813 14.7249 32.2249C15.3813 31.5685 15.75 30.6783 15.75 29.75C15.75 28.8217 15.3813 27.9315 14.7249 27.2751C14.0685 26.6187 13.1783 26.25 12.25 26.25C11.3217 26.25 10.4315 26.6187 9.77513 27.2751C9.11875 27.9315 8.75 28.8217 8.75 29.75ZM26.25 29.75C26.25 30.6783 26.6187 31.5685 27.2751 32.2249C27.9315 32.8813 28.8217 33.25 29.75 33.25C30.6783 33.25 31.5685 32.8813 32.2249 32.2249C32.8813 31.5685 33.25 30.6783 33.25 29.75C33.25 28.8217 32.8813 27.9315 32.2249 27.2751C31.5685 26.6187 30.6783 26.25 29.75 26.25C28.8217 26.25 27.9315 26.6187 27.2751 27.2751C26.6187 27.9315 26.25 28.8217 26.25 29.75Z" stroke="#D6B16A" stroke-width="3.5" stroke-linecap="round" stroke-linejoin="round"/>
<path d="M8.75 29.75H5.25V22.75M3.5 8.75H22.75V29.75M15.75 29.75H26.25M33.25 29.75H36.75V19.25M36.75 19.25H22.75M36.75 19.25L31.5 10.5H22.75M5.25 15.75H12.25" stroke="#D6B16A" stroke-width="3.5" stroke-linecap="round" stroke-linejoin="round"/>
</svg>
