<svg width="33" height="29" viewBox="0 0 33 29" fill="none" xmlns="http://www.w3.org/2000/svg">
<g opacity="0.3">
<path d="M32.6558 12.5307L20.8699 0.357037C20.7051 0.186684 20.4952 0.0706186 20.2666 0.0235186C20.0379 -0.0235814 19.801 0.000399953 19.5855 0.0924296C19.3701 0.184459 19.186 0.340403 19.0564 0.54054C18.9268 0.740678 18.8575 0.976018 18.8574 1.2168V7.35687C15.0358 7.69469 10.815 9.62726 7.34255 12.6691C3.16149 16.3334 0.558269 21.0553 0.0116964 25.9643C-0.0310162 26.3459 0.0439037 26.7318 0.225794 27.0669C0.407684 27.402 0.687276 27.6694 1.02478 27.8308C1.36229 27.9923 1.74051 28.0398 2.10562 27.9664C2.47073 27.893 2.80413 27.7025 3.05836 27.4221C4.67893 25.6401 10.4452 20.0053 18.8574 19.5092V25.5641C18.8575 25.8048 18.9268 26.0402 19.0564 26.2403C19.186 26.4405 19.3701 26.5964 19.5855 26.6884C19.801 26.7805 20.0379 26.8044 20.2666 26.7573C20.4952 26.7102 20.7051 26.5942 20.8699 26.4238L32.6558 14.2502C32.8762 14.022 33 13.7128 33 13.3904C33 13.0681 32.8762 12.7589 32.6558 12.5307ZM21.2146 22.6256V18.2599C21.2146 17.937 21.0904 17.6274 20.8694 17.3991C20.6484 17.1708 20.3486 17.0425 20.036 17.0425C15.8991 17.0425 11.8698 18.1579 8.06002 20.3598C6.11968 21.4862 4.31181 22.8404 2.67237 24.3954C3.52685 20.7676 5.68073 17.3179 8.86736 14.5256C12.2882 11.5294 16.4634 9.73834 20.036 9.73834C20.3486 9.73834 20.6484 9.61008 20.8694 9.38178C21.0904 9.15348 21.2146 8.84384 21.2146 8.52098V4.15673L30.1557 13.3904L21.2146 22.6256Z" fill="#121212"/>
</g>
</svg>
