<svg width="22" height="21" viewBox="0 0 22 21" fill="none" xmlns="http://www.w3.org/2000/svg">
<path opacity="0.15" d="M10.0489 0.927051C10.3483 0.00574064 11.6517 0.00573969 11.9511 0.92705L13.8064 6.63729C13.9403 7.04931 14.3243 7.32827 14.7575 7.32827H20.7616C21.7303 7.32827 22.1331 8.56789 21.3494 9.13729L16.4919 12.6664C16.1415 12.9211 15.9948 13.3724 16.1287 13.7844L17.984 19.4947C18.2834 20.416 17.2289 21.1821 16.4452 20.6127L11.5878 17.0836C11.2373 16.8289 10.7627 16.8289 10.4122 17.0836L5.5548 20.6127C4.77108 21.1821 3.7166 20.416 4.01596 19.4947L5.87132 13.7844C6.0052 13.3724 5.85854 12.9211 5.50805 12.6664L0.650636 9.13729C-0.133077 8.56789 0.269696 7.32827 1.23842 7.32827H7.24252C7.67574 7.32827 8.0597 7.04931 8.19357 6.63729L10.0489 0.927051Z" fill="#3A3A3A"/>
</svg>
