<svg width="24" height="24" viewBox="0 0 24 24" fill="none" xmlns="http://www.w3.org/2000/svg">
<path fill-rule="evenodd" clip-rule="evenodd" d="M12 1.5C6.20101 1.5 1.5 6.20101 1.5 12C1.5 17.799 6.20101 22.5 12 22.5C17.799 22.5 22.5 17.799 22.5 12C22.5 6.20101 17.799 1.5 12 1.5ZM17.083 13.0846C16.9947 13.3094 17.0309 13.5313 17.1925 13.7506C17.3985 13.9818 17.6265 14.2171 17.857 14.4548C18.539 15.1584 19.2424 15.8841 19.4602 16.5949C19.5369 17.0384 19.1715 17.2035 18.8005 17.2035L16.8024 17.2363C16.6773 17.2637 16.5317 17.25 16.3654 17.1952C15.7895 17.0058 15.4134 16.5515 15.034 16.0934C14.7906 15.7994 14.5459 15.5039 14.2462 15.2757C14.0968 15.162 13.9166 15.0844 13.7428 15.1769C13.3502 15.3832 13.3403 15.7801 13.3302 16.1821C13.3225 16.4859 13.3148 16.7926 13.1418 17.0222C12.9133 17.2758 12.4703 17.2436 12.1088 17.2174C12.0074 17.21 11.9125 17.2031 11.8304 17.2031C8.09173 17.3373 5.6541 11.9777 4.54019 9.21268C4.40694 8.83907 4.61704 8.65363 4.99297 8.65363L7.13165 8.63728C7.36024 8.67719 7.57719 8.81241 7.66241 9.04827C7.98265 9.8316 9.14836 12.6573 9.87126 12.6573C10.5942 12.6573 10.4133 9.77802 10.1678 9.2375C10.0377 9.05118 9.81667 8.93333 9.50441 8.88406C9.43677 8.87324 9.44984 8.80742 9.54353 8.6868C9.87126 8.26488 11.8799 8.14012 12.7594 8.34972C12.9333 8.39569 13.1032 8.47731 13.1809 8.65804C13.3568 9.07035 13.3164 9.76453 13.2755 10.4673C13.2248 11.3383 13.1734 12.2225 13.5319 12.5999C13.6703 12.6361 13.7461 12.6403 13.8676 12.5424C14.7911 11.6111 15.4212 10.1621 15.9361 8.97473C16.0023 8.80018 16.1081 8.71439 16.2716 8.67459C16.556 8.67459 16.8638 8.67587 17.1812 8.67718C17.8463 8.67993 18.5535 8.68286 19.1753 8.67459C20.1373 8.67459 18.7453 10.6477 17.807 11.9777C17.4415 12.4959 17.1448 12.9164 17.083 13.0846Z" fill="#98989E"/>
</svg>
