<svg width="24" height="24" viewBox="0 0 24 24" fill="none" xmlns="http://www.w3.org/2000/svg">
<g clip-path="url(#clip0_131_8849)">
<path d="M23.0227 6.15425C22.9896 5.97461 22.919 5.80393 22.8157 5.65331C22.7123 5.50269 22.5784 5.37549 22.4227 5.27997L18.9941 8.70854C18.8342 8.87445 18.6425 9.00642 18.4304 9.09656C18.2183 9.1867 17.9903 9.23316 17.7598 9.23316C17.5294 9.23316 17.3013 9.1867 17.0893 9.09656C16.8772 9.00642 16.6855 8.87445 16.5255 8.70854L15.2227 7.54283C14.9086 7.22238 14.7326 6.79154 14.7326 6.34283C14.7326 5.89411 14.9086 5.46328 15.2227 5.14283L18.6513 1.71425C18.5765 1.5386 18.464 1.38153 18.3218 1.25415C18.1796 1.12677 18.0112 1.03219 17.8284 0.977112C16.6321 0.738551 15.3929 0.840668 14.2518 1.27184C13.1107 1.703 12.1136 2.4459 11.374 3.41594C10.6345 4.38599 10.1821 5.5442 10.0684 6.75872C9.95481 7.97324 10.1845 9.19527 10.7313 10.2857L1.37126 19.56C1.20798 19.7196 1.07824 19.9103 0.989668 20.1208C0.901095 20.3313 0.855469 20.5573 0.855469 20.7857C0.855469 21.014 0.901095 21.2401 0.989668 21.4506C1.07824 21.6611 1.20798 21.8517 1.37126 22.0114L1.9884 22.6285C2.14805 22.7918 2.33872 22.9216 2.5492 23.0101C2.75969 23.0987 2.98575 23.1443 3.21411 23.1443C3.44247 23.1443 3.66854 23.0987 3.87902 23.0101C4.08951 22.9216 4.28017 22.7918 4.43983 22.6285L13.7998 13.2857C14.8905 13.8053 16.104 14.0123 17.3053 13.8835C18.5066 13.7547 19.6486 13.2953 20.6043 12.5562C21.5601 11.8172 22.2922 10.8275 22.7191 9.69733C23.146 8.56711 23.2511 7.34062 23.0227 6.15425Z" stroke="#121212" stroke-width="2" stroke-linecap="round" stroke-linejoin="round"/>
</g>
<defs>
<clipPath id="clip0_131_8849">
<rect width="24" height="24" fill="white"/>
</clipPath>
</defs>
</svg>
