<svg width="65" height="86" viewBox="0 0 65 86" fill="none" xmlns="http://www.w3.org/2000/svg">
<circle cx="32.5" cy="32.5" r="32.5" fill="#D6B16A"/>
<path d="M32 56.8281L39.0001 62.6564C35.3805 67.0992 34.0418 69.8424 32.5 75C31.2648 70.368 29.9368 67.6757 25.9999 62.6564L32 56.8281Z" fill="#D6B16A"/>
<circle cx="33" cy="83" r="3" fill="#D6B16A"/>
<path d="M23.5946 15.3521C23.1869 15.5684 22.7792 15.8117 22.3987 16.0821C21.991 16.3524 21.5833 16.6228 21.2028 16.9472C21.0669 17.0554 20.9038 17.1635 20.7679 17.2987C20.4961 17.515 20.2515 17.7313 20.0068 17.9746C19.8166 18.1368 19.6535 18.3261 19.4632 18.4883C19.2458 18.7046 19.0283 18.9479 18.8109 19.1913C18.6478 19.3535 18.5119 19.5157 18.376 19.705C18.1042 20.0294 17.8596 20.3268 17.615 20.6783C17.5606 20.7594 17.5063 20.8405 17.4519 20.8946C17.1801 21.2731 16.9083 21.6787 16.6637 22.0842C16.5549 22.1923 16.4734 22.3275 16.3919 22.4627C16.256 22.706 16.1201 22.9764 15.9842 23.2197C15.7939 23.5983 15.6036 24.0038 15.4406 24.4094C15.359 24.6257 15.2775 24.8149 15.1959 25.0312C15.1144 25.2205 15.06 25.4368 14.9785 25.626C14.8426 26.0045 14.7339 26.4101 14.6251 26.8156C14.5164 27.2212 14.4349 27.5997 14.3533 28.0052C14.2718 28.4108 14.2174 28.7893 14.1631 29.1949C14.1087 29.6004 14.0815 29.9789 14.0544 30.3845C14 30.79 14 31.1956 14 31.5741C14 31.9796 14 32.3852 14.0272 32.7637C14.0544 33.1692 14.0815 33.5748 14.1359 33.9533C14.2174 34.3589 14.2718 34.7644 14.3533 35.17C14.4349 35.5755 14.5164 35.9811 14.6251 36.3596C14.7339 36.7651 14.8426 37.1707 14.9785 37.5492C15.06 37.7384 15.1144 37.9547 15.1959 38.144C15.2775 38.3333 15.359 38.5495 15.4406 38.7388C15.6036 39.1444 15.7939 39.5499 15.9842 39.9284C16.1201 40.1988 16.256 40.4421 16.3919 40.6854C16.4734 40.8206 16.5549 40.9828 16.6365 41.118C16.8811 41.5236 17.1529 41.9291 17.4247 42.3076C17.4791 42.3888 17.5334 42.4699 17.5878 42.5239C17.8324 42.8484 18.077 43.1728 18.3488 43.4973C18.4847 43.6595 18.6478 43.8487 18.7837 44.011C19.0012 44.2543 19.2186 44.4706 19.4361 44.7139C19.6263 44.9032 19.7894 45.0654 19.9797 45.2276V41.4425C19.8981 41.3343 19.8166 41.2262 19.735 41.118C19.4361 40.7395 19.1642 40.334 18.9196 39.9284C18.8653 39.8473 18.8109 39.7662 18.7837 39.6851C18.5935 39.3877 18.4304 39.0632 18.2673 38.7388C18.077 38.3603 17.8868 37.9547 17.7237 37.5492C17.6693 37.441 17.6422 37.3059 17.5878 37.1977C17.4791 36.9273 17.3975 36.657 17.2888 36.3596C17.1529 35.9811 17.0714 35.5755 16.9626 35.17C16.9355 35.0618 16.9083 34.9537 16.8811 34.8455L22.3715 31.7093V47.1202C22.752 47.3635 23.1597 47.6068 23.5674 47.8502C23.8664 48.0124 24.1654 48.1746 24.4644 48.3098H24.7634V14.7302C24.6547 14.7843 24.5459 14.8384 24.4644 14.8654C24.1926 15.0276 23.8936 15.1898 23.5946 15.3521ZM16.6093 32.25C16.6093 32.0337 16.5821 31.7904 16.5821 31.5741C16.5821 31.1685 16.6093 30.763 16.6365 30.3845C16.6637 29.9789 16.718 29.5734 16.7724 29.1949C16.8267 28.7893 16.9083 28.3837 16.9898 28.0052C17.0714 27.5997 17.1801 27.1941 17.316 26.8156C17.3975 26.5453 17.5063 26.2479 17.615 25.9775C17.6693 25.8693 17.6965 25.7342 17.7509 25.626C17.914 25.2205 18.1042 24.8149 18.2945 24.4364C18.4576 24.112 18.6206 23.7875 18.8109 23.4901C18.8653 23.409 18.9196 23.3279 18.9468 23.2468C19.1914 22.8412 19.4632 22.4357 19.7622 22.0572C19.8438 21.949 19.9253 21.8409 20.0068 21.7327C20.2515 21.4353 20.4961 21.1379 20.7407 20.8676C20.8766 20.7053 21.0397 20.5431 21.2028 20.3809C21.4474 20.1376 21.692 19.8942 21.9638 19.6779C22.0997 19.5428 22.2628 19.4076 22.4259 19.2994V28.9515L16.6093 32.25Z" fill="white"/>
<path d="M36.7763 13.4596C36.3686 13.3785 35.988 13.2974 35.5803 13.2433C35.1998 13.1622 34.7921 13.1081 34.3844 13.0811C33.9767 13.0541 33.5962 13.027 33.1885 13C33.0254 13 32.8623 13 32.6721 13C32.4274 13 32.21 13 31.9925 13C31.5848 13.027 31.1771 13.0541 30.7966 13.0811C30.3889 13.1081 29.9812 13.1622 29.6007 13.2433C29.193 13.2974 28.7853 13.3785 28.4048 13.4867C28.1329 13.5407 27.8883 13.6218 27.6165 13.6759C27.4806 13.703 27.3175 13.757 27.1816 13.8111V49.3373C27.3175 49.3914 27.4806 49.4184 27.6165 49.4725C27.8611 49.5536 28.1329 49.6077 28.3776 49.6617C28.7853 49.7429 29.1658 49.824 29.5735 49.9051C29.9812 49.9591 30.3617 50.0132 30.7694 50.0673C31.1771 50.0943 31.5577 50.1214 31.9654 50.1484C32.1828 50.1484 32.4274 50.1484 32.6449 50.1484C32.808 50.1484 32.971 50.1484 33.1613 50.1484C33.569 50.1484 33.9767 50.1214 34.3572 50.0673C34.7649 50.0403 35.1726 49.9862 35.5532 49.9321C35.9609 49.878 36.3686 49.7969 36.7491 49.7158C37.0753 49.6347 37.3742 49.5536 37.7004 49.4725C37.7819 49.4454 37.8635 49.4184 37.945 49.3914V37.1978V34.4401L35.5532 33.0612L31.9654 30.9794V33.7371L35.5532 35.819V47.3366C35.1455 47.4177 34.7649 47.4718 34.3572 47.4988C33.9495 47.5529 33.569 47.5799 33.1613 47.5799C32.9982 47.5799 32.8351 47.5799 32.6449 47.5799C32.4002 47.5799 32.1828 47.5799 31.9654 47.5529C31.5577 47.5258 31.15 47.4988 30.7694 47.4447C30.3617 47.3907 29.954 47.3366 29.5735 47.2555V15.8659C29.9812 15.7848 30.3617 15.7307 30.7694 15.6766C31.1771 15.6226 31.5577 15.5955 31.9654 15.5685C32.1828 15.5685 32.4274 15.5414 32.6449 15.5414C32.808 15.5414 32.971 15.5414 33.1613 15.5414C33.569 15.5414 33.9767 15.5685 34.3572 15.6226C34.7649 15.6766 35.1726 15.7307 35.5532 15.7848V30.2764L37.945 31.6553V13.757C37.8635 13.73 37.7819 13.703 37.7004 13.6759C37.4286 13.5948 37.1024 13.5137 36.7763 13.4596Z" fill="white"/>
<path d="M51.3192 30.3847C51.292 29.9792 51.2648 29.5736 51.2105 29.1951H51.1833V28.9518C51.1289 28.6273 51.0746 28.3029 51.0202 28.0055C50.9387 27.5999 50.8571 27.1944 50.7484 26.8159C50.6397 26.4103 50.531 26.0048 50.3951 25.6262C50.2592 25.2748 50.1505 24.8963 49.9874 24.5448C49.9602 24.4907 49.9602 24.4637 49.933 24.4096C49.7699 24.004 49.5797 23.5985 49.3894 23.22C49.1991 22.8415 49.0089 22.49 48.7914 22.1385C48.7643 22.1115 48.7371 22.0574 48.7371 22.0304C48.4925 21.6248 48.2207 21.2193 47.9489 20.8408C47.8401 20.6785 47.7042 20.5163 47.5955 20.3541C47.4052 20.1108 47.215 19.8674 47.0247 19.6241C46.8345 19.3808 46.617 19.1374 46.3996 18.9211C46.2365 18.7589 46.1006 18.5967 45.9375 18.4345C45.6929 18.1912 45.4483 17.9749 45.2036 17.7586C45.0134 17.5963 44.8231 17.4071 44.6057 17.2449C44.4154 17.0827 44.198 16.9204 44.0077 16.7582C43.6816 16.5149 43.3554 16.2716 43.002 16.0553C42.9477 16.0012 42.8661 15.9741 42.8118 15.9201C42.4313 15.6767 42.0236 15.4334 41.6159 15.2171C41.3712 15.0819 41.1538 14.9738 40.9092 14.8656C40.7461 14.7845 40.583 14.7034 40.4199 14.6223V33.0343L42.8118 34.4132L47.7586 37.252C47.7314 37.3331 47.7042 37.4142 47.6499 37.4953C47.6227 37.5224 47.6227 37.5765 47.5955 37.6035C47.4324 37.982 47.2693 38.3335 47.1063 38.685C46.9975 38.9283 46.8616 39.1716 46.7257 39.3879C46.6442 39.5501 46.5355 39.7124 46.4539 39.8746C46.4539 39.9016 46.4268 39.9286 46.4268 39.9286C46.1821 40.3072 45.9375 40.6857 45.6657 41.0642C45.5298 41.2534 45.3939 41.4427 45.2308 41.6049C45.0406 41.8212 44.8775 42.0375 44.66 42.2538C44.4426 42.4701 44.2252 42.7134 44.0077 42.9297C43.8175 43.119 43.6272 43.2812 43.4369 43.4434C43.2195 43.6327 43.0292 43.7949 42.8118 43.9841V37.1979L40.4199 35.8191V48.4993C40.583 48.4182 40.7461 48.3371 40.9092 48.2559C41.1538 48.1478 41.3712 48.0126 41.6159 47.9045C42.0236 47.6882 42.4313 47.4448 42.8118 47.2015C42.8661 47.1474 42.9477 47.1204 43.002 47.0663C43.3554 46.85 43.6816 46.6067 44.0077 46.3634C44.2252 46.2012 44.4154 46.0389 44.6057 45.8767C44.7959 45.7145 45.0134 45.5523 45.2036 45.363C45.4483 45.1467 45.6929 44.9034 45.9375 44.6871C46.1006 44.5249 46.2637 44.3627 46.3996 44.2004C46.617 43.9842 46.8345 43.7408 47.0247 43.4975C47.215 43.2542 47.4052 43.0379 47.5955 42.7675C47.7042 42.6053 47.8401 42.4431 47.9489 42.2808C48.2207 41.9023 48.4925 41.4968 48.7371 41.0912C48.7643 41.0642 48.7914 41.0101 48.7914 40.9831C48.8458 40.902 48.9002 40.7938 48.9545 40.7127C49.1176 40.4423 49.2535 40.172 49.3894 39.9016C49.5797 39.5231 49.7699 39.1175 49.933 38.712C49.9602 38.6579 49.9602 38.6309 49.9874 38.5768V38.5498C50.1233 38.1983 50.2592 37.8468 50.3679 37.4953C50.5038 37.1168 50.6125 36.7113 50.7212 36.3057C50.7212 36.2787 50.7212 36.2517 50.7484 36.2246L50.4223 36.0354L48.0304 34.6565L42.7846 31.6284V19.1104C43.002 19.2726 43.2195 19.4619 43.4097 19.6511C43.6 19.8134 43.7903 20.0026 43.9805 20.1648C44.198 20.3811 44.4154 20.5974 44.6329 20.8408C44.8231 21.057 45.0134 21.2733 45.2036 21.4896C45.3395 21.6789 45.5026 21.8411 45.6385 22.0304C45.9103 22.4089 46.1821 22.7604 46.3996 23.1659C46.3996 23.1929 46.4268 23.22 46.4268 23.22C46.6714 23.5985 46.8888 24.004 47.1063 24.4096C47.2965 24.7611 47.4596 25.1125 47.5955 25.4911C47.6227 25.5181 47.6227 25.5722 47.6499 25.5992C47.813 25.9777 47.9489 26.3833 48.0848 26.7888C48.2207 27.1673 48.3022 27.5729 48.4109 27.9784C48.4925 28.384 48.574 28.7625 48.6284 29.168C48.6827 29.5736 48.7371 29.9521 48.7643 30.3577C48.7914 30.7632 48.8186 31.1417 48.8186 31.5473C48.8186 31.8176 48.8186 32.088 48.7914 32.3584L51.2648 33.7643C51.292 33.4128 51.3464 33.0884 51.3464 32.7369C51.3736 32.3313 51.3736 31.9528 51.3736 31.5473C51.3736 31.1958 51.3464 30.7903 51.3192 30.3847Z" fill="white"/>
</svg>
