<svg width="24" height="24" viewBox="0 0 24 24" fill="none" xmlns="http://www.w3.org/2000/svg">
<path d="M0 4.125C0 2.676 1.176 1.5 2.625 1.5H21.375C22.824 1.5 24 2.676 24 4.125V19.875C24 20.5712 23.7234 21.2389 23.2312 21.7312C22.7389 22.2234 22.0712 22.5 21.375 22.5H2.625C1.92881 22.5 1.26113 22.2234 0.768845 21.7312C0.276562 21.2389 0 20.5712 0 19.875L0 4.125ZM21.75 9H2.25V19.875C2.25 20.082 2.418 20.25 2.625 20.25H21.375C21.4745 20.25 21.5698 20.2105 21.6402 20.1402C21.7105 20.0698 21.75 19.9745 21.75 19.875V9ZM12.75 3.75V6.75H21.75V4.125C21.75 4.02554 21.7105 3.93016 21.6402 3.85984C21.5698 3.78951 21.4745 3.75 21.375 3.75H12.75ZM7.5 3.75V6.75H10.5V3.75H7.5ZM2.625 3.75C2.52554 3.75 2.43016 3.78951 2.35984 3.85984C2.28951 3.93016 2.25 4.02554 2.25 4.125V6.75H5.25V3.75H2.625Z" fill="#121212"/>
</svg>
