<svg width="24" height="24" viewBox="0 0 24 24" fill="none" xmlns="http://www.w3.org/2000/svg">
<path fill-rule="evenodd" clip-rule="evenodd" d="M21 11.5C21 16.25 21 18.625 19.8125 19.8125C18.625 21 16.25 21 11.5 21C6.75 21 4.375 21 3.1875 19.8125C2 18.625 2 16.25 2 11.5C2 6.75 2 4.375 3.1875 3.1875C4.375 2 6.75 2 11.5 2C16.25 2 18.625 2 19.8125 3.1875C21 4.375 21 6.75 21 11.5ZM9.11351 5.55101C9.74645 4.91808 10.6049 4.5625 11.5 4.5625C12.3951 4.5625 13.2535 4.91808 13.8865 5.55101C14.5194 6.18395 14.875 7.04239 14.875 7.9375C14.875 8.83261 14.5194 9.69105 13.8865 10.324C13.2535 10.9569 12.3951 11.3125 11.5 11.3125C10.6049 11.3125 9.74645 10.9569 9.11351 10.324C8.48058 9.69105 8.125 8.83261 8.125 7.9375C8.125 7.04239 8.48058 6.18395 9.11351 5.55101ZM11.5 6.5625C11.1353 6.5625 10.7856 6.70737 10.5277 6.96523C10.2699 7.22309 10.125 7.57283 10.125 7.9375C10.125 8.30217 10.2699 8.65191 10.5277 8.90977C10.7856 9.16763 11.1353 9.3125 11.5 9.3125C11.8647 9.3125 12.2144 9.16763 12.4723 8.90977C12.7301 8.65191 12.875 8.30217 12.875 7.9375C12.875 7.57283 12.7301 7.22309 12.4723 6.96523C12.2144 6.70737 11.8647 6.5625 11.5 6.5625ZM8.97873 11.7932C8.48483 11.5461 7.88409 11.7461 7.63696 12.24C7.38982 12.7339 7.58986 13.3347 8.08377 13.5818C8.63978 13.86 9.28746 14.0486 9.96148 14.1592L7.76303 16.7973C7.40946 17.2216 7.46679 17.8522 7.89107 18.2057C8.31534 18.5593 8.94591 18.502 9.29947 18.0777L11.5 15.437L13.7005 18.0777C14.0541 18.502 14.6847 18.5593 15.1089 18.2057C15.5332 17.8522 15.5905 17.2216 15.237 16.7973L13.0385 14.1592C13.7125 14.0486 14.3602 13.86 14.9162 13.5818C15.4101 13.3347 15.6102 12.7339 15.363 12.24C15.1159 11.7461 14.5152 11.5461 14.0213 11.7932C13.4175 12.0953 12.5058 12.2787 11.5232 12.2815L11.5 12.2812L11.4768 12.2815C10.4942 12.2787 9.58252 12.0953 8.97873 11.7932Z" fill="#98989E"/>
</svg>
