<svg width="28" height="28" viewBox="0 0 28 28" fill="none" xmlns="http://www.w3.org/2000/svg">
<path d="M13.9388 3.76709C19.5564 3.76709 24.11 8.15209 24.11 13.5616C24.11 18.9711 19.5564 23.3561 13.9388 23.3561C12.1413 23.3589 10.3755 22.9008 8.82269 22.029L3.77166 23.3561L5.14681 18.4902C4.24065 16.9945 3.76459 15.2933 3.76759 13.5616C3.76759 8.15209 8.32125 3.76709 13.9388 3.76709ZM10.4725 8.95818L10.269 8.96602C10.1373 8.97374 10.0086 9.00706 9.89067 9.06396C9.78033 9.12413 9.67961 9.19935 9.59164 9.28728C9.46958 9.39796 9.40042 9.49394 9.32617 9.58699C8.94996 10.058 8.7474 10.6363 8.75048 11.2305C8.75251 11.7104 8.8827 12.1776 9.08613 12.6145C9.50213 13.4979 10.1867 14.4333 11.0899 15.3001C11.3075 15.5088 11.5211 15.7184 11.751 15.9133C12.8733 16.8648 14.2106 17.5509 15.6567 17.9172L16.2345 18.0024C16.4226 18.0122 16.6108 17.9985 16.8 17.9897C17.0962 17.975 17.3855 17.8977 17.6472 17.7635C17.7804 17.6974 17.9104 17.6255 18.0368 17.548C18.0368 17.548 18.0805 17.5205 18.1639 17.4598C18.3013 17.3619 18.3857 17.2923 18.4996 17.1777C18.584 17.0935 18.6573 16.9946 18.7132 16.8819C18.7925 16.7223 18.8719 16.4177 18.9044 16.164C18.9288 15.9701 18.9217 15.8643 18.9187 15.7987C18.9146 15.6939 18.8241 15.5851 18.7254 15.5391L18.1334 15.2835C18.1334 15.2835 17.2485 14.9123 16.7074 14.6752C16.6508 14.6514 16.5901 14.6378 16.5284 14.6351C16.4588 14.6282 16.3885 14.6357 16.3222 14.6572C16.2559 14.6786 16.1951 14.7135 16.1439 14.7595C16.1389 14.7575 16.0707 14.8133 15.3353 15.6713C15.2931 15.726 15.235 15.7672 15.1683 15.7899C15.1017 15.8126 15.0295 15.8156 14.961 15.7987C14.8948 15.7816 14.8298 15.76 14.7668 15.734C14.6406 15.6831 14.5969 15.6635 14.5104 15.6282C13.9267 15.3829 13.3862 15.0515 12.9085 14.6459C12.7803 14.5381 12.6613 14.4206 12.5393 14.307C12.1391 13.9379 11.7904 13.5205 11.5018 13.065L11.4418 12.972C11.3987 12.9095 11.3638 12.842 11.338 12.7712C11.2994 12.6272 11.4001 12.5116 11.4001 12.5116C11.4001 12.5116 11.6472 12.2511 11.7622 12.1101C11.8741 11.9729 11.9687 11.8397 12.0297 11.7447C12.1497 11.5586 12.1873 11.3676 12.1243 11.2197C11.8395 10.5498 11.5445 9.88278 11.2414 9.22067C11.1814 9.08943 11.0034 8.9954 10.8417 8.97679C10.7868 8.97091 10.7318 8.96504 10.6769 8.96112C10.5403 8.95459 10.4034 8.95589 10.267 8.96504L10.4714 8.9572L10.4725 8.95818Z" fill="#121212"/>
</svg>
