<svg width="414" height="169" viewBox="0 0 414 169" fill="none" xmlns="http://www.w3.org/2000/svg">
<path d="M32.512 156L29.288 148.2H12.388L9.164 156H0.532L16.756 119.6H25.076L41.352 156H32.512ZM15.092 141.804H26.636L20.864 127.868L15.092 141.804ZM61.0925 127.608C68.9445 127.608 75.0285 133.224 75.0285 142.012C75.0285 150.8 68.9445 156.416 61.0925 156.416C57.6085 156.416 54.7485 155.324 52.6685 153.036V166.088H44.5565V128.024H52.3045V131.248C54.3325 128.804 57.3485 127.608 61.0925 127.608ZM59.6885 149.76C63.7445 149.76 66.8125 146.848 66.8125 142.012C66.8125 137.176 63.7445 134.264 59.6885 134.264C55.6325 134.264 52.5645 137.176 52.5645 142.012C52.5645 146.848 55.6325 149.76 59.6885 149.76ZM96.9948 127.608C104.847 127.608 110.931 133.224 110.931 142.012C110.931 150.8 104.847 156.416 96.9948 156.416C93.5108 156.416 90.6508 155.324 88.5708 153.036V166.088H80.4588V128.024H88.2068V131.248C90.2348 128.804 93.2508 127.608 96.9948 127.608ZM95.5908 149.76C99.6468 149.76 102.715 146.848 102.715 142.012C102.715 137.176 99.6468 134.264 95.5908 134.264C91.5348 134.264 88.4668 137.176 88.4668 142.012C88.4668 146.848 91.5348 149.76 95.5908 149.76ZM141.529 147.888V137.228H149.225V151.996C145.221 155.012 139.709 156.624 134.509 156.624C123.069 156.624 114.645 148.772 114.645 137.8C114.645 126.828 123.069 118.976 134.665 118.976C141.061 118.976 146.365 121.16 149.901 125.268L144.493 130.26C141.841 127.452 138.773 126.152 135.081 126.152C128.009 126.152 123.173 130.884 123.173 137.8C123.173 144.612 128.009 149.448 134.977 149.448C137.265 149.448 139.397 149.032 141.529 147.888ZM164.226 131.716C166.202 129.012 169.53 127.608 173.846 127.608V135.096C173.17 135.044 172.65 134.992 172.026 134.992C167.554 134.992 164.59 137.436 164.59 142.792V156H156.478V128.024H164.226V131.716ZM205.82 142.116C205.82 142.74 205.716 143.624 205.664 144.3H184.5C185.28 147.784 188.244 149.916 192.508 149.916C195.472 149.916 197.604 149.032 199.528 147.212L203.844 151.892C201.244 154.856 197.344 156.416 192.3 156.416C182.628 156.416 176.336 150.332 176.336 142.012C176.336 133.64 182.732 127.608 191.26 127.608C199.476 127.608 205.82 133.12 205.82 142.116ZM191.312 133.744C187.62 133.744 184.968 135.98 184.396 139.568H198.176C197.604 136.032 194.952 133.744 191.312 133.744ZM221.743 127.608C230.271 127.608 235.211 131.56 235.211 140.036V156H227.619V152.516C226.111 155.064 223.199 156.416 219.091 156.416C212.539 156.416 208.639 152.776 208.639 147.94C208.639 143 212.123 139.568 220.651 139.568H227.099C227.099 136.084 225.019 134.056 220.651 134.056C217.687 134.056 214.619 135.044 212.591 136.656L209.679 130.988C212.747 128.804 217.271 127.608 221.743 127.608ZM221.119 150.956C223.823 150.956 226.163 149.708 227.099 147.16V144.3H221.535C217.739 144.3 216.543 145.704 216.543 147.576C216.543 149.604 218.259 150.956 221.119 150.956ZM258.413 148.928L260.597 154.648C258.933 155.844 256.489 156.416 253.993 156.416C247.389 156.416 243.541 153.036 243.541 146.38V134.888H239.225V128.648H243.541V121.836H251.653V128.648H258.621V134.888H251.653V146.276C251.653 148.668 252.953 149.968 255.137 149.968C256.333 149.968 257.529 149.604 258.413 148.928ZM268.726 156.416C265.918 156.416 263.682 154.284 263.682 151.32C263.682 148.304 265.918 146.328 268.726 146.328C271.534 146.328 273.77 148.304 273.77 151.32C273.77 154.284 271.534 156.416 268.726 156.416ZM288.679 156.416C283.947 156.416 279.163 155.116 276.563 153.4L279.267 147.576C281.763 149.188 285.559 150.28 288.991 150.28C292.735 150.28 294.139 149.292 294.139 147.732C294.139 143.156 277.239 147.836 277.239 136.656C277.239 131.352 282.023 127.608 290.187 127.608C294.035 127.608 298.299 128.492 300.951 130.052L298.247 135.824C295.491 134.264 292.735 133.744 290.187 133.744C286.547 133.744 284.987 134.888 284.987 136.344C284.987 141.128 301.887 136.5 301.887 147.524C301.887 152.724 297.051 156.416 288.679 156.416ZM322.752 148.928L324.936 154.648C323.272 155.844 320.828 156.416 318.332 156.416C311.728 156.416 307.88 153.036 307.88 146.38V134.888H303.564V128.648H307.88V121.836H315.992V128.648H322.96V134.888H315.992V146.276C315.992 148.668 317.292 149.968 319.476 149.968C320.672 149.968 321.868 149.604 322.752 148.928ZM341.939 156.416C333.047 156.416 326.547 150.436 326.547 142.012C326.547 133.588 333.047 127.608 341.939 127.608C350.831 127.608 357.279 133.588 357.279 142.012C357.279 150.436 350.831 156.416 341.939 156.416ZM341.939 149.76C345.995 149.76 349.063 146.848 349.063 142.012C349.063 137.176 345.995 134.264 341.939 134.264C337.883 134.264 334.763 137.176 334.763 142.012C334.763 146.848 337.883 149.76 341.939 149.76ZM370.449 131.716C372.425 129.012 375.753 127.608 380.069 127.608V135.096C379.393 135.044 378.873 134.992 378.249 134.992C373.777 134.992 370.813 137.436 370.813 142.792V156H362.701V128.024H370.449V131.716ZM412.043 142.116C412.043 142.74 411.939 143.624 411.887 144.3H390.723C391.503 147.784 394.467 149.916 398.731 149.916C401.695 149.916 403.827 149.032 405.751 147.212L410.067 151.892C407.467 154.856 403.567 156.416 398.523 156.416C388.851 156.416 382.559 150.332 382.559 142.012C382.559 133.64 388.955 127.608 397.483 127.608C405.699 127.608 412.043 133.12 412.043 142.116ZM397.535 133.744C393.843 133.744 391.191 135.98 390.619 139.568H404.399C403.827 136.032 401.175 133.744 397.535 133.744Z" fill="white"/>
<path d="M187.826 5.13792C186.935 5.6104 186.045 6.14194 185.214 6.73254C184.323 7.32314 183.432 7.91374 182.601 8.62246C182.304 8.8587 181.948 9.09494 181.651 9.39024C181.057 9.86272 180.523 10.3352 179.989 10.8667C179.573 11.2211 179.217 11.6345 178.801 11.9889C178.326 12.4614 177.851 12.9929 177.376 13.5244C177.02 13.8788 176.723 14.2332 176.426 14.6466C175.833 15.3553 175.298 16.005 174.764 16.7727C174.645 16.9499 174.526 17.1271 174.408 17.2452C173.814 18.0721 173.22 18.958 172.686 19.8439C172.448 20.0801 172.27 20.3754 172.092 20.6707C171.795 21.2022 171.498 21.7928 171.201 22.3244C170.786 23.1512 170.37 24.0371 170.014 24.923C169.836 25.3955 169.658 25.8089 169.48 26.2814C169.302 26.6948 169.183 27.1673 169.005 27.5807C168.708 28.4076 168.47 29.2934 168.233 30.1793C167.995 31.0652 167.817 31.8921 167.639 32.778C167.461 33.6639 167.342 34.4907 167.223 35.3766C167.105 36.2625 167.045 37.0894 166.986 37.9753C166.867 38.8612 166.867 39.7471 166.867 40.5739C166.867 41.4598 166.867 42.3457 166.927 43.1725C166.986 44.0584 167.045 44.9443 167.164 45.7712C167.342 46.6571 167.461 47.543 167.639 48.4289C167.817 49.3148 167.995 50.2007 168.233 51.0275C168.47 51.9134 168.708 52.7993 169.005 53.6262C169.183 54.0396 169.302 54.5121 169.48 54.9255C169.658 55.3389 169.836 55.8114 170.014 56.2248C170.37 57.1107 170.786 57.9966 171.201 58.8234C171.498 59.414 171.795 59.9456 172.092 60.4771C172.27 60.7724 172.448 61.1268 172.626 61.4221C173.161 62.308 173.755 63.1939 174.348 64.0207C174.467 64.1979 174.586 64.3751 174.705 64.4932C175.239 65.2019 175.773 65.9106 176.367 66.6194C176.664 66.9737 177.02 67.3871 177.317 67.7415C177.792 68.273 178.267 68.7455 178.742 69.2771C179.158 69.6905 179.514 70.0448 179.929 70.3992V62.1308C179.751 61.8946 179.573 61.6583 179.395 61.4221C178.742 60.5952 178.148 59.7093 177.614 58.8234C177.495 58.6463 177.376 58.4691 177.317 58.2919C176.901 57.6422 176.545 56.9335 176.189 56.2248C175.773 55.398 175.358 54.5121 175.001 53.6262C174.883 53.3899 174.823 53.0946 174.705 52.8584C174.467 52.2678 174.289 51.6772 174.051 51.0275C173.755 50.2007 173.576 49.3148 173.339 48.4289C173.28 48.1926 173.22 47.9564 173.161 47.7202L185.154 40.8692V74.5334C185.985 75.0649 186.876 75.5965 187.767 76.128C188.42 76.4824 189.073 76.8367 189.726 77.132H190.379V3.77954C190.142 3.89766 189.904 4.01578 189.726 4.07484C189.132 4.4292 188.479 4.78356 187.826 5.13792ZM172.567 42.0504C172.567 41.5779 172.508 41.0464 172.508 40.5739C172.508 39.688 172.567 38.8021 172.626 37.9753C172.686 37.0894 172.805 36.2035 172.923 35.3766C173.042 34.4907 173.22 33.6048 173.398 32.778C173.576 31.8921 173.814 31.0062 174.111 30.1793C174.289 29.5887 174.526 28.9391 174.764 28.3485C174.883 28.1123 174.942 27.817 175.061 27.5807C175.417 26.6948 175.833 25.8089 176.248 24.9821C176.604 24.2734 176.961 23.5646 177.376 22.915C177.495 22.7378 177.614 22.5606 177.673 22.3834C178.208 21.4975 178.801 20.6116 179.454 19.7848C179.633 19.5486 179.811 19.3123 179.989 19.0761C180.523 18.4264 181.057 17.7768 181.592 17.1862C181.889 16.8318 182.245 16.4774 182.601 16.1231C183.136 15.5915 183.67 15.06 184.264 14.5875C184.561 14.2922 184.917 13.9969 185.273 13.7607V34.8451L172.567 42.0504Z" fill="white"/>
<path d="M216.621 1.00402C215.73 0.82684 214.899 0.64966 214.009 0.53154C213.177 0.35436 212.287 0.23624 211.396 0.17718C210.506 0.11812 209.674 0.05906 208.784 0C208.427 0 208.071 0 207.656 0C207.121 0 206.646 0 206.171 0C205.281 0.05906 204.39 0.11812 203.559 0.17718C202.668 0.23624 201.778 0.35436 200.946 0.53154C200.056 0.64966 199.165 0.82684 198.334 1.06308C197.74 1.1812 197.206 1.35838 196.612 1.4765C196.315 1.53556 195.959 1.65368 195.662 1.7718V79.3766C195.959 79.4947 196.315 79.5538 196.612 79.6719C197.146 79.8491 197.74 79.9672 198.275 80.0853C199.165 80.2625 199.996 80.4397 200.887 80.6169C201.778 80.735 202.609 80.8531 203.499 80.9712C204.39 81.0303 205.221 81.0893 206.112 81.1484C206.587 81.1484 207.121 81.1484 207.596 81.1484C207.952 81.1484 208.309 81.1484 208.724 81.1484C209.615 81.1484 210.506 81.0894 211.337 80.9712C212.227 80.9122 213.118 80.7941 213.949 80.6759C214.84 80.5578 215.73 80.3806 216.562 80.2035C217.274 80.0263 217.927 79.8491 218.64 79.6719C218.818 79.6128 218.996 79.5538 219.174 79.4947V52.8587V46.8346L213.949 43.8225L206.112 39.2749V45.299L213.949 49.8466V75.0062C213.059 75.1833 212.227 75.3015 211.337 75.3605C210.446 75.4787 209.615 75.5377 208.724 75.5377C208.368 75.5377 208.012 75.5377 207.596 75.5377C207.062 75.5377 206.587 75.5377 206.112 75.4787C205.221 75.4196 204.331 75.3605 203.499 75.2424C202.609 75.1243 201.718 75.0062 200.887 74.829V6.26036C201.778 6.08318 202.609 5.96506 203.499 5.84694C204.39 5.72882 205.221 5.66976 206.112 5.6107C206.587 5.6107 207.121 5.55164 207.596 5.55164C207.952 5.55164 208.309 5.55164 208.724 5.55164C209.615 5.55164 210.506 5.6107 211.337 5.72882C212.227 5.84694 213.118 5.96506 213.949 6.08318V37.7393L219.174 40.7514V1.65368C218.996 1.59462 218.818 1.53556 218.64 1.4765C218.046 1.29932 217.333 1.12214 216.621 1.00402Z" fill="url(#paint0_linear_24_19734)"/>
<path d="M216.621 1.00402C215.73 0.82684 214.899 0.64966 214.009 0.53154C213.177 0.35436 212.287 0.23624 211.396 0.17718C210.506 0.11812 209.674 0.05906 208.784 0C208.427 0 208.071 0 207.656 0C207.121 0 206.646 0 206.171 0C205.281 0.05906 204.39 0.11812 203.559 0.17718C202.668 0.23624 201.778 0.35436 200.946 0.53154C200.056 0.64966 199.165 0.82684 198.334 1.06308C197.74 1.1812 197.206 1.35838 196.612 1.4765C196.315 1.53556 195.959 1.65368 195.662 1.7718V79.3766C195.959 79.4947 196.315 79.5538 196.612 79.6719C197.146 79.8491 197.74 79.9672 198.275 80.0853C199.165 80.2625 199.996 80.4397 200.887 80.6169C201.778 80.735 202.609 80.8531 203.499 80.9712C204.39 81.0303 205.221 81.0893 206.112 81.1484C206.587 81.1484 207.121 81.1484 207.596 81.1484C207.952 81.1484 208.309 81.1484 208.724 81.1484C209.615 81.1484 210.506 81.0894 211.337 80.9712C212.227 80.9122 213.118 80.7941 213.949 80.6759C214.84 80.5578 215.73 80.3806 216.562 80.2035C217.274 80.0263 217.927 79.8491 218.64 79.6719C218.818 79.6128 218.996 79.5538 219.174 79.4947V52.8587V46.8346L213.949 43.8225L206.112 39.2749V45.299L213.949 49.8466V75.0062C213.059 75.1833 212.227 75.3015 211.337 75.3605C210.446 75.4787 209.615 75.5377 208.724 75.5377C208.368 75.5377 208.012 75.5377 207.596 75.5377C207.062 75.5377 206.587 75.5377 206.112 75.4787C205.221 75.4196 204.331 75.3605 203.499 75.2424C202.609 75.1243 201.718 75.0062 200.887 74.829V6.26036C201.778 6.08318 202.609 5.96506 203.499 5.84694C204.39 5.72882 205.221 5.66976 206.112 5.6107C206.587 5.6107 207.121 5.55164 207.596 5.55164C207.952 5.55164 208.309 5.55164 208.724 5.55164C209.615 5.55164 210.506 5.6107 211.337 5.72882C212.227 5.84694 213.118 5.96506 213.949 6.08318V37.7393L219.174 40.7514V1.65368C218.996 1.59462 218.818 1.53556 218.64 1.4765C218.046 1.29932 217.333 1.12214 216.621 1.00402Z" fill="white"/>
<path d="M248.389 37.9757C248.33 37.0898 248.27 36.2039 248.151 35.377H248.092V34.8455C247.973 34.1368 247.855 33.428 247.736 32.7784C247.558 31.8925 247.38 31.0066 247.142 30.1798C246.905 29.2938 246.667 28.408 246.37 27.5811C246.073 26.8133 245.836 25.9865 245.48 25.2187C245.42 25.1006 245.42 25.0415 245.361 24.9234C245.005 24.0375 244.589 23.1516 244.173 22.3248C243.758 21.4979 243.342 20.7302 242.867 19.9624C242.808 19.9033 242.748 19.7852 242.748 19.7261C242.214 18.8402 241.62 17.9543 241.027 17.1275C240.789 16.7731 240.492 16.4188 240.255 16.0644C239.839 15.5329 239.423 15.0013 239.008 14.4698C238.592 13.9383 238.117 13.4067 237.642 12.9342C237.286 12.5799 236.989 12.2255 236.633 11.8712C236.099 11.3396 235.564 10.8671 235.03 10.3947C234.614 10.0403 234.199 9.62688 233.724 9.27252C233.308 8.91816 232.833 8.5638 232.417 8.20944C231.705 7.6779 230.992 7.14636 230.221 6.67388C230.102 6.55576 229.924 6.4967 229.805 6.37858C228.974 5.84704 228.083 5.3155 227.193 4.84302C226.658 4.54772 226.183 4.31148 225.649 4.07524C225.293 3.89806 224.936 3.72088 224.58 3.5437V43.7635L229.805 46.7756L240.611 52.9769C240.552 53.1541 240.492 53.3313 240.373 53.5084C240.314 53.5675 240.314 53.6856 240.255 53.7447C239.898 54.5715 239.542 55.3393 239.186 56.1071C238.948 56.6386 238.652 57.1702 238.355 57.6426C238.177 57.997 237.939 58.3514 237.761 58.7057C237.761 58.7648 237.702 58.8238 237.702 58.8238C237.167 59.6507 236.633 60.4775 236.039 61.3044C235.742 61.7178 235.445 62.1312 235.089 62.4856C234.674 62.958 234.317 63.4305 233.842 63.903C233.367 64.3755 232.892 64.907 232.417 65.3795C232.002 65.7929 231.586 66.1473 231.171 66.5016C230.696 66.9151 230.28 67.2694 229.805 67.6828V52.8588L224.58 49.8467V77.5459C224.936 77.3687 225.293 77.1915 225.649 77.0143C226.183 76.7781 226.658 76.4828 227.193 76.2465C228.083 75.7741 228.974 75.2425 229.805 74.711C229.924 74.5929 230.102 74.5338 230.221 74.4157C230.992 73.9432 231.705 73.4117 232.417 72.8801C232.892 72.5258 233.308 72.1714 233.724 71.817C234.139 71.4627 234.614 71.1083 235.03 70.6949C235.564 70.2224 236.099 69.6909 236.633 69.2184C236.989 68.864 237.345 68.5097 237.642 68.1553C238.117 67.6828 238.592 67.1513 239.008 66.6198C239.423 66.0882 239.839 65.6157 240.255 65.0251C240.492 64.6708 240.789 64.3164 241.027 63.9621C241.62 63.1352 242.214 62.2493 242.748 61.3634C242.808 61.3044 242.867 61.1862 242.867 61.1272C242.986 60.95 243.105 60.7138 243.223 60.5366C243.58 59.946 243.876 59.3554 244.173 58.7648C244.589 57.9379 245.005 57.052 245.361 56.1661C245.42 56.048 245.42 55.989 245.48 55.8708V55.8118C245.776 55.044 246.073 54.2762 246.311 53.5084C246.608 52.6816 246.845 51.7957 247.083 50.9098C247.083 50.8507 247.083 50.7917 247.142 50.7326L246.43 50.3192L241.205 47.3071L229.746 40.6924V13.3477C230.221 13.702 230.696 14.1154 231.111 14.5289C231.527 14.8832 231.942 15.2966 232.358 15.651C232.833 16.1235 233.308 16.596 233.783 17.1275C234.199 17.6 234.614 18.0725 235.03 18.5449C235.327 18.9584 235.683 19.3127 235.98 19.7261C236.574 20.553 237.167 21.3208 237.642 22.2067C237.642 22.2657 237.702 22.3248 237.702 22.3248C238.236 23.1516 238.711 24.0375 239.186 24.9234C239.602 25.6912 239.958 26.459 240.255 27.2858C240.314 27.3449 240.314 27.463 240.373 27.5221C240.73 28.3489 241.027 29.2348 241.323 30.1207C241.62 30.9475 241.798 31.8334 242.036 32.7193C242.214 33.6052 242.392 34.4321 242.511 35.318C242.63 36.2039 242.748 37.0307 242.808 37.9166C242.867 38.8025 242.927 39.6293 242.927 40.5152C242.927 41.1058 242.927 41.6964 242.867 42.287L248.27 45.3582C248.33 44.5904 248.448 43.8817 248.448 43.1139C248.508 42.228 248.508 41.4011 248.508 40.5152C248.508 39.7475 248.448 38.8616 248.389 37.9757Z" fill="url(#paint1_linear_24_19734)"/>
<path d="M248.389 37.9757C248.33 37.0898 248.27 36.2039 248.151 35.377H248.092V34.8455C247.973 34.1368 247.855 33.428 247.736 32.7784C247.558 31.8925 247.38 31.0066 247.142 30.1798C246.905 29.2938 246.667 28.408 246.37 27.5811C246.073 26.8133 245.836 25.9865 245.48 25.2187C245.42 25.1006 245.42 25.0415 245.361 24.9234C245.005 24.0375 244.589 23.1516 244.173 22.3248C243.758 21.4979 243.342 20.7302 242.867 19.9624C242.808 19.9033 242.748 19.7852 242.748 19.7261C242.214 18.8402 241.62 17.9543 241.027 17.1275C240.789 16.7731 240.492 16.4188 240.255 16.0644C239.839 15.5329 239.423 15.0013 239.008 14.4698C238.592 13.9383 238.117 13.4067 237.642 12.9342C237.286 12.5799 236.989 12.2255 236.633 11.8712C236.099 11.3396 235.564 10.8671 235.03 10.3947C234.614 10.0403 234.199 9.62688 233.724 9.27252C233.308 8.91816 232.833 8.5638 232.417 8.20944C231.705 7.6779 230.992 7.14636 230.221 6.67388C230.102 6.55576 229.924 6.4967 229.805 6.37858C228.974 5.84704 228.083 5.3155 227.193 4.84302C226.658 4.54772 226.183 4.31148 225.649 4.07524C225.293 3.89806 224.936 3.72088 224.58 3.5437V43.7635L229.805 46.7756L240.611 52.9769C240.552 53.1541 240.492 53.3313 240.373 53.5084C240.314 53.5675 240.314 53.6856 240.255 53.7447C239.898 54.5715 239.542 55.3393 239.186 56.1071C238.948 56.6386 238.652 57.1702 238.355 57.6426C238.177 57.997 237.939 58.3514 237.761 58.7057C237.761 58.7648 237.702 58.8238 237.702 58.8238C237.167 59.6507 236.633 60.4775 236.039 61.3044C235.742 61.7178 235.445 62.1312 235.089 62.4856C234.674 62.958 234.317 63.4305 233.842 63.903C233.367 64.3755 232.892 64.907 232.417 65.3795C232.002 65.7929 231.586 66.1473 231.171 66.5016C230.696 66.9151 230.28 67.2694 229.805 67.6828V52.8588L224.58 49.8467V77.5459C224.936 77.3687 225.293 77.1915 225.649 77.0143C226.183 76.7781 226.658 76.4828 227.193 76.2465C228.083 75.7741 228.974 75.2425 229.805 74.711C229.924 74.5929 230.102 74.5338 230.221 74.4157C230.992 73.9432 231.705 73.4117 232.417 72.8801C232.892 72.5258 233.308 72.1714 233.724 71.817C234.139 71.4627 234.614 71.1083 235.03 70.6949C235.564 70.2224 236.099 69.6909 236.633 69.2184C236.989 68.864 237.345 68.5097 237.642 68.1553C238.117 67.6828 238.592 67.1513 239.008 66.6198C239.423 66.0882 239.839 65.6157 240.255 65.0251C240.492 64.6708 240.789 64.3164 241.027 63.9621C241.62 63.1352 242.214 62.2493 242.748 61.3634C242.808 61.3044 242.867 61.1862 242.867 61.1272C242.986 60.95 243.105 60.7138 243.223 60.5366C243.58 59.946 243.876 59.3554 244.173 58.7648C244.589 57.9379 245.005 57.052 245.361 56.1661C245.42 56.048 245.42 55.989 245.48 55.8708V55.8118C245.776 55.044 246.073 54.2762 246.311 53.5084C246.608 52.6816 246.845 51.7957 247.083 50.9098C247.083 50.8507 247.083 50.7917 247.142 50.7326L246.43 50.3192L241.205 47.3071L229.746 40.6924V13.3477C230.221 13.702 230.696 14.1154 231.111 14.5289C231.527 14.8832 231.942 15.2966 232.358 15.651C232.833 16.1235 233.308 16.596 233.783 17.1275C234.199 17.6 234.614 18.0725 235.03 18.5449C235.327 18.9584 235.683 19.3127 235.98 19.7261C236.574 20.553 237.167 21.3208 237.642 22.2067C237.642 22.2657 237.702 22.3248 237.702 22.3248C238.236 23.1516 238.711 24.0375 239.186 24.9234C239.602 25.6912 239.958 26.459 240.255 27.2858C240.314 27.3449 240.314 27.463 240.373 27.5221C240.73 28.3489 241.027 29.2348 241.323 30.1207C241.62 30.9475 241.798 31.8334 242.036 32.7193C242.214 33.6052 242.392 34.4321 242.511 35.318C242.63 36.2039 242.748 37.0307 242.808 37.9166C242.867 38.8025 242.927 39.6293 242.927 40.5152C242.927 41.1058 242.927 41.6964 242.867 42.287L248.27 45.3582C248.33 44.5904 248.448 43.8817 248.448 43.1139C248.508 42.228 248.508 41.4011 248.508 40.5152C248.508 39.7475 248.448 38.8616 248.389 37.9757Z" fill="white"/>
<defs>
<linearGradient id="paint0_linear_24_19734" x1="184.76" y1="79.1199" x2="230.03" y2="1.63723" gradientUnits="userSpaceOnUse">
<stop/>
<stop offset="0.9971" stop-color="#424447"/>
</linearGradient>
<linearGradient id="paint1_linear_24_19734" x1="200.618" y1="88.3835" x2="245.888" y2="10.9009" gradientUnits="userSpaceOnUse">
<stop/>
<stop offset="0.9971" stop-color="#424447"/>
</linearGradient>
</defs>
</svg>
