<svg width="135" height="31" viewBox="0 0 135 31" fill="none" xmlns="http://www.w3.org/2000/svg">
<path d="M4.73971 25.2247C4.73606 25.5098 4.68072 25.792 4.57627 26.058C4.47365 26.2943 4.32986 26.5112 4.15133 26.6991C3.90931 26.9284 3.61932 27.1034 3.30145 27.2119C2.91447 27.3509 2.50397 27.4162 2.09201 27.4042H1.20944V29.8721H0.294189V23.2375H2.1247C2.47592 23.2315 2.82675 23.2637 3.1707 23.3337C3.44154 23.3874 3.69774 23.4966 3.92252 23.6542C4.17349 23.7985 4.37753 24.0097 4.5109 24.2632C4.67734 24.5564 4.75661 24.8895 4.73971 25.2247ZM3.79177 25.2568C3.79854 25.0464 3.7537 24.8376 3.66102 24.6478C3.5804 24.4804 3.45642 24.3368 3.30145 24.2311C3.14395 24.1533 2.9799 24.089 2.81114 24.0388L2.09201 23.9747H1.20944V26.635H1.96126C2.25852 26.642 2.5554 26.6097 2.84383 26.5388C3.05071 26.4897 3.24175 26.3905 3.39952 26.2504C3.53507 26.1279 3.63635 25.9734 3.69371 25.8016C3.76042 25.6275 3.79367 25.4428 3.79177 25.2568Z" fill="#65656B"/>
<path d="M11.8982 29.8714H10.9176L10.2638 28.0125H7.35462L6.66818 29.8714H5.75293L8.23719 23.2368H9.41395L11.8982 29.8714ZM10.0023 27.2432L8.79288 24.006L7.61612 27.2432H10.0023Z" fill="#65656B"/>
<path d="M17.3902 26.6667C17.5545 26.7899 17.6794 26.9568 17.7497 27.1475C17.8609 27.3778 17.9169 27.63 17.9132 27.8847C17.9174 28.1842 17.8502 28.4805 17.717 28.7501C17.5596 28.9855 17.3729 29.2008 17.1613 29.3911C16.9049 29.6032 16.6033 29.7565 16.2788 29.8398C15.918 29.9448 15.5437 29.9988 15.1674 30.0001C14.7504 29.9924 14.3348 29.9495 13.9253 29.8719L13.01 29.6155V28.6219H13.0754C13.3954 28.7991 13.7355 28.9389 14.0887 29.0385C14.4354 29.1589 14.7996 29.2238 15.1674 29.2308L15.8865 29.1347C16.1127 29.0847 16.3249 28.9862 16.5076 28.8462C16.6639 28.7285 16.7875 28.5743 16.8672 28.3975C16.9339 28.2234 16.9671 28.0387 16.9652 27.8526C16.9845 27.6516 16.9387 27.4498 16.8345 27.2757C16.7504 27.1193 16.6266 26.9868 16.4749 26.8911L15.9192 26.6988L15.1674 26.6347H14.2521V25.8975H15.0693C15.5131 25.9164 15.9537 25.8167 16.3442 25.6091C16.4894 25.5311 16.6094 25.4145 16.6903 25.2729C16.7712 25.1312 16.8099 24.97 16.8018 24.8078C16.8041 24.6529 16.7705 24.4995 16.7037 24.3591C16.6203 24.2383 16.5081 24.1393 16.3768 24.0706L15.9192 23.9103H15.2981L14.6444 23.9744L14.0887 24.1347L13.6311 24.327L13.3042 24.4873H13.2388V23.5257C13.5337 23.4084 13.8405 23.3224 14.1541 23.2693C14.5283 23.1792 14.9128 23.1361 15.2981 23.1411C15.6169 23.1362 15.9351 23.1685 16.2461 23.2373C16.5113 23.274 16.7667 23.3611 16.9979 23.4937C17.2218 23.6329 17.4116 23.819 17.5536 24.0385C17.6644 24.2575 17.7205 24.4992 17.717 24.7437C17.7276 25.0976 17.5988 25.4419 17.3575 25.7052C17.0979 25.9614 16.769 26.1393 16.4095 26.218V26.2821C16.5896 26.2978 16.7661 26.3411 16.9325 26.4103C17.1005 26.466 17.2559 26.5531 17.3902 26.6667Z" fill="#65656B"/>
<path d="M24.3525 25.2243C24.3489 25.5094 24.2935 25.7916 24.1891 26.0576C24.099 26.3002 23.9536 26.5194 23.7641 26.6987C23.5343 26.9274 23.255 27.1026 22.947 27.2115C22.5594 27.3483 22.1493 27.4135 21.7375 27.4038H20.8223V29.8717H19.9397V23.2371H21.7702C22.1106 23.2307 22.4507 23.263 22.7835 23.3333C23.0563 23.3808 23.3139 23.4906 23.5353 23.6538C23.7881 23.8063 24.0008 24.0149 24.1564 24.2628C24.2965 24.5642 24.3637 24.8932 24.3525 25.2243ZM23.4046 25.2564C23.4067 25.0494 23.3736 24.8436 23.3065 24.6474C23.2026 24.4863 23.0697 24.3451 22.9143 24.2307C22.762 24.142 22.5966 24.0771 22.424 24.0384L21.7048 23.9743H20.8223V26.6346H21.5741C21.8714 26.6437 22.1686 26.6113 22.4566 26.5384C22.6635 26.4893 22.8546 26.3901 23.0123 26.2499C23.1455 26.1188 23.2559 25.9673 23.3392 25.8012C23.3948 25.6251 23.417 25.4404 23.4046 25.2564Z" fill="#65656B"/>
<path d="M31.5113 29.8714H30.5633L29.8769 28.0125H26.9677L26.3139 29.8714H25.3987L27.8503 23.2368H29.0597L31.5113 29.8714ZM29.6154 27.2432L28.4386 24.006L27.2292 27.2432H29.6154Z" fill="#65656B"/>
<path d="M38.2773 27.8202C38.2815 28.1197 38.2143 28.416 38.0811 28.6855C37.9757 28.9365 37.807 29.157 37.5908 29.3266C37.344 29.5091 37.0678 29.6499 36.7736 29.7432C36.4011 29.8428 36.0153 29.8861 35.6296 29.8714H33.178V23.2368H37.7216V24.006H34.0932V25.833H35.6622L36.7736 25.8971C37.0815 25.9647 37.3713 26.0958 37.6235 26.2817C37.8481 26.443 38.0187 26.6661 38.1138 26.9227C38.2363 27.2061 38.2921 27.5128 38.2773 27.8202ZM37.362 27.8202C37.3569 27.6214 37.3124 27.4254 37.2313 27.2432C37.1584 27.0711 37.0328 26.9255 36.8717 26.8266C36.7002 26.7293 36.5118 26.6641 36.316 26.6343H34.0932V29.1343H36.2833C36.4885 29.0846 36.6862 29.0092 36.8717 28.9099C37.0267 28.8042 37.1506 28.6606 37.2313 28.4932C37.3248 28.281 37.3695 28.0512 37.362 27.8202Z" fill="#65656B"/>
<path d="M45.2402 23.9746C45.5335 24.3012 45.756 24.6828 45.894 25.0964C46.0321 25.5649 46.0982 26.0511 46.0901 26.5387C46.1042 27.0396 46.0267 27.5389 45.8613 28.0131C45.742 28.4181 45.5295 28.7909 45.2402 29.1028C44.97 29.3976 44.6346 29.6279 44.2596 29.7759C43.8435 29.9359 43.3988 30.0122 42.9521 30.0003C42.5055 30.0096 42.0614 29.9334 41.6446 29.7759C41.2696 29.6279 40.9341 29.3976 40.6639 29.1028C40.3816 28.7861 40.17 28.4149 40.0429 28.0131C39.8747 27.5396 39.7971 27.0398 39.8141 26.5387C39.7996 26.0483 39.8772 25.5594 40.0429 25.0964C40.1772 24.688 40.3878 24.3076 40.6639 23.9746C40.9271 23.6795 41.2655 23.4583 41.6446 23.3336C42.0603 23.1689 42.5037 23.082 42.9521 23.0772C43.4011 23.0754 43.8458 23.1627 44.2596 23.3336C44.6325 23.4703 44.9681 23.6897 45.2402 23.9746ZM45.1748 26.5387C45.2213 25.8293 45.0132 25.1263 44.5865 24.5515C44.3887 24.3175 44.138 24.132 43.8543 24.0096C43.5706 23.8872 43.2616 23.8313 42.9521 23.8464C42.6472 23.8313 42.3431 23.8873 42.0646 24.0099C41.7862 24.1325 41.5414 24.3181 41.3504 24.5515C40.9237 25.1263 40.7155 25.8293 40.762 26.5387C40.7133 27.2583 40.9213 27.9722 41.3504 28.5579C41.5495 28.7799 41.7966 28.9555 42.0737 29.0719C42.3508 29.1883 42.6508 29.2427 42.9521 29.231C43.2536 29.245 43.5544 29.1917 43.8319 29.0751C44.1093 28.9585 44.3562 28.7817 44.5538 28.5579C44.9787 28.0772 45.1748 27.4362 45.1748 26.5387Z" fill="#65656B"/>
<path d="M52.9872 24.006H50.5683V29.8714H49.6857V24.006H47.2668V23.2368H52.9872V24.006Z" fill="#65656B"/>
<path d="M59.9821 29.8718H58.838L56.0595 26.8269H55.4712V29.8718H54.5559V23.2372H55.4712V26.218L55.8961 26.1539L56.2884 26.0257L56.6479 25.7051C56.7824 25.5818 56.8835 25.4276 56.9421 25.2564C57.0031 25.1529 57.0577 25.0459 57.1055 24.9359L57.269 24.5513C57.4127 24.1534 57.6607 23.7997 57.9881 23.5257C58.3638 23.3107 58.7962 23.2103 59.2302 23.2372H59.5898V24.0064H59.2302L58.7072 24.0705L58.4131 24.2628C58.3046 24.3437 58.2246 24.4557 58.1842 24.5833C58.1071 24.7277 58.0415 24.8777 57.9881 25.0321C57.8678 25.3421 57.7027 25.6335 57.4978 25.8974C57.3154 26.0996 57.093 26.2632 56.844 26.3782L59.9821 29.8718Z" fill="#65656B"/>
<path d="M66.9775 29.8714H65.9969L65.3432 28.0125H62.4013L61.7475 29.8714H60.8323L63.3165 23.2368H64.4933L66.9775 29.8714ZM65.0817 27.2432L63.8722 24.006L62.6955 27.2432H65.0817Z" fill="#65656B"/>
<path d="M80.4112 23.2368L78.6461 29.8714H77.6328L76.2272 24.3586L74.8217 29.8714H73.841L72.0432 23.2368H72.9585L74.3967 28.7496L75.8023 23.2368H76.7175L78.1231 28.8137L79.5287 23.2368H80.4112Z" fill="#65656B"/>
<path d="M86.8515 29.8714H82.3733V23.2368H86.8515V24.006H83.2885V25.833H86.8515V26.6022H83.2885V29.0702H86.8515V29.8714Z" fill="#65656B"/>
<path d="M94.0097 27.8202C94.0177 28.12 93.9504 28.4172 93.8135 28.6855C93.6962 28.9296 93.5294 29.1478 93.3232 29.3266C93.0645 29.5092 92.7776 29.6499 92.4733 29.7432C92.0901 29.8446 91.6932 29.8878 91.2966 29.8714H88.9104V23.2368H92.0157C92.2651 23.2776 92.5073 23.3531 92.7349 23.4612C92.9623 23.5706 93.1462 23.751 93.2578 23.974C93.3839 24.1874 93.4409 24.4333 93.4213 24.6791C93.4355 24.9635 93.3553 25.2447 93.1925 25.4804C93.0226 25.7111 92.7983 25.8981 92.5387 26.0253C92.9528 26.0971 93.3316 26.2997 93.6174 26.6022C93.896 26.9473 94.0356 27.3807 94.0097 27.8202ZM92.506 24.8394C92.5081 24.6948 92.4744 24.5518 92.408 24.4227C92.3583 24.3071 92.2644 24.215 92.1465 24.1663C91.9885 24.0709 91.8087 24.0158 91.6235 24.006H89.793V25.9291H91.6562C91.8194 25.8929 91.9745 25.8277 92.1138 25.7368C92.2459 25.6511 92.3485 25.5282 92.408 25.3843C92.4894 25.2144 92.5232 25.0263 92.506 24.8394ZM93.0617 27.8522C93.069 27.6345 93.0358 27.4172 92.9637 27.2112C92.8598 27.036 92.6985 26.9004 92.506 26.8266L91.983 26.6663H89.793V29.1343H91.0024C91.3307 29.1496 91.6597 29.1281 91.983 29.0702C92.1915 29.0509 92.3928 28.9851 92.5714 28.8778C92.7346 28.7721 92.8692 28.6291 92.9637 28.4612C93.044 28.2684 93.0775 28.0599 93.0617 27.8522Z" fill="#65656B"/>
<path d="M98.5863 27.3716H95.7424V26.5703H98.5863V27.3716Z" fill="#65656B"/>
<path d="M106.071 29.3912L105.614 29.5835L105.091 29.7758L104.47 29.9361L103.751 30.0002C103.293 30.0096 102.839 29.9335 102.41 29.7758C102.016 29.6437 101.658 29.4244 101.364 29.1348C101.066 28.8305 100.833 28.4709 100.678 28.0771C100.513 27.5808 100.436 27.0605 100.449 26.5386C100.435 26.0482 100.512 25.5593 100.678 25.0963C100.82 24.6867 101.054 24.3141 101.364 24.0066C101.665 23.7176 102.02 23.489 102.41 23.3335C102.849 23.1733 103.315 23.0972 103.783 23.1091C104.147 23.1042 104.51 23.1473 104.862 23.2373C105.28 23.3461 105.685 23.4965 106.071 23.6861V24.7437H106.006C105.678 24.458 105.302 24.2303 104.895 24.0707C104.519 23.9288 104.121 23.8528 103.718 23.8463C103.391 23.8414 103.068 23.907 102.77 24.0386C102.498 24.1459 102.252 24.31 102.051 24.5194C101.836 24.7769 101.67 25.0699 101.561 25.3848C101.435 25.7565 101.38 26.1475 101.397 26.5386C101.385 26.953 101.451 27.3661 101.593 27.7566C101.702 28.0619 101.869 28.3445 102.084 28.5899C102.285 28.8145 102.545 28.9808 102.835 29.0707C103.117 29.1762 103.416 29.2305 103.718 29.2309C104.133 29.2406 104.545 29.1641 104.927 29.0066C105.322 28.8557 105.687 28.6388 106.006 28.3655H106.071V29.3912Z" fill="#65656B"/>
<path d="M113.328 29.8714H112.348L111.694 28.0125H108.752L108.098 29.8714H107.183L109.634 23.2368H110.844L113.328 29.8714ZM111.4 27.2432L110.223 24.006L109.046 27.2432H111.4Z" fill="#65656B"/>
<path d="M120.159 29.8718H119.244V24.5513L115.877 29.8718H114.962V23.2372H115.877V28.4615L119.212 23.2372H120.159V29.8718ZM119.31 21.25C119.323 21.4538 119.288 21.6578 119.209 21.8466C119.13 22.0354 119.008 22.204 118.852 22.3397C118.497 22.6078 118.057 22.744 117.61 22.7244C117.172 22.7449 116.742 22.6081 116.4 22.3397C116.244 22.2028 116.12 22.0348 116.035 21.8468C115.951 21.6589 115.908 21.4554 115.91 21.25H116.76C116.747 21.3766 116.76 21.5046 116.8 21.6259C116.839 21.7471 116.903 21.8592 116.989 21.9551C117.069 22.0346 117.167 22.0959 117.274 22.1347C117.381 22.1734 117.496 22.1887 117.61 22.1795C117.729 22.1936 117.85 22.1808 117.963 22.1419C118.077 22.103 118.179 22.0391 118.264 21.9551C118.351 21.8603 118.416 21.7484 118.456 21.6268C118.495 21.5052 118.508 21.3767 118.492 21.25H119.31Z" fill="#65656B"/>
<path d="M127.417 24.006H124.998V29.8714H124.115V24.006H121.697V23.2368H127.417V24.006Z" fill="#65656B"/>
<path d="M134.313 29.8714H133.366L132.679 28.0125H129.77L129.083 29.8714H128.168L130.652 23.2368H131.862L134.313 29.8714ZM132.418 27.2432L131.241 24.006L130.031 27.2432H132.418Z" fill="#65656B"/>
<path d="M8.62954 9.51899H3.36683V13.878H9.61017V16.6344H0V0.224121H9.57748V2.98053H3.36683V6.85874H8.62954V9.51899Z" fill="#65656B"/>
<path d="M23.2412 16.6344H19.8744L14.9386 5.86515V16.6344H11.5391V0.224121H14.9386L19.8744 10.9934V0.224121H23.2412V16.6344Z" fill="#65656B"/>
<path d="M31.4781 0.224121H34.845V11.5703C34.845 13.1728 34.3873 14.4549 33.4721 15.4164C33.0359 15.889 32.5 16.2628 31.9017 16.5119C31.3033 16.761 30.6569 16.8793 30.0072 16.8587C28.4709 16.8587 27.2614 16.41 26.4115 15.5126C25.5617 14.6152 25.1367 13.3651 25.1367 11.7946H28.5362C28.5362 13.3331 29.0266 14.1023 30.0072 14.1023C30.9878 14.1023 31.4781 13.2049 31.4781 11.41V0.224121Z" fill="#65656B"/>
<path d="M49.26 9.90385C49.26 12.1154 48.737 13.8141 47.691 15.0321C46.645 16.25 45.1413 16.859 43.2781 16.859C41.4149 16.859 39.9113 16.25 38.8326 15.0641C37.7539 13.8782 37.2309 12.1474 37.1982 9.96795V7.17949C37.1982 4.9359 37.7539 3.17308 38.7999 1.89103C39.8459 0.608974 41.3496 0 43.2455 0C45.1413 0 46.5796 0.608974 47.6583 1.85897C48.737 3.10897 49.26 4.83974 49.26 7.08333V9.90385ZM45.8932 7.14744C45.8932 5.67308 45.6643 4.58333 45.2394 3.84615C45.0304 3.51332 44.7387 3.23798 44.3915 3.04595C44.0443 2.85392 43.6531 2.75151 43.2545 2.7483C42.8559 2.7451 42.463 2.84121 42.1127 3.02763C41.7623 3.21405 41.466 3.48467 41.2515 3.8141C40.8266 4.51923 40.5978 5.57692 40.5978 6.98718V9.90385C40.5978 11.3462 40.7939 12.4038 41.2515 13.0769C41.4633 13.4114 41.7636 13.6834 42.1204 13.864C42.4773 14.0446 42.8774 14.1271 43.2781 14.1026C43.6655 14.1221 44.0512 14.0404 44.3958 13.8658C44.7404 13.6912 45.0315 13.43 45.2394 13.109C45.6643 12.4359 45.8932 11.4103 45.8932 10V7.14744Z" fill="#65656B"/>
<path d="M56.2556 7.59592L58.7725 0.224121H62.4336L57.9553 10.6728V16.6344H54.5558V10.6728L50.0449 0.224121H53.7386L56.2556 7.59592Z" fill="#65656B"/>
<path d="M80.5748 2.98053H76.4235V16.6344H73.024V2.98053H68.9707V0.224121H80.5748V2.98053Z" fill="#65656B"/>
<path d="M93.9772 9.90385C93.9772 12.1154 93.4215 13.8141 92.3755 15.0321C91.3295 16.25 89.8259 16.859 87.9627 16.859C86.0995 16.859 84.5959 16.25 83.5172 15.0641C82.4385 13.8782 81.9155 12.1474 81.8828 9.96795V7.17949C81.8828 4.9359 82.4385 3.17308 83.4845 1.89103C84.5305 0.608974 86.0341 0 87.93 0C89.8259 0 91.2642 0.608974 92.3429 1.85897C93.4215 3.10897 93.9445 4.83974 93.9772 7.08333V9.90385ZM90.5777 7.14744C90.5777 5.67308 90.3489 4.58333 89.924 3.84615C89.715 3.51332 89.4233 3.23798 89.0761 3.04595C88.7289 2.85392 88.3377 2.75151 87.9391 2.7483C87.5405 2.7451 87.1476 2.84121 86.7972 3.02763C86.4469 3.21405 86.1506 3.48467 85.9361 3.8141C85.5111 4.51923 85.2823 5.57692 85.2823 6.98718V9.90385C85.2823 11.3462 85.4784 12.4038 85.9361 13.0769C86.1479 13.4114 86.4482 13.6834 86.805 13.864C87.1619 14.0446 87.5619 14.1271 87.9627 14.1026C88.3501 14.1221 88.7358 14.0404 89.0804 13.8658C89.4249 13.6912 89.7161 13.43 89.924 13.109C90.3489 12.4359 90.5777 11.4103 90.5777 10V7.14744Z" fill="#65656B"/>
<path d="M107.28 0.224121V11.5703C107.248 13.301 106.79 14.5831 105.842 15.5126C104.894 16.4421 103.554 16.8587 101.789 16.8587C100.024 16.8587 98.6182 16.41 97.6702 15.4805C96.7223 14.551 96.2646 13.2369 96.2646 11.5062V0.224121H99.6642V11.5062C99.6642 12.4357 99.7949 13.1087 100.122 13.5254C100.449 13.9421 100.972 14.1023 101.789 14.1023C102.606 14.1023 103.129 13.91 103.423 13.5254C103.717 13.1408 103.881 12.4677 103.881 11.5703V0.224121H107.28Z" fill="#65656B"/>
<path d="M121.173 11.1538C121.107 13.0449 120.552 14.4551 119.571 15.4167C118.59 16.3782 117.185 16.859 115.387 16.859C113.589 16.859 112.053 16.25 111.04 15.0321C110.026 13.8141 109.536 12.0513 109.536 9.80769V7.05128C109.536 4.77564 110.059 3.04487 111.072 1.82692C112.086 0.608974 113.589 0 115.42 0C117.25 0 118.623 0.51282 119.571 1.50641C120.519 2.5 121.075 3.94231 121.205 5.80128H117.806C117.773 4.64744 117.61 3.84615 117.25 3.39744C116.891 2.94872 116.302 2.75641 115.42 2.75641C114.537 2.75641 113.883 3.04487 113.524 3.6859C113.164 4.32692 112.935 5.32051 112.903 6.73077V9.83974C112.903 11.4744 113.099 12.5962 113.458 13.2051C113.818 13.8141 114.472 14.1026 115.387 14.1026C116.302 14.1026 116.891 13.9103 117.217 13.4615C117.544 13.0128 117.74 12.2756 117.806 11.1538H121.173Z" fill="#65656B"/>
<path d="M135 16.6344H131.633V9.61515H126.632V16.6344H123.265V0.224121H126.632V6.85874H131.633V0.224121H135V16.6344Z" fill="#65656B"/>
</svg>
