<svg width="268" height="61" viewBox="0 0 268 61" fill="none" xmlns="http://www.w3.org/2000/svg">
<path d="M15.7435 3.85948C15.0745 4.21438 14.4055 4.61366 13.7812 5.05729C13.1122 5.50093 12.4432 5.94457 11.8188 6.47693C11.5958 6.65438 11.3282 6.83184 11.1052 7.05366C10.6592 7.40857 10.2578 7.76348 9.85643 8.16275C9.54423 8.42893 9.27664 8.73948 8.96444 9.00566C8.60765 9.36057 8.25086 9.75984 7.89406 10.1591C7.62647 10.4253 7.40347 10.6915 7.18047 11.002C6.73448 11.5344 6.33309 12.0224 5.9317 12.5991C5.8425 12.7322 5.7533 12.8653 5.6641 12.954C5.21811 13.5751 4.77212 14.2406 4.37072 14.906C4.19233 15.0835 4.05853 15.3053 3.92473 15.5271C3.70174 15.9264 3.47874 16.37 3.25574 16.7693C2.94355 17.3904 2.63135 18.0558 2.36376 18.7213C2.22996 19.0762 2.09616 19.3867 1.96237 19.7417C1.82857 20.0522 1.73937 20.4071 1.60557 20.7177C1.38258 21.3387 1.20418 22.0042 1.02578 22.6697C0.847385 23.3351 0.713587 23.9562 0.57979 24.6217C0.445992 25.2871 0.356794 25.9082 0.267595 26.5737C0.178397 27.2391 0.133798 27.8602 0.0891984 28.5257C0 29.1911 0 29.8566 0 30.4777C0 31.1431 0 31.8086 0.0445992 32.4297C0.0891984 33.0951 0.133798 33.7606 0.222996 34.3817C0.356794 35.0471 0.445992 35.7126 0.57979 36.378C0.713587 37.0435 0.847385 37.7089 1.02578 38.33C1.20418 38.9955 1.38258 39.6609 1.60557 40.282C1.73937 40.5926 1.82857 40.9475 1.96237 41.258C2.09616 41.5686 2.22996 41.9235 2.36376 42.234C2.63135 42.8995 2.94355 43.5649 3.25574 44.186C3.47874 44.6297 3.70174 45.0289 3.92473 45.4282C4.05853 45.65 4.19233 45.9162 4.32612 46.138C4.72752 46.8035 5.17351 47.4689 5.6195 48.09C5.7087 48.2231 5.7979 48.3562 5.8871 48.4449C6.28849 48.9773 6.68988 49.5097 7.13587 50.042C7.35887 50.3082 7.62647 50.6188 7.84946 50.8849C8.20626 51.2842 8.56305 51.6391 8.91984 52.0384C9.23204 52.3489 9.49963 52.6151 9.81183 52.8813V46.6704C9.67803 46.4929 9.54423 46.3155 9.41043 46.138C8.91984 45.5169 8.47385 44.8515 8.07246 44.186C7.98326 44.0529 7.89406 43.9198 7.84946 43.7868C7.53727 43.2988 7.26967 42.7664 7.00208 42.234C6.68988 41.6129 6.37769 40.9475 6.11009 40.282C6.02089 40.1046 5.97629 39.8828 5.8871 39.7053C5.7087 39.2617 5.5749 38.818 5.39651 38.33C5.17351 37.7089 5.03971 37.0435 4.86131 36.378C4.81672 36.2006 4.77212 36.0231 4.72752 35.8457L13.7366 30.6995V55.9868C14.3609 56.386 15.0299 56.7853 15.6989 57.1846C16.1895 57.4508 16.6801 57.7169 17.1707 57.9388H17.6613V2.83911C17.4829 2.92784 17.3045 3.01657 17.1707 3.06093C16.7247 3.32711 16.2341 3.59329 15.7435 3.85948ZM4.28153 31.5868C4.28153 31.2318 4.23693 30.8326 4.23693 30.4777C4.23693 29.8122 4.28152 29.1468 4.32612 28.5257C4.37072 27.8602 4.45992 27.1947 4.54912 26.5737C4.63832 25.9082 4.77212 25.2428 4.90591 24.6217C5.03971 23.9562 5.21811 23.2907 5.4411 22.6697C5.5749 22.226 5.7533 21.738 5.9317 21.2944C6.02089 21.1169 6.06549 20.8951 6.15469 20.7177C6.42229 20.0522 6.73448 19.3867 7.04668 18.7657C7.31427 18.2333 7.58187 17.7009 7.89406 17.2129C7.98326 17.0798 8.07246 16.9468 8.11706 16.8137C8.51845 16.1482 8.96444 15.4827 9.45503 14.8617C9.58883 14.6842 9.72263 14.5067 9.85643 14.3293C10.2578 13.8413 10.6592 13.3533 11.0606 12.9097C11.2836 12.6435 11.5512 12.3773 11.8188 12.1111C12.2202 11.7118 12.6216 11.3126 13.0676 10.9577C13.2906 10.7358 13.5582 10.514 13.8258 10.3366V26.1744L4.28153 31.5868Z" fill="white"/>
<path d="M37.3741 0.753938C36.7052 0.620847 36.0808 0.487756 35.4118 0.399029C34.7874 0.265938 34.1184 0.17721 33.4494 0.132847C32.7804 0.0884831 32.156 0.0441195 31.487 -0.000244141C31.2194 -0.000244141 30.9518 -0.000244141 30.6397 -0.000244141C30.2383 -0.000244141 29.8815 -0.000244141 29.5247 -0.000244141C28.8557 0.0441195 28.1867 0.0884831 27.5623 0.132847C26.8933 0.17721 26.2243 0.265938 25.5999 0.399029C24.931 0.487756 24.262 0.620847 23.6376 0.798301C23.1916 0.887029 22.7902 1.02012 22.3442 1.10885C22.1212 1.15321 21.8536 1.24194 21.6306 1.33066V59.6245C21.8536 59.7132 22.1212 59.7576 22.3442 59.8463C22.7456 59.9794 23.1916 60.0681 23.593 60.1569C24.262 60.2899 24.8864 60.423 25.5553 60.5561C26.2243 60.6449 26.8487 60.7336 27.5177 60.8223C28.1867 60.8667 28.8111 60.911 29.4801 60.9554C29.8369 60.9554 30.2383 60.9554 30.5951 60.9554C30.8627 60.9554 31.1302 60.9554 31.4424 60.9554C32.1114 60.9554 32.7804 60.911 33.4048 60.8223C34.0738 60.7779 34.7428 60.6892 35.3672 60.6005C36.0362 60.5118 36.7051 60.3787 37.3295 60.2456C37.8647 60.1125 38.3553 59.9794 38.8905 59.8463C39.0243 59.8019 39.1581 59.7576 39.2919 59.7132V39.7052V35.1801L35.3672 32.9176L29.4801 29.5016V34.0267L35.3672 37.4427V56.3416C34.6982 56.4747 34.0738 56.5634 33.4048 56.6078C32.7358 56.6965 32.1114 56.7409 31.4424 56.7409C31.1748 56.7409 30.9073 56.7409 30.5951 56.7409C30.1937 56.7409 29.8369 56.7409 29.4801 56.6965C28.8111 56.6521 28.1421 56.6078 27.5177 56.519C26.8487 56.4303 26.1797 56.3416 25.5553 56.2085V4.7023C26.2243 4.56921 26.8487 4.48048 27.5177 4.39176C28.1867 4.30303 28.8111 4.25867 29.4801 4.2143C29.8369 4.2143 30.2383 4.16994 30.5951 4.16994C30.8627 4.16994 31.1302 4.16994 31.4424 4.16994C32.1114 4.16994 32.7804 4.2143 33.4048 4.30303C34.0738 4.39176 34.7428 4.48048 35.3672 4.56921V28.3481L39.2919 30.6107V1.24194C39.1581 1.19757 39.0243 1.15321 38.8905 1.10885C38.4445 0.975756 37.9093 0.842665 37.3741 0.753938Z" fill="white"/>
<path d="M61.2348 28.5259C61.1902 27.8604 61.1456 27.195 61.0564 26.5739H61.0118V26.1746C60.9226 25.6422 60.8334 25.1099 60.7442 24.6219C60.6104 23.9564 60.4766 23.291 60.2982 22.6699C60.1198 22.0044 59.9414 21.339 59.7184 20.7179C59.4954 20.1411 59.317 19.52 59.0494 18.9433C59.0048 18.8546 59.0049 18.8102 58.9603 18.7215C58.6927 18.056 58.3805 17.3906 58.0683 16.7695C57.7561 16.1484 57.4439 15.5717 57.0871 14.995C57.0425 14.9506 56.9979 14.8619 56.9979 14.8175C56.5965 14.152 56.1505 13.4866 55.7045 12.8655C55.5261 12.5993 55.3031 12.3331 55.1247 12.067C54.8125 11.6677 54.5003 11.2684 54.1881 10.8691C53.8759 10.4699 53.5191 10.0706 53.1624 9.71568C52.8948 9.4495 52.6718 9.18332 52.4042 8.91714C52.0028 8.51787 51.6014 8.16296 51.2 7.80805C50.8878 7.54187 50.5756 7.23132 50.2188 6.96514C49.9066 6.69896 49.5498 6.43277 49.2376 6.16659C48.7024 5.76732 48.1672 5.36805 47.5875 5.01314C47.4983 4.92441 47.3645 4.88005 47.2753 4.79132C46.6509 4.39205 45.9819 3.99277 45.3129 3.63787C44.9115 3.41605 44.5547 3.23859 44.1533 3.06114C43.8857 2.92805 43.6181 2.79496 43.3505 2.66187V32.8735L47.2753 35.136L55.3923 39.7942C55.3477 39.9273 55.3031 40.0604 55.2139 40.1935C55.1693 40.2379 55.1693 40.3266 55.1247 40.371C54.8571 40.9921 54.5895 41.5688 54.3219 42.1455C54.1435 42.5448 53.9205 42.944 53.6975 43.299C53.5637 43.5651 53.3854 43.8313 53.2516 44.0975C53.2516 44.1419 53.207 44.1862 53.207 44.1862C52.8056 44.8073 52.4042 45.4284 51.9582 46.0495C51.7352 46.3601 51.5122 46.6706 51.2446 46.9368C50.9324 47.2917 50.6648 47.6466 50.308 48.0015C49.9512 48.3564 49.5944 48.7557 49.2376 49.1106C48.9254 49.4211 48.6132 49.6873 48.301 49.9535C47.9442 50.264 47.6321 50.5302 47.2753 50.8408V39.7055L43.3505 37.443V58.2495C43.6181 58.1164 43.8857 57.9833 44.1533 57.8502C44.5547 57.6728 44.9115 57.451 45.3129 57.2735C45.9819 56.9186 46.6509 56.5193 47.2753 56.12C47.3645 56.0313 47.4983 55.987 47.5875 55.8982C48.1672 55.5433 48.7024 55.1441 49.2376 54.7448C49.5944 54.4786 49.9066 54.2124 50.2188 53.9462C50.531 53.68 50.8878 53.4139 51.2 53.1033C51.6014 52.7484 52.0028 52.3491 52.4042 51.9942C52.6718 51.7281 52.9394 51.4619 53.1624 51.1957C53.5191 50.8408 53.8759 50.4415 54.1881 50.0422C54.5003 49.643 54.8125 49.288 55.1247 48.8444C55.3031 48.5782 55.5261 48.312 55.7045 48.0459C56.1505 47.4248 56.5965 46.7593 56.9979 46.0939C57.0425 46.0495 57.0871 45.9608 57.0871 45.9164C57.1763 45.7833 57.2655 45.6059 57.3547 45.4728C57.6223 45.0291 57.8453 44.5855 58.0683 44.1419C58.3805 43.5208 58.6927 42.8553 58.9603 42.1899C59.0049 42.1011 59.0048 42.0568 59.0494 41.968V41.9237C59.2724 41.347 59.4954 40.7702 59.6738 40.1935C59.8968 39.5724 60.0752 38.907 60.2536 38.2415C60.2536 38.1971 60.2536 38.1528 60.2982 38.1084L59.763 37.7979L55.8383 35.5353L47.2307 30.5666V10.0262C47.5875 10.2924 47.9442 10.603 48.2564 10.9135C48.5686 11.1797 48.8808 11.4902 49.193 11.7564C49.5498 12.1113 49.9066 12.4662 50.2634 12.8655C50.5756 13.2204 50.8878 13.5753 51.2 13.9302C51.423 14.2408 51.6906 14.507 51.9136 14.8175C52.3596 15.4386 52.8056 16.0153 53.1624 16.6808C53.1624 16.7251 53.207 16.7695 53.207 16.7695C53.6083 17.3906 53.9651 18.056 54.3219 18.7215C54.6341 19.2982 54.9017 19.875 55.1247 20.496C55.1693 20.5404 55.1693 20.6291 55.2139 20.6735C55.4815 21.2946 55.7045 21.96 55.9275 22.6255C56.1505 23.2466 56.2843 23.912 56.4627 24.5775C56.5965 25.243 56.7303 25.864 56.8195 26.5295C56.9087 27.195 56.9979 27.816 57.0425 28.4815C57.0871 29.147 57.1317 29.768 57.1317 30.4335C57.1317 30.8771 57.1317 31.3208 57.0871 31.7644L61.1456 34.0713C61.1902 33.4946 61.2794 32.9622 61.2794 32.3855C61.324 31.72 61.324 31.099 61.324 30.4335C61.324 29.8568 61.2794 29.1913 61.2348 28.5259Z" fill="white"/>
<path d="M87.2361 15.6597L95.5761 39.7048H92.7218L90.358 32.8284H81.0368L80.9476 33.0946L78.673 39.7048H75.8187L84.1587 15.6597H87.2361ZM81.9288 30.1666H89.4214L85.6751 19.3418L81.9288 30.1666Z" fill="white"/>
<path d="M107.44 39.5717C106.904 39.6605 106.369 39.7048 105.789 39.7048C105.21 39.7048 104.674 39.6605 104.184 39.5717L104.005 39.5274C102.712 39.2612 101.686 38.6401 100.928 37.7085V47.6016H98.2521V23.6008H100.928V25.5528C101.686 24.6656 102.712 24.0445 103.961 23.7783L104.139 23.7339C104.674 23.6452 105.21 23.6008 105.789 23.6008C106.369 23.6008 106.904 23.6452 107.44 23.7339C107.529 23.7339 107.573 23.7339 107.618 23.7783C109.402 24.1332 110.829 25.0205 111.81 26.4401C112.836 27.8154 113.327 29.5899 113.327 31.675C113.327 33.8045 112.836 35.5346 111.81 36.9099C110.784 38.2852 109.357 39.1725 107.573 39.5717H107.44ZM105.834 37.043C107.395 37.043 108.599 36.5994 109.446 35.6677C110.294 34.7361 110.695 33.4052 110.695 31.675C110.695 29.9448 110.294 28.6139 109.446 27.6823C108.599 26.7506 107.395 26.307 105.834 26.307C104.273 26.307 103.069 26.7506 102.221 27.6823C101.374 28.6139 100.973 29.9448 100.973 31.675C100.973 33.4052 101.374 34.7361 102.221 35.6677C103.024 36.555 104.228 37.043 105.834 37.043Z" fill="white"/>
<path d="M125.235 39.5717C124.699 39.6605 124.164 39.7048 123.584 39.7048C123.005 39.7048 122.469 39.6605 121.979 39.5717L121.8 39.5274C120.507 39.2612 119.481 38.6401 118.723 37.7085V47.6016H116.047V23.6008H118.723V25.5528C119.481 24.6656 120.507 24.0445 121.756 23.7783L121.934 23.7339C122.469 23.6452 123.005 23.6008 123.584 23.6008C124.164 23.6008 124.699 23.6452 125.235 23.7339C125.324 23.7339 125.368 23.7339 125.413 23.7783C127.197 24.1332 128.624 25.0205 129.605 26.4401C130.631 27.8154 131.122 29.5899 131.122 31.675C131.122 33.8045 130.631 35.5346 129.605 36.9099C128.58 38.2852 127.152 39.1725 125.368 39.5717H125.235ZM123.629 37.043C125.19 37.043 126.394 36.5994 127.242 35.6677C128.089 34.7361 128.49 33.4052 128.49 31.675C128.49 29.9448 128.089 28.6139 127.242 27.6823C126.394 26.7506 125.19 26.307 123.629 26.307C122.068 26.307 120.864 26.7506 120.017 27.6823C119.169 28.6139 118.768 29.9448 118.768 31.675C118.768 33.4052 119.169 34.7361 120.017 35.6677C120.864 36.555 122.023 37.043 123.629 37.043Z" fill="white"/>
<path d="M153.51 39.7049H150.835V36.5107C149.095 38.6402 146.687 39.7049 143.699 39.7049C140.711 39.7049 138.347 38.6846 136.607 36.5995C134.868 34.5144 133.931 31.6751 133.887 28.0817V27.2388C133.976 23.6453 134.868 20.8504 136.697 18.7653C138.525 16.6802 140.934 15.6155 144.011 15.6155C146.018 15.6155 147.757 16.0591 149.274 16.9908C150.79 17.9224 151.95 19.2533 152.797 21.0278L150.344 22.0926C149.095 19.5638 146.999 18.3217 144.011 18.3217C141.692 18.3217 139.908 19.1202 138.614 20.6729C137.321 22.2257 136.652 24.3995 136.563 27.2831V28.126C136.607 30.9653 137.276 33.1835 138.525 34.7362C139.774 36.2889 141.469 37.0431 143.699 37.0431C145.706 37.0431 147.311 36.3777 148.56 35.0467C149.764 33.7158 150.522 31.8526 150.745 29.4569C150.745 29.2795 150.79 29.102 150.79 29.0133H145.616V26.3515H153.51V39.7049Z" fill="white"/>
<path d="M158.907 39.7048H156.231V23.6008H158.907V25.5528C159.665 24.6656 160.691 24.0445 161.94 23.7783L162.118 23.7339C162.519 23.6452 162.921 23.6008 163.367 23.6008V26.2626C161.984 26.3514 160.914 26.795 160.156 27.6379C159.398 28.4808 158.996 29.6786 158.907 31.187V39.7048Z" fill="white"/>
<path d="M181.117 32.7399H168.763C168.808 32.9617 168.808 33.1392 168.853 33.2279C169.076 34.2926 169.477 35.1356 170.146 35.7566C170.993 36.5996 172.198 36.9988 173.759 36.9988C174.784 36.9988 175.676 36.8214 176.479 36.4665C177.282 36.1115 177.862 35.6236 178.263 34.9581L180.671 36.1116C180.047 37.2206 179.11 38.1079 177.862 38.729C176.657 39.3501 175.275 39.6606 173.714 39.6606C171.395 39.6606 169.522 38.9508 168.139 37.4868C166.756 36.0672 166.043 34.1152 165.998 31.7196V31.5865C165.998 29.1465 166.667 27.1945 168.05 25.7305C169.432 24.2665 171.261 23.5566 173.536 23.5566C175.543 23.5566 177.193 24.1334 178.531 25.2425C179.824 26.3516 180.671 27.9043 180.984 29.9006C181.073 30.433 181.117 30.9654 181.117 31.4977V32.7399ZM178.308 30.2555C178.308 30.1225 178.308 29.9894 178.263 29.8563L178.218 29.7232C177.639 27.3719 176.122 26.2185 173.58 26.2185C172.153 26.2185 171.038 26.6177 170.191 27.3719C169.566 27.9486 169.165 28.7472 168.897 29.7232C168.853 29.8563 168.853 30.0337 168.808 30.2112H178.308V30.2555Z" fill="white"/>
<path d="M189.725 39.5717L189.547 39.5274C187.763 39.1725 186.335 38.2852 185.354 36.8656C184.373 35.4459 183.838 33.7157 183.838 31.6306C183.838 29.5012 184.328 27.771 185.354 26.3957C186.38 25.0205 187.807 24.1332 189.591 23.7783L189.77 23.7339C190.305 23.6452 190.84 23.6008 191.375 23.6008C191.955 23.6008 192.49 23.6452 193.025 23.7339L193.159 23.7783C194.408 24.0445 195.434 24.6212 196.236 25.5528V23.6008H198.912V39.7048H196.236V37.7085C195.478 38.6401 194.453 39.2168 193.204 39.483L193.025 39.5274C192.49 39.6161 191.955 39.6605 191.375 39.6605C190.795 39.7048 190.26 39.6605 189.725 39.5717ZM186.514 31.6306C186.514 33.3608 186.915 34.6917 187.763 35.6234C188.61 36.555 189.814 36.9986 191.375 36.9986C192.936 36.9986 194.14 36.555 194.988 35.6234C195.835 34.6917 196.236 33.3608 196.236 31.6306V31.5863C196.236 29.8561 195.835 28.5252 194.988 27.5936C194.14 26.6619 192.936 26.2183 191.375 26.2183C189.814 26.2183 188.61 26.6619 187.763 27.5936C186.915 28.5696 186.514 29.9005 186.514 31.6306Z" fill="white"/>
<path d="M204.086 26.5732L201.633 26.307V23.6452L204.086 23.9114V18.1885H206.762V23.9114L209.215 23.6452V26.307L206.762 26.5732V33.0947V33.4939V34.7805C206.762 36.2445 207.431 36.9987 208.724 36.9987H209.215V39.6605H208.724C207.342 39.6605 206.227 39.2168 205.379 38.2852C204.532 37.3979 204.086 36.2001 204.086 34.7361V33.8488V33.4496V26.5732Z" fill="white"/>
<path d="M221.48 32.7399C223.041 32.7399 224.245 33.0948 225.048 33.849C225.717 34.4701 226.073 35.2687 226.073 36.2003C226.073 37.1319 225.717 37.9748 225.048 38.5959C224.245 39.3501 223.041 39.705 221.48 39.705C220.142 39.705 219.116 39.4388 218.313 38.9065C217.644 38.4628 217.198 37.8417 216.975 37.0876L218.492 36.9545C218.67 37.3094 218.938 37.6199 219.339 37.8418C219.874 38.1079 220.588 38.2854 221.48 38.2854C222.729 38.2854 223.576 38.0192 224.111 37.4868C224.289 37.3094 224.468 37.0876 224.557 36.8214C224.602 36.6439 224.646 36.4665 224.646 36.2447C224.646 36.0672 224.602 35.8454 224.557 35.6679C224.468 35.4018 224.334 35.1799 224.111 35.0025C223.576 34.4701 222.729 34.2483 221.48 34.2483C219.963 34.2483 218.848 33.8934 218.046 33.1836C217.377 32.5625 217.064 31.8083 217.064 30.921C217.064 29.9894 217.377 29.2352 218.046 28.6585C218.848 27.9487 219.963 27.5938 221.48 27.5938C222.862 27.5938 223.888 27.8599 224.646 28.4367C224.958 28.6585 225.181 28.9247 225.404 29.2352C225.538 29.5014 225.672 29.7676 225.761 30.0337L224.245 30.1668C224.066 29.8563 223.799 29.5901 223.442 29.4127C222.952 29.1908 222.327 29.0577 221.524 29.0577C220.365 29.0577 219.562 29.2796 219.071 29.7676C218.893 29.945 218.759 30.1668 218.67 30.3887C218.625 30.5661 218.581 30.7436 218.581 30.921C218.581 31.0985 218.625 31.2759 218.67 31.4534C218.759 31.6752 218.893 31.897 219.071 32.0745C219.517 32.5181 220.365 32.7399 221.48 32.7399Z" fill="white"/>
<path d="M231.604 27.86L233.566 27.6382V29.1022L231.604 29.324V34.4702V35.1356V36.156C231.604 37.5313 232.228 38.2411 233.477 38.2411H233.566V39.7051H233.477C232.451 39.7051 231.648 39.3945 231.024 38.7291C230.4 38.0636 230.132 37.2207 230.132 36.1116V35.7567V35.0913V29.324L228.17 29.1022V27.6382L230.132 27.86V23.2905H231.604V27.86Z" fill="white"/>
<path d="M241.326 27.5496C243.066 27.5496 244.448 28.0819 245.474 29.191C246.5 30.3001 246.991 31.7641 246.991 33.6274C246.991 35.4907 246.5 36.999 245.474 38.0637C244.448 39.1728 243.066 39.7052 241.326 39.7052C239.587 39.7052 238.204 39.1728 237.179 38.0637C236.153 36.9547 235.662 35.4907 235.662 33.6274C235.662 31.7641 236.153 30.2557 237.179 29.191C238.16 28.0819 239.587 27.5496 241.326 27.5496ZM241.326 38.2412C242.664 38.2412 243.69 37.8419 244.448 37.0434C245.162 36.2448 245.563 35.0914 245.563 33.6274C245.563 32.1634 245.207 31.0099 244.448 30.2114C243.735 29.4128 242.664 29.0136 241.326 29.0136C239.988 29.0136 238.963 29.4128 238.204 30.2114C237.491 31.0099 237.09 32.1634 237.09 33.6274C237.09 35.0914 237.446 36.2448 238.204 37.0434C238.963 37.8419 239.988 38.2412 241.326 38.2412Z" fill="white"/>
<path d="M253.368 27.6827L253.502 27.6383C253.68 27.5939 253.903 27.5939 254.082 27.5496V29.0136C253.056 29.1467 252.253 29.5459 251.629 30.2114C251.004 30.8768 250.692 31.7641 250.558 32.9176H250.514V39.6608H249.042V27.5939H250.514V29.9452C251.138 28.7474 252.075 27.9932 253.368 27.6827Z" fill="white"/>
<path d="M267.461 34.2039H257.605C257.65 34.5145 257.65 34.7807 257.694 35.0025C257.917 36.0672 258.363 36.8658 259.077 37.4425C259.79 38.0192 260.727 38.2854 261.887 38.2854C263.537 38.2854 264.786 37.753 265.588 36.7327L266.926 37.3981C266.436 38.1523 265.722 38.729 264.875 39.1283C263.983 39.5276 263.002 39.7494 261.887 39.7494C260.103 39.7494 258.72 39.217 257.65 38.1523C256.624 37.0876 256.089 35.6236 256.044 33.8047V33.6716C256.044 31.8083 256.535 30.2999 257.56 29.2352C258.586 28.1261 259.969 27.5938 261.708 27.5938C263.225 27.5938 264.473 27.993 265.455 28.8359C266.436 29.6788 267.06 30.8323 267.283 32.3407C267.328 32.7399 267.372 33.1392 267.372 33.5385V34.2039H267.461ZM257.783 32.0301C257.739 32.2519 257.694 32.5181 257.65 32.8287H265.99C265.99 32.6956 265.945 32.5625 265.945 32.4294L265.901 32.2519C265.901 32.2076 265.9 32.1632 265.856 32.1188V32.0301C265.633 31.0541 265.142 30.2999 264.473 29.7676C263.804 29.2352 262.912 28.969 261.842 28.969C260.772 28.969 259.88 29.2352 259.211 29.7676C258.452 30.3443 258.006 31.0541 257.783 32.0301Z" fill="white"/>
</svg>
