<svg width="163" height="38" viewBox="0 0 163 38" fill="none" xmlns="http://www.w3.org/2000/svg">
<path d="M9.59463 2.35207C9.18693 2.56836 8.77922 2.81169 8.3987 3.08206C7.99099 3.35243 7.58329 3.62279 7.20277 3.94723C7.06687 4.05538 6.90378 4.16353 6.76788 4.29871C6.49608 4.515 6.25146 4.7313 6.00684 4.97463C5.81657 5.13685 5.65349 5.3261 5.46323 5.48832C5.24579 5.70462 5.02835 5.94795 4.81091 6.19128C4.64782 6.3535 4.51192 6.51572 4.37602 6.70497C4.10422 7.02941 3.8596 7.32682 3.61497 7.6783C3.56061 7.75941 3.50625 7.84052 3.45189 7.89459C3.18009 8.2731 2.90829 8.67865 2.66367 9.0842C2.55494 9.19235 2.4734 9.32753 2.39186 9.46272C2.25596 9.70605 2.12006 9.97641 1.98416 10.2197C1.7939 10.5983 1.60364 11.0038 1.44055 11.4094C1.35901 11.6257 1.27747 11.8149 1.19593 12.0312C1.11439 12.2205 1.06003 12.4368 0.978489 12.626C0.842588 13.0045 0.733867 13.4101 0.625146 13.8156C0.516425 14.2212 0.434884 14.5997 0.353343 15.0052C0.271803 15.4108 0.217442 15.7893 0.163082 16.1949C0.108721 16.6004 0.0815408 16.9789 0.0543605 17.3845C0 17.79 0 18.1956 0 18.5741C0 18.9796 0 19.3852 0.0271803 19.7637C0.0543605 20.1692 0.0815408 20.5748 0.135901 20.9533C0.217442 21.3589 0.271803 21.7644 0.353343 22.17C0.434884 22.5755 0.516425 22.9811 0.625146 23.3596C0.733867 23.7651 0.842588 24.1707 0.978489 24.5492C1.06003 24.7384 1.11439 24.9547 1.19593 25.144C1.27747 25.3333 1.35901 25.5495 1.44055 25.7388C1.60364 26.1444 1.7939 26.5499 1.98416 26.9284C2.12006 27.1988 2.25596 27.4421 2.39186 27.6854C2.4734 27.8206 2.55494 27.9828 2.63648 28.118C2.88111 28.5236 3.15291 28.9291 3.42471 29.3076C3.47907 29.3888 3.53343 29.4699 3.58779 29.5239C3.83242 29.8484 4.07704 30.1728 4.34884 30.4973C4.48474 30.6595 4.64782 30.8487 4.78372 31.011C5.00117 31.2543 5.21861 31.4706 5.43605 31.7139C5.62631 31.9032 5.78939 32.0654 5.97966 32.2276V28.4425C5.89812 28.3343 5.81657 28.2262 5.73503 28.118C5.43605 27.7395 5.16425 27.334 4.91963 26.9284C4.86527 26.8473 4.8109 26.7662 4.78372 26.6851C4.59346 26.3877 4.43038 26.0632 4.2673 25.7388C4.07704 25.3603 3.88678 24.9547 3.72369 24.5492C3.66933 24.441 3.64215 24.3059 3.58779 24.1977C3.47907 23.9273 3.39753 23.657 3.28881 23.3596C3.15291 22.9811 3.07137 22.5755 2.96265 22.17C2.93547 22.0618 2.90829 21.9537 2.88111 21.8455L8.37152 18.7093V34.1202C8.75204 34.3635 9.15975 34.6068 9.56745 34.8502C9.86643 35.0124 10.1654 35.1746 10.4644 35.3098H10.7634V1.73022C10.6547 1.7843 10.5459 1.83837 10.4644 1.86541C10.1926 2.02763 9.89361 2.18985 9.59463 2.35207ZM2.6093 19.25C2.6093 19.0337 2.58212 18.7904 2.58212 18.5741C2.58212 18.1685 2.6093 17.763 2.63648 17.3845C2.66366 16.9789 2.71803 16.5734 2.77239 16.1949C2.82675 15.7893 2.90829 15.3837 2.98983 15.0052C3.07137 14.5997 3.18009 14.1941 3.31599 13.8156C3.39753 13.5453 3.50625 13.2479 3.61497 12.9775C3.66933 12.8693 3.69651 12.7342 3.75088 12.626C3.91396 12.2205 4.10422 11.8149 4.29448 11.4364C4.45756 11.112 4.62064 10.7875 4.81091 10.4901C4.86527 10.409 4.91963 10.3279 4.94681 10.2468C5.19143 9.84123 5.46323 9.43568 5.76221 9.05717C5.84375 8.94902 5.9253 8.84087 6.00684 8.73273C6.25146 8.43532 6.49608 8.13792 6.7407 7.86755C6.8766 7.70533 7.03969 7.54311 7.20277 7.38089C7.44739 7.13756 7.69201 6.89423 7.96381 6.67794C8.09972 6.54275 8.2628 6.40757 8.42588 6.29942V15.9515L2.6093 19.25Z" fill="url(#paint0_linear_14_7704)"/>
<path d="M22.7771 0.459624C22.3694 0.378514 21.9888 0.297404 21.5811 0.24333C21.2006 0.16222 20.7929 0.108147 20.3852 0.0811101C19.9775 0.0540734 19.597 0.0270367 19.1893 0C19.0262 0 18.8631 0 18.6728 0C18.4282 0 18.2108 0 17.9933 0C17.5856 0.0270367 17.1779 0.0540734 16.7974 0.0811101C16.3897 0.108147 15.982 0.16222 15.6015 0.24333C15.1938 0.297404 14.7861 0.378514 14.4055 0.48666C14.1337 0.540734 13.8891 0.621844 13.6173 0.675917C13.4814 0.702954 13.3183 0.757027 13.1824 0.811101V36.3373C13.3183 36.3914 13.4814 36.4184 13.6173 36.4725C13.8619 36.5536 14.1337 36.6077 14.3784 36.6617C14.7861 36.7429 15.1666 36.824 15.5743 36.9051C15.982 36.9591 16.3625 37.0132 16.7702 37.0673C17.1779 37.0943 17.5585 37.1214 17.9662 37.1484C18.1836 37.1484 18.4282 37.1484 18.6457 37.1484C18.8087 37.1484 18.9718 37.1484 19.1621 37.1484C19.5698 37.1484 19.9775 37.1214 20.358 37.0673C20.7657 37.0403 21.1734 36.9862 21.554 36.9321C21.9617 36.878 22.3694 36.7969 22.7499 36.7158C23.076 36.6347 23.375 36.5536 23.7012 36.4725C23.7827 36.4454 23.8643 36.4184 23.9458 36.3914V24.1978V21.4401L21.554 20.0612L17.9662 17.9794V20.7371L21.554 22.819V34.3366C21.1462 34.4177 20.7657 34.4718 20.358 34.4988C19.9503 34.5529 19.5698 34.5799 19.1621 34.5799C18.999 34.5799 18.8359 34.5799 18.6457 34.5799C18.401 34.5799 18.1836 34.5799 17.9662 34.5529C17.5585 34.5258 17.1508 34.4988 16.7702 34.4447C16.3625 34.3907 15.9548 34.3366 15.5743 34.2555V2.86589C15.982 2.78478 16.3625 2.73071 16.7702 2.67663C17.1779 2.62256 17.5585 2.59552 17.9662 2.56849C18.1836 2.56849 18.4282 2.54145 18.6457 2.54145C18.8087 2.54145 18.9718 2.54145 19.1621 2.54145C19.5698 2.54145 19.9775 2.56849 20.358 2.62256C20.7657 2.67663 21.1734 2.73071 21.554 2.78478V17.2764L23.9458 18.6553V0.757027C23.8643 0.72999 23.7827 0.702954 23.7012 0.675917C23.4294 0.594807 23.1032 0.513697 22.7771 0.459624Z" fill="url(#paint1_linear_14_7704)"/>
<path d="M37.3185 17.3847C37.2914 16.9792 37.2642 16.5736 37.2098 16.1951H37.1826V15.9518C37.1283 15.6273 37.0739 15.3029 37.0195 15.0055C36.938 14.5999 36.8565 14.1944 36.7477 13.8159C36.639 13.4103 36.5303 13.0048 36.3944 12.6262C36.2585 12.2748 36.1498 11.8963 35.9867 11.5448C35.9595 11.4907 35.9595 11.4637 35.9323 11.4096C35.7693 11.004 35.579 10.5985 35.3887 10.22C35.1985 9.84147 35.0082 9.48999 34.7908 9.13851C34.7636 9.11147 34.7364 9.0574 34.7364 9.03037C34.4918 8.62482 34.22 8.21926 33.9482 7.84075C33.8395 7.67853 33.7036 7.51631 33.5948 7.35409C33.4046 7.11076 33.2143 6.86743 33.0241 6.6241C32.8338 6.38077 32.6163 6.13744 32.3989 5.92115C32.2358 5.75893 32.0999 5.59671 31.9368 5.43449C31.6922 5.19116 31.4476 4.97486 31.203 4.75857C31.0127 4.59635 30.8225 4.40709 30.605 4.24487C30.4147 4.08265 30.1973 3.92043 30.007 3.75821C29.6809 3.51488 29.3547 3.27155 29.0014 3.05526C28.947 3.00119 28.8655 2.97415 28.8111 2.92008C28.4306 2.67675 28.0229 2.43341 27.6152 2.21712C27.3706 2.08194 27.1531 1.97379 26.9085 1.86564C26.7454 1.78453 26.5823 1.70342 26.4193 1.62231V20.0343L28.8111 21.4132L33.7579 24.252C33.7307 24.3331 33.7036 24.4142 33.6492 24.4953C33.622 24.5224 33.622 24.5765 33.5948 24.6035C33.4318 24.982 33.2687 25.3335 33.1056 25.685C32.9969 25.9283 32.861 26.1716 32.7251 26.3879C32.6435 26.5501 32.5348 26.7124 32.4533 26.8746C32.4533 26.9016 32.4261 26.9286 32.4261 26.9286C32.1815 27.3072 31.9368 27.6857 31.665 28.0642C31.5291 28.2534 31.3932 28.4427 31.2302 28.6049C31.0399 28.8212 30.8768 29.0375 30.6594 29.2538C30.4419 29.4701 30.2245 29.7134 30.007 29.9297C29.8168 30.119 29.6265 30.2812 29.4363 30.4434C29.2188 30.6327 29.0286 30.7949 28.8111 30.9841V24.1979L26.4193 22.8191V35.4993C26.5823 35.4182 26.7454 35.3371 26.9085 35.2559C27.1531 35.1478 27.3706 35.0126 27.6152 34.9045C28.0229 34.6882 28.4306 34.4448 28.8111 34.2015C28.8655 34.1474 28.947 34.1204 29.0014 34.0663C29.3547 33.85 29.6809 33.6067 30.007 33.3634C30.2245 33.2012 30.4147 33.0389 30.605 32.8767C30.7953 32.7145 31.0127 32.5523 31.203 32.363C31.4476 32.1467 31.6922 31.9034 31.9368 31.6871C32.0999 31.5249 32.263 31.3627 32.3989 31.2004C32.6163 30.9842 32.8338 30.7408 33.0241 30.4975C33.2143 30.2542 33.4046 30.0379 33.5948 29.7675C33.7036 29.6053 33.8395 29.4431 33.9482 29.2808C34.22 28.9023 34.4918 28.4968 34.7364 28.0912C34.7636 28.0642 34.7908 28.0101 34.7908 27.9831C34.8451 27.902 34.8995 27.7938 34.9539 27.7127C35.1169 27.4423 35.2528 27.172 35.3887 26.9016C35.579 26.5231 35.7693 26.1175 35.9323 25.712C35.9595 25.6579 35.9595 25.6309 35.9867 25.5768V25.5498C36.1226 25.1983 36.2585 24.8468 36.3672 24.4953C36.5031 24.1168 36.6118 23.7113 36.7206 23.3057C36.7206 23.2787 36.7206 23.2517 36.7477 23.2246L36.4216 23.0354L34.0297 21.6565L28.7839 18.6284V6.1104C29.0014 6.27262 29.2188 6.46188 29.4091 6.65114C29.5993 6.81336 29.7896 7.00261 29.9799 7.16483C30.1973 7.38113 30.4147 7.59742 30.6322 7.84075C30.8225 8.05704 31.0127 8.27334 31.203 8.48963C31.3389 8.67889 31.502 8.84111 31.6379 9.03037C31.9097 9.40888 32.1815 9.76035 32.3989 10.1659C32.3989 10.1929 32.4261 10.22 32.4261 10.22C32.6707 10.5985 32.8882 11.004 33.1056 11.4096C33.2959 11.7611 33.4589 12.1125 33.5948 12.4911C33.622 12.5181 33.622 12.5722 33.6492 12.5992C33.8123 12.9777 33.9482 13.3833 34.0841 13.7888C34.22 14.1673 34.3015 14.5729 34.4102 14.9784C34.4918 15.384 34.5733 15.7625 34.6277 16.168C34.682 16.5736 34.7364 16.9521 34.7636 17.3577C34.7908 17.7632 34.818 18.1417 34.818 18.5473C34.818 18.8176 34.818 19.088 34.7908 19.3584L37.2642 20.7643C37.2914 20.4128 37.3457 20.0884 37.3457 19.7369C37.3729 19.3313 37.3729 18.9528 37.3729 18.5473C37.3729 18.1958 37.3457 17.7903 37.3185 17.3847Z" fill="url(#paint2_linear_14_7704)"/>
<path d="M53.1646 9.5437L58.2473 24.1976H56.5077L55.0672 20.0069H49.3865L49.3322 20.1691L47.946 24.1976H46.2064L51.2891 9.5437H53.1646ZM49.9301 18.3847H54.4964L52.2133 11.7877L49.9301 18.3847Z" fill="url(#paint3_linear_14_7704)"/>
<path d="M65.4772 24.1165C65.1511 24.1706 64.8249 24.1976 64.4716 24.1976C64.1182 24.1976 63.7921 24.1706 63.4931 24.1165L63.3844 24.0895C62.5961 23.9272 61.971 23.5487 61.5089 22.981V29.0101H59.8781V14.3833H61.5089V15.5729C61.971 15.0322 62.5961 14.6537 63.3572 14.4914L63.4659 14.4644C63.7921 14.4103 64.1182 14.3833 64.4716 14.3833C64.8249 14.3833 65.1511 14.4103 65.4772 14.4644C65.5316 14.4644 65.5588 14.4644 65.586 14.4914C66.6732 14.7077 67.5429 15.2485 68.1409 16.1136C68.7661 16.9518 69.065 18.0333 69.065 19.304C69.065 20.6017 68.7661 21.6562 68.1409 22.4943C67.5158 23.3324 66.646 23.8732 65.5588 24.1165H65.4772ZM64.4988 22.5754C65.4501 22.5754 66.1839 22.305 66.7004 21.7373C67.2168 21.1695 67.4614 20.3584 67.4614 19.304C67.4614 18.2495 67.2168 17.4384 66.7004 16.8707C66.1839 16.3029 65.4501 16.0325 64.4988 16.0325C63.5474 16.0325 62.8136 16.3029 62.2972 16.8707C61.7807 17.4384 61.5361 18.2495 61.5361 19.304C61.5361 20.3584 61.7807 21.1695 62.2972 21.7373C62.7864 22.278 63.5203 22.5754 64.4988 22.5754Z" fill="url(#paint4_linear_14_7704)"/>
<path d="M76.3221 24.1165C75.996 24.1706 75.6698 24.1976 75.3165 24.1976C74.9631 24.1976 74.637 24.1706 74.338 24.1165L74.2293 24.0895C73.441 23.9272 72.8159 23.5487 72.3538 22.981V29.0101H70.723V14.3833H72.3538V15.5729C72.8159 15.0322 73.441 14.6537 74.2021 14.4914L74.3108 14.4644C74.637 14.4103 74.9631 14.3833 75.3165 14.3833C75.6698 14.3833 75.996 14.4103 76.3221 14.4644C76.3765 14.4644 76.4037 14.4644 76.4309 14.4914C77.5181 14.7077 78.3879 15.2485 78.9858 16.1136C79.611 16.9518 79.9099 18.0333 79.9099 19.304C79.9099 20.6017 79.611 21.6562 78.9858 22.4943C78.3607 23.3324 77.4909 23.8732 76.4037 24.1165H76.3221ZM75.3437 22.5754C76.295 22.5754 77.0288 22.305 77.5453 21.7373C78.0617 21.1695 78.3063 20.3584 78.3063 19.304C78.3063 18.2495 78.0617 17.4384 77.5453 16.8707C77.0288 16.3029 76.295 16.0325 75.3437 16.0325C74.3924 16.0325 73.6585 16.3029 73.1421 16.8707C72.6256 17.4384 72.381 18.2495 72.381 19.304C72.381 20.3584 72.6256 21.1695 73.1421 21.7373C73.6585 22.278 74.3652 22.5754 75.3437 22.5754Z" fill="url(#paint5_linear_14_7704)"/>
<path d="M93.5544 24.1978H91.9236V22.2511C90.8636 23.5489 89.3958 24.1978 87.5747 24.1978C85.7537 24.1978 84.3131 23.5759 83.2531 22.3052C82.1931 21.0345 81.6223 19.3041 81.5951 17.1142V16.6005C81.6495 14.4105 82.1931 12.7072 83.3074 11.4364C84.4218 10.1657 85.8896 9.51685 87.765 9.51685C88.9881 9.51685 90.0482 9.78721 90.9723 10.355C91.8964 10.9228 92.6031 11.7339 93.1195 12.8153L91.6246 13.4642C90.8636 11.9231 89.5861 11.1661 87.765 11.1661C86.3516 11.1661 85.2644 11.6527 84.4762 12.599C83.688 13.5453 83.2803 14.8701 83.2259 16.6275V17.1412C83.2531 18.8715 83.6608 20.2234 84.4218 21.1697C85.1829 22.1159 86.2157 22.5756 87.5747 22.5756C88.7979 22.5756 89.7763 22.17 90.5374 21.3589C91.2713 20.5478 91.7333 19.4123 91.8692 17.9523C91.8692 17.8441 91.8964 17.736 91.8964 17.6819H88.7435V16.0597H93.5544V24.1978Z" fill="url(#paint6_linear_14_7704)"/>
<path d="M96.8432 24.1976H95.2124V14.3833H96.8432V15.5729C97.3053 15.0322 97.9304 14.6537 98.6915 14.4914L98.8002 14.4644C99.0448 14.4103 99.2894 14.3833 99.5612 14.3833V16.0055C98.7187 16.0596 98.0663 16.3299 97.6043 16.8436C97.1422 17.3573 96.8976 18.0873 96.8432 19.0066V24.1976Z" fill="url(#paint7_linear_14_7704)"/>
<path d="M110.379 19.953H102.85C102.877 20.0882 102.877 20.1964 102.904 20.2504C103.04 20.8993 103.285 21.413 103.693 21.7915C104.209 22.3052 104.943 22.5486 105.894 22.5486C106.519 22.5486 107.063 22.4404 107.552 22.2241C108.042 22.0078 108.395 21.7104 108.639 21.3049L110.107 22.0078C109.727 22.6837 109.156 23.2245 108.395 23.603C107.661 23.9815 106.818 24.1708 105.867 24.1708C104.454 24.1708 103.312 23.7382 102.47 22.846C101.627 21.9808 101.192 20.7912 101.165 19.3312V19.2501C101.165 17.7631 101.573 16.5735 102.415 15.6812C103.258 14.789 104.372 14.3564 105.758 14.3564C106.981 14.3564 107.987 14.7079 108.803 15.3838C109.591 16.0598 110.107 17.006 110.297 18.2227C110.352 18.5471 110.379 18.8716 110.379 19.196V19.953ZM108.667 18.439C108.667 18.3579 108.667 18.2768 108.639 18.1957L108.612 18.1145C108.259 16.6816 107.335 15.9786 105.786 15.9786C104.916 15.9786 104.236 16.222 103.72 16.6816C103.339 17.0331 103.095 17.5197 102.932 18.1145C102.904 18.1957 102.904 18.3038 102.877 18.4119H108.667V18.439Z" fill="url(#paint8_linear_14_7704)"/>
<path d="M115.625 24.1165L115.516 24.0895C114.429 23.8732 113.559 23.3324 112.961 22.4673C112.363 21.6021 112.037 20.5477 112.037 19.2769C112.037 17.9792 112.336 16.9247 112.961 16.0866C113.586 15.2485 114.456 14.7077 115.543 14.4914L115.652 14.4644C115.978 14.4103 116.304 14.3833 116.63 14.3833C116.984 14.3833 117.31 14.4103 117.636 14.4644L117.718 14.4914C118.479 14.6537 119.104 15.0051 119.593 15.5729V14.3833H121.224V24.1976H119.593V22.981C119.131 23.5487 118.506 23.9002 117.745 24.0624L117.636 24.0895C117.31 24.1435 116.984 24.1706 116.63 24.1706C116.277 24.1976 115.951 24.1706 115.625 24.1165ZM113.668 19.2769C113.668 20.3314 113.912 21.1425 114.429 21.7102C114.945 22.278 115.679 22.5484 116.63 22.5484C117.582 22.5484 118.316 22.278 118.832 21.7102C119.348 21.1425 119.593 20.3314 119.593 19.2769V19.2499C119.593 18.1955 119.348 17.3844 118.832 16.8166C118.316 16.2488 117.582 15.9785 116.63 15.9785C115.679 15.9785 114.945 16.2488 114.429 16.8166C113.912 17.4114 113.668 18.2225 113.668 19.2769Z" fill="url(#paint9_linear_14_7704)"/>
<path d="M124.377 16.1947L122.882 16.0324V14.4102L124.377 14.5724V11.0847H126.008V14.5724L127.503 14.4102V16.0324L126.008 16.1947V20.169V20.4124V21.1964C126.008 22.0886 126.415 22.5483 127.204 22.5483H127.503V24.1705H127.204C126.361 24.1705 125.682 23.9001 125.165 23.3323C124.649 22.7916 124.377 22.0616 124.377 21.1694V20.6287V20.3853V16.1947Z" fill="url(#paint10_linear_14_7704)"/>
<path d="M134.977 19.9529C135.928 19.9529 136.662 20.1692 137.152 20.6288C137.559 21.0073 137.777 21.494 137.777 22.0618C137.777 22.6295 137.559 23.1432 137.152 23.5217C136.662 23.9814 135.928 24.1977 134.977 24.1977C134.162 24.1977 133.537 24.0354 133.047 23.711C132.64 23.4406 132.368 23.0621 132.232 22.6025L133.156 22.5214C133.265 22.7377 133.428 22.9269 133.672 23.0621C133.999 23.2243 134.434 23.3325 134.977 23.3325C135.738 23.3325 136.255 23.1703 136.581 22.8458C136.689 22.7377 136.798 22.6025 136.853 22.4403C136.88 22.3321 136.907 22.224 136.907 22.0888C136.907 21.9807 136.88 21.8455 136.853 21.7373C136.798 21.5751 136.717 21.4399 136.581 21.3318C136.255 21.0073 135.738 20.8722 134.977 20.8722C134.053 20.8722 133.374 20.6559 132.884 20.2233C132.477 19.8448 132.286 19.3851 132.286 18.8444C132.286 18.2766 132.477 17.817 132.884 17.4655C133.374 17.0329 134.053 16.8167 134.977 16.8167C135.82 16.8167 136.445 16.9789 136.907 17.3303C137.097 17.4655 137.233 17.6278 137.369 17.817C137.451 17.9792 137.532 18.1414 137.586 18.3037L136.662 18.3848C136.554 18.1955 136.391 18.0333 136.173 17.9252C135.874 17.79 135.494 17.7089 135.004 17.7089C134.298 17.7089 133.808 17.844 133.509 18.1414C133.401 18.2496 133.319 18.3848 133.265 18.52C133.238 18.6281 133.21 18.7363 133.21 18.8444C133.21 18.9525 133.238 19.0607 133.265 19.1688C133.319 19.304 133.401 19.4392 133.509 19.5474C133.781 19.8177 134.298 19.9529 134.977 19.9529Z" fill="url(#paint11_linear_14_7704)"/>
<path d="M141.147 16.9789L142.343 16.8437V17.7359L141.147 17.8711V21.0073V21.4129V22.0347C141.147 22.8729 141.528 23.3055 142.289 23.3055H142.343V24.1977H142.289C141.664 24.1977 141.174 24.0084 140.794 23.6029C140.413 23.1973 140.25 22.6836 140.25 22.0077V21.7914V21.3858V17.8711L139.054 17.7359V16.8437L140.25 16.9789V14.1941H141.147V16.9789Z" fill="url(#paint12_linear_14_7704)"/>
<path d="M147.072 16.7896C148.132 16.7896 148.975 17.114 149.6 17.7899C150.225 18.4658 150.524 19.358 150.524 20.4936C150.524 21.6291 150.225 22.5484 149.6 23.1972C148.975 23.8732 148.132 24.1976 147.072 24.1976C146.012 24.1976 145.17 23.8732 144.545 23.1972C143.919 22.5213 143.62 21.6291 143.62 20.4936C143.62 19.358 143.919 18.4388 144.545 17.7899C145.143 17.114 146.012 16.7896 147.072 16.7896ZM147.072 23.3054C147.888 23.3054 148.513 23.0621 148.975 22.5754C149.41 22.0887 149.654 21.3858 149.654 20.4936C149.654 19.6014 149.437 18.8984 148.975 18.4118C148.54 17.9251 147.888 17.6818 147.072 17.6818C146.257 17.6818 145.632 17.9251 145.17 18.4118C144.735 18.8984 144.49 19.6014 144.49 20.4936C144.49 21.3858 144.708 22.0887 145.17 22.5754C145.632 23.0621 146.257 23.3054 147.072 23.3054Z" fill="url(#paint13_linear_14_7704)"/>
<path d="M154.411 16.8707L154.493 16.8436C154.601 16.8166 154.737 16.8166 154.846 16.7896V17.6818C154.221 17.7629 153.732 18.0062 153.351 18.4118C152.97 18.8173 152.78 19.358 152.699 20.061H152.671V24.1706H151.775V16.8166H152.671V18.2495C153.052 17.5195 153.623 17.0599 154.411 16.8707Z" fill="url(#paint14_linear_14_7704)"/>
<path d="M163 20.8451H156.993C157.02 21.0344 157.02 21.1966 157.048 21.3318C157.183 21.9807 157.455 22.4673 157.89 22.8188C158.325 23.1703 158.896 23.3325 159.602 23.3325C160.608 23.3325 161.369 23.0081 161.858 22.3862L162.674 22.7918C162.375 23.2514 161.94 23.6029 161.424 23.8462C160.88 24.0895 160.282 24.2247 159.602 24.2247C158.515 24.2247 157.673 23.9003 157.02 23.2514C156.395 22.6025 156.069 21.7103 156.042 20.6018V20.5207C156.042 19.3851 156.341 18.4659 156.966 17.817C157.591 17.1411 158.434 16.8167 159.494 16.8167C160.418 16.8167 161.179 17.06 161.777 17.5737C162.375 18.0874 162.755 18.7903 162.891 19.7096C162.918 19.9529 162.946 20.1962 162.946 20.4396V20.8451H163ZM157.102 19.5203C157.075 19.6555 157.048 19.8177 157.02 20.007H162.103C162.103 19.9259 162.076 19.8448 162.076 19.7636L162.049 19.6555C162.049 19.6285 162.049 19.6014 162.022 19.5744V19.5203C161.886 18.9255 161.587 18.4659 161.179 18.1414C160.771 17.817 160.228 17.6548 159.575 17.6548C158.923 17.6548 158.379 17.817 157.972 18.1414C157.51 18.4929 157.238 18.9255 157.102 19.5203Z" fill="url(#paint15_linear_14_7704)"/>
<defs>
<linearGradient id="paint0_linear_14_7704" x1="0.926411" y1="31.9749" x2="21.6502" y2="-3.49536" gradientUnits="userSpaceOnUse">
<stop/>
<stop offset="0.9971" stop-color="#424447"/>
</linearGradient>
<linearGradient id="paint1_linear_14_7704" x1="8.19157" y1="36.2198" x2="28.9154" y2="0.749494" gradientUnits="userSpaceOnUse">
<stop/>
<stop offset="0.9971" stop-color="#424447"/>
</linearGradient>
<linearGradient id="paint2_linear_14_7704" x1="15.4499" y1="40.4606" x2="36.1737" y2="4.99031" gradientUnits="userSpaceOnUse">
<stop/>
<stop offset="0.9971" stop-color="#424447"/>
</linearGradient>
<linearGradient id="paint3_linear_14_7704" x1="49.3368" y1="26.0442" x2="57.4972" y2="12.0773" gradientUnits="userSpaceOnUse">
<stop/>
<stop offset="0.9971" stop-color="#424447"/>
</linearGradient>
<linearGradient id="paint4_linear_14_7704" x1="58.3135" y1="28.1199" x2="66.2324" y2="14.5661" gradientUnits="userSpaceOnUse">
<stop/>
<stop offset="0.9971" stop-color="#424447"/>
</linearGradient>
<linearGradient id="paint5_linear_14_7704" x1="69.1609" y1="28.1199" x2="77.0798" y2="14.5661" gradientUnits="userSpaceOnUse">
<stop/>
<stop offset="0.9971" stop-color="#424447"/>
</linearGradient>
<linearGradient id="paint6_linear_14_7704" x1="84.9226" y1="23.6496" x2="92.2401" y2="11.1251" gradientUnits="userSpaceOnUse">
<stop/>
<stop offset="0.9971" stop-color="#424447"/>
</linearGradient>
<linearGradient id="paint7_linear_14_7704" x1="93.6494" y1="23.3008" x2="99.0291" y2="14.093" gradientUnits="userSpaceOnUse">
<stop/>
<stop offset="0.9971" stop-color="#424447"/>
</linearGradient>
<linearGradient id="paint8_linear_14_7704" x1="103.42" y1="23.6126" x2="108.407" y2="15.0773" gradientUnits="userSpaceOnUse">
<stop/>
<stop offset="0.9971" stop-color="#424447"/>
</linearGradient>
<linearGradient id="paint9_linear_14_7704" x1="114.825" y1="23.9728" x2="120.634" y2="14.0302" gradientUnits="userSpaceOnUse">
<stop/>
<stop offset="0.9971" stop-color="#424447"/>
</linearGradient>
<linearGradient id="paint10_linear_14_7704" x1="123.174" y1="22.3447" x2="128.796" y2="12.7233" gradientUnits="userSpaceOnUse">
<stop/>
<stop offset="0.9971" stop-color="#424447"/>
</linearGradient>
<linearGradient id="paint11_linear_14_7704" x1="133.11" y1="23.7498" x2="136.892" y2="17.2775" gradientUnits="userSpaceOnUse">
<stop/>
<stop offset="0.9971" stop-color="#424447"/>
</linearGradient>
<linearGradient id="paint12_linear_14_7704" x1="139.199" y1="22.7585" x2="143.43" y2="15.5163" gradientUnits="userSpaceOnUse">
<stop/>
<stop offset="0.9971" stop-color="#424447"/>
</linearGradient>
<linearGradient id="paint13_linear_14_7704" x1="145.162" y1="23.7204" x2="148.939" y2="17.2549" gradientUnits="userSpaceOnUse">
<stop/>
<stop offset="0.9971" stop-color="#424447"/>
</linearGradient>
<linearGradient id="paint14_linear_14_7704" x1="150.494" y1="23.4492" x2="154.485" y2="16.618" gradientUnits="userSpaceOnUse">
<stop/>
<stop offset="0.9971" stop-color="#424447"/>
</linearGradient>
<linearGradient id="paint15_linear_14_7704" x1="157.763" y1="23.767" x2="161.527" y2="17.3251" gradientUnits="userSpaceOnUse">
<stop/>
<stop offset="0.9971" stop-color="#424447"/>
</linearGradient>
</defs>
</svg>
